<svg width="24" height="24" viewBox="0 0 24 24" fill="none" xmlns="http://www.w3.org/2000/svg">
<g clip-path="url(#clip0_1129_9232)">
<path d="M10.9697 11.9697C13.4476 11.9697 15.4545 9.96273 15.4545 7.48485C15.4545 5.00697 13.4476 3 10.9697 3C8.49182 3 6.48485 5.00697 6.48485 7.48485C6.48485 9.96273 8.49182 11.9697 10.9697 11.9697ZM10.9697 5.24242C12.203 5.24242 13.2121 6.25152 13.2121 7.48485C13.2121 8.71818 12.203 9.72727 10.9697 9.72727C9.73636 9.72727 8.72727 8.71818 8.72727 7.48485C8.72727 6.25152 9.73636 5.24242 10.9697 5.24242ZM4.24242 18.697C4.46667 17.9906 7.12394 16.8133 9.80364 16.5218L12.0909 14.2794C11.6536 14.2345 11.3285 14.2121 10.9697 14.2121C7.97606 14.2121 2 15.7145 2 18.697V20.9394H12.0909L9.84849 18.697H4.24242ZM21.7333 12.5303L15.9815 18.327L13.6606 15.9948L12.0909 17.5758L15.9815 21.5L23.303 14.1112L21.7333 12.5303Z" fill="white"/>
</g>
<defs>
<clipPath id="clip0_1129_9232">
<rect width="24" height="24" fill="white"/>
</clipPath>
</defs>
</svg>
