<?xml version="1.0" encoding="utf-8"?>
<!-- Generator: Adobe Illustrator 27.3.1, SVG Export Plug-In . SVG Version: 6.00 Build 0)  -->
<svg version="1.1" id="圖層_1" xmlns="http://www.w3.org/2000/svg" xmlns:xlink="http://www.w3.org/1999/xlink" x="0px" y="0px"
	 viewBox="0 0 24 24" style="enable-background:new 0 0 24 24;" xml:space="preserve">
<style type="text/css">
	.st0{fill:#FFFFFF;}
</style>
<path class="st0" d="M6.5,11.9h3.3V10H6.5V11.9z M3.7,16.1h2.9l-4.4,4.4l1.3,1.3l4.4-4.4v2.9h1.9v-6.1H3.7V16.1z M18.2,10h-3.3v1.9
	h3.3V10z M12.1,14.7h3.3v-1.9h-3.3V14.7z M14.9,17.5h3.3v-1.9h-3.3V17.5z M21.2,2.8c-0.3-0.3-0.7-0.5-1.2-0.5H4.6
	c-0.4,0-0.9,0.2-1.2,0.5C3.2,3.1,3,3.5,3,3.9v8h1.9V8.4h14.9v10.7h-7.7V21h8c0.4,0,0.9-0.2,1.2-0.5s0.5-0.7,0.5-1.2V3.9
	C21.7,3.5,21.5,3.1,21.2,2.8z M19.8,6.5H4.9V4.2h14.9V6.5z"/>
</svg>
