<svg width="24" height="24" viewBox="0 0 24 24" fill="none" xmlns="http://www.w3.org/2000/svg">
<path d="M9.65 9.49H5.06V11.02H9.65V9.49Z" fill="white"/>
<path d="M9.65 12.55H5.06V14.08H9.65V12.55Z" fill="white"/>
<path d="M9.65 15.61H5.06V17.14H9.65V15.61Z" fill="white"/>
<path d="M19.28 7.81H13.16C11.9 7.81 10.87 8.84 10.87 10.1V19.27C10.87 20.53 11.9 21.56 13.16 21.56H19.28C20.54 21.56 21.57 20.53 21.57 19.27V10.1C21.57 8.84 20.54 7.81 19.28 7.81ZM20.04 19.28C20.04 19.7 19.7 20.04 19.28 20.04H13.16C12.74 20.04 12.4 19.7 12.4 19.28V10.1C12.4 9.68 12.74 9.34 13.16 9.34H19.28C19.7 9.34 20.04 9.68 20.04 10.1V19.28Z" fill="white"/>
<path d="M18.52 10.87H13.93V12.4H18.52V10.87Z" fill="white"/>
<path d="M14.69 13.93C14.27 13.93 13.93 14.27 13.93 14.69C13.93 15.11 14.27 15.45 14.69 15.45C15.11 15.45 15.45 15.11 15.45 14.69C15.45 14.27 15.11 13.93 14.69 13.93Z" fill="white"/>
<path d="M17.75 13.93C17.33 13.93 16.99 14.27 16.99 14.69C16.99 15.11 17.33 15.45 17.75 15.45C18.17 15.45 18.51 15.11 18.51 14.69C18.51 14.27 18.17 13.93 17.75 13.93Z" fill="white"/>
<path d="M17.75 16.98C17.33 16.98 16.99 17.32 16.99 17.74C16.99 18.16 17.33 18.5 17.75 18.5C18.17 18.5 18.51 18.16 18.51 17.74C18.51 17.32 18.17 16.98 17.75 16.98Z" fill="white"/>
<path d="M14.69 16.98C14.27 16.98 13.93 17.32 13.93 17.74C13.93 18.16 14.27 18.5 14.69 18.5C15.11 18.5 15.45 18.16 15.45 17.74C15.45 17.32 15.11 16.98 14.69 16.98Z" fill="white"/>
<path d="M3.53 19.28V6.59H6.59V3.53H14.69C15.11 3.53 15.45 3.87 15.45 4.29V6.58H16.98V4.29C16.98 3.03 15.95 2 14.69 2H5.82C3.71 2 2 3.71 2 5.82V19.28C2 20.54 3.03 21.57 4.29 21.57H9.64V20.04H4.29C3.87 20.04 3.53 19.7 3.53 19.28ZM5.06 3.67V5.06H3.67C3.9 4.41 4.41 3.9 5.06 3.67Z" fill="white"/>
</svg>
