<svg width="24" height="24" viewBox="0 0 24 24" fill="none" xmlns="http://www.w3.org/2000/svg">
<path d="M19.0526 6H16.9874C17.0916 5.69 17.1579 5.35 17.1579 5C17.1579 3.34 15.8884 2 14.3158 2C13.3211 2 12.4589 2.54 11.9474 3.35L11.4737 4.02L11 3.34C10.4884 2.54 9.62632 2 8.63158 2C7.05895 2 5.78947 3.34 5.78947 5C5.78947 5.35 5.85579 5.69 5.96 6H3.89474C2.84316 6 2.00947 6.89 2.00947 8L2 19C2 20.11 2.84316 21 3.89474 21H19.0526C20.1042 21 20.9474 20.11 20.9474 19V8C20.9474 6.89 20.1042 6 19.0526 6ZM14.3158 4C14.8368 4 15.2632 4.45 15.2632 5C15.2632 5.55 14.8368 6 14.3158 6C13.7947 6 13.3684 5.55 13.3684 5C13.3684 4.45 13.7947 4 14.3158 4ZM8.63158 4C9.15263 4 9.57895 4.45 9.57895 5C9.57895 5.55 9.15263 6 8.63158 6C8.11053 6 7.68421 5.55 7.68421 5C7.68421 4.45 8.11053 4 8.63158 4ZM19.0526 19H3.89474V17H19.0526V19ZM19.0526 14H3.89474V8H8.70737L6.73684 10.83L8.27158 12L10.5263 8.76L11.4737 7.4L12.4211 8.76L14.6758 12L16.2105 10.83L14.24 8H19.0526V14Z" fill="white"/>
</svg>
