<svg width="24" height="24" viewBox="0 0 24 24" fill="none" xmlns="http://www.w3.org/2000/svg">
<g clip-path="url(#clip0_1129_9203)">
<path d="M16.7895 12.8271H12.8271V16.7895H11.1729V12.8271H7.21053V11.1729H11.1729V7.21053H12.8271V11.1729H16.7895V12.8271Z" fill="white"/>
<path fill-rule="evenodd" clip-rule="evenodd" d="M12 19.8947C16.3601 19.8947 19.8947 16.3601 19.8947 12C19.8947 7.63986 16.3601 4.10526 12 4.10526C7.63986 4.10526 4.10526 7.63986 4.10526 12C4.10526 16.3601 7.63986 19.8947 12 19.8947ZM12 22C17.5228 22 22 17.5228 22 12C22 6.47715 17.5228 2 12 2C6.47715 2 2 6.47715 2 12C2 17.5228 6.47715 22 12 22Z" fill="white"/>
</g>
<defs>
<clipPath id="clip0_1129_9203">
<rect width="24" height="24" fill="white"/>
</clipPath>
</defs>
</svg>
