<?xml version="1.0" encoding="utf-8"?>
<!-- Generator: Adobe Illustrator 27.3.1, SVG Export Plug-In . SVG Version: 6.00 Build 0)  -->
<svg version="1.1" id="圖層_1" xmlns="http://www.w3.org/2000/svg" xmlns:xlink="http://www.w3.org/1999/xlink" x="0px" y="0px"
	 viewBox="0 0 24 24" style="enable-background:new 0 0 24 24;" xml:space="preserve">
<style type="text/css">
	.st0{fill:#52C41A;}
</style>
<path class="st0" d="M12,1.4C6.2,1.4,1.4,6.2,1.4,12c0,5.8,4.7,10.6,10.6,10.6c5.8,0,10.6-4.7,10.6-10.6C22.6,6.2,17.8,1.4,12,1.4z
	 M16.6,8.5l-5,6.9c-0.1,0.1-0.2,0.2-0.3,0.2c-0.1,0.1-0.2,0.1-0.3,0.1c-0.1,0-0.2,0-0.3-0.1c-0.1-0.1-0.2-0.1-0.3-0.2l-2.9-4.1
	c-0.1-0.1,0-0.3,0.2-0.3h1.1c0.2,0,0.5,0.1,0.6,0.3l1.7,2.3l3.7-5.1c0.1-0.2,0.4-0.3,0.6-0.3h1.1C16.6,8.2,16.7,8.4,16.6,8.5
	L16.6,8.5z"/>
</svg>
