<?xml version="1.0" encoding="utf-8"?>
<!-- Generator: Adobe Illustrator 27.3.1, SVG Export Plug-In . SVG Version: 6.00 Build 0)  -->
<svg version="1.1" id="圖層_1" xmlns="http://www.w3.org/2000/svg" xmlns:xlink="http://www.w3.org/1999/xlink" x="0px" y="0px"
	 viewBox="0 0 24 24" style="enable-background:new 0 0 24 24;" xml:space="preserve">
<style type="text/css">
	.st0{fill:#FFC53D;}
</style>
<path class="st0" d="M12,1C5.9,1,1,5.9,1,12c0,6.1,4.9,11,11,11c6.1,0,11-4.9,11-11C23,5.9,18.1,1,12,1z M12.8,17.3
	c0,0.1-0.1,0.2-0.2,0.2h-1.2c-0.1,0-0.2-0.1-0.2-0.2v-6.7c0-0.1,0.1-0.2,0.2-0.2h1.2c0.1,0,0.2,0.1,0.2,0.2V17.3z M12,8.9
	c-0.3,0-0.6-0.1-0.8-0.4C11,8.3,10.8,8,10.8,7.7c0-0.3,0.1-0.6,0.3-0.8c0.2-0.2,0.5-0.3,0.8-0.4c0.3,0,0.6,0.1,0.8,0.4
	c0.2,0.2,0.3,0.5,0.3,0.8c0,0.3-0.1,0.6-0.3,0.8C12.6,8.7,12.3,8.9,12,8.9z"/>
</svg>
