<svg width="24" height="24" viewBox="0 0 24 24" fill="none" xmlns="http://www.w3.org/2000/svg">
<g clip-path="url(#clip0_1129_9257)">
<path d="M5 15V19H19V15H5ZM4 13H20C20.55 13 21 13.45 21 14V20C21 20.55 20.55 21 20 21H4C3.45 21 3 20.55 3 20V14C3 13.45 3.45 13 4 13ZM17 18.5C17.82 18.5 18.5 17.83 18.5 17C18.5 16.17 17.82 15.5 17 15.5C16.18 15.5 15.5 16.17 15.5 17C15.5 17.83 16.17 18.5 17 18.5ZM5 5V9H19V5H5ZM4 3H20C20.55 3 21 3.45 21 4V10C21 10.55 20.55 11 20 11H4C3.45 11 3 10.55 3 10V4C3 3.45 3.45 3 4 3ZM17 8.5C17.82 8.5 18.5 7.83 18.5 7C18.5 6.17 17.82 5.5 17 5.5C16.18 5.5 15.5 6.18 15.5 7C15.5 7.82 16.17 8.5 17 8.5Z" fill="white"/>
</g>
<defs>
<clipPath id="clip0_1129_9257">
<rect width="24" height="24" fill="white" transform="matrix(-1 0 0 1 24 0)"/>
</clipPath>
</defs>
</svg>
