<svg width="18" height="18" viewBox="0 0 18 18" fill="none" xmlns="http://www.w3.org/2000/svg">
<path fill-rule="evenodd" clip-rule="evenodd" d="M6.4773 1.17045C6.65803 1.58469 6.46881 2.06704 6.05466 2.24781C4.95227 2.72899 3.98451 3.47296 3.23598 4.41467C2.48745 5.35639 1.98095 6.46717 1.76076 7.64991C1.54057 8.83266 1.61339 10.0513 1.97285 11.1994C2.33232 12.3475 2.96749 13.3901 3.82283 14.2359C4.67816 15.0817 5.72763 15.7051 6.87948 16.0515C8.03132 16.3979 9.25046 16.4569 10.4303 16.2231C11.6102 15.9894 12.7149 15.4701 13.6477 14.7107C14.5806 13.9513 15.3133 12.9748 15.7817 11.8668C15.9577 11.4505 16.4378 11.2557 16.8539 11.4317C17.2701 11.6078 17.4648 12.0879 17.2889 12.5042C16.7163 13.8585 15.8208 15.0519 14.6806 15.9801C13.5404 16.9083 12.1903 17.543 10.7482 17.8286C9.30618 18.1143 7.81611 18.0423 6.40831 17.6189C5.0005 17.1955 3.71782 16.4336 2.6724 15.3998C1.62699 14.366 0.850671 13.0918 0.411322 11.6886C-0.0280259 10.2854 -0.117028 8.79586 0.152096 7.35028C0.421221 5.90471 1.04028 4.54708 1.95515 3.3961C2.87001 2.24512 4.05284 1.33582 5.4002 0.747712C5.81435 0.566944 6.29658 0.756212 6.4773 1.17045Z" fill="white"/>
<path fill-rule="evenodd" clip-rule="evenodd" d="M8.42176 0.239691C8.5752 0.0862193 8.7833 0 9.00029 0C10.1821 0 11.3524 0.232841 12.4443 0.68523C13.5362 1.13762 14.5284 1.80069 15.3641 2.6366C16.1998 3.4725 16.8627 4.46487 17.315 5.55703C17.7672 6.64919 18 7.81976 18 9.00191C18 9.45388 17.6337 9.82027 17.1819 9.82027H9.00029C8.54843 9.82027 8.18213 9.45388 8.18213 9.00191V0.818356C8.18213 0.601314 8.26833 0.393162 8.42176 0.239691ZM9.81844 1.68232V8.18355H16.3181C16.2414 7.49729 16.0684 6.82385 15.8032 6.18337C15.4332 5.28978 14.8908 4.47785 14.207 3.79393C13.5233 3.11001 12.7115 2.56749 11.8181 2.19735C11.1778 1.93206 10.5045 1.75904 9.81844 1.68232Z" fill="white"/>
</svg>
