<?xml version="1.0" encoding="utf-8"?>
<!-- Generator: Adobe Illustrator 27.3.1, SVG Export Plug-In . SVG Version: 6.00 Build 0)  -->
<svg version="1.1" id="圖層_1" xmlns="http://www.w3.org/2000/svg" xmlns:xlink="http://www.w3.org/1999/xlink" x="0px" y="0px"
	 viewBox="0 0 24 24" style="enable-background:new 0 0 24 24;" xml:space="preserve">
<style type="text/css">
	.st0{fill:#FFFFFF;}
</style>
<g>
	<path class="st0" d="M3.9,14.5v1.4h3.2l-4.6,4.6l1,1l4.6-4.6v3.2h1.4v-5.6H3.9z M15.2,15.9H18v1.4h-2.8V15.9z M12.4,13.1h2.8v1.4
		h-2.8V13.1z M15.2,10.2H18v1.4h-2.8V10.2z M6.7,10.2h2.8v1.4H6.7V10.2z"/>
	<path class="st0" d="M20.1,2.5H4.6c-0.4,0-0.7,0.1-1,0.4s-0.4,0.6-0.4,1v7.7h1.4V8.1h15.4v11.2h-7.7v1.4h7.7c0.4,0,0.7-0.1,1-0.4
		c0.3-0.3,0.4-0.6,0.4-1V3.9c0-0.4-0.1-0.7-0.4-1C20.8,2.7,20.4,2.5,20.1,2.5z M20.1,6.7H4.6V3.9h15.4V6.7z"/>
</g>
</svg>
