<svg width="24" height="24" viewBox="0 0 24 24" fill="none" xmlns="http://www.w3.org/2000/svg">
<g clip-path="url(#clip0_1129_9183)">
<path d="M21.7743 15.6228C22.1384 15.2195 22.0425 14.5646 21.6262 14.2202L20.289 13.1131C20.2986 12.7377 20.5427 12.029 20.7731 11.3591C21.4383 9.41839 22.3495 6.75991 20.5959 4.32704C19.4795 2.77768 18.2149 2.02396 16.7305 2.02396C15.8183 2.02396 14.9711 2.31147 14.1984 2.57402C13.5177 2.80463 12.8747 3.02326 12.2511 3.02326C11.6343 3.02326 10.9798 2.79665 10.2855 2.55805C9.52443 2.2965 8.66265 2 7.75245 2C6.24676 2 4.9996 2.77568 3.93931 4.37197C2.27675 6.86972 3.19276 9.46731 3.86572 11.3751C4.10489 12.0529 4.35278 12.7537 4.35278 13.1441C4.35278 13.8159 4.3857 14.5547 4.44767 15.2804C4.49511 15.8305 4.96958 16.2478 5.4973 16.1869C6.02986 16.138 6.42396 15.6538 6.37651 15.1047C6.31938 14.4369 6.28936 13.758 6.28936 13.1441C6.28936 12.4003 5.99597 11.5707 5.68127 10.6802C5.06834 8.94619 4.43605 7.15324 5.53603 5.50205C6.42202 4.16732 7.186 3.99661 7.75245 3.99661C8.34892 3.99661 9.02189 4.22721 9.67064 4.45083C10.4424 4.71738 11.3177 5.01887 12.2502 5.01887C13.1846 5.01887 14.0067 4.74034 14.8287 4.45982C15.4969 4.2332 16.1272 4.01957 16.7295 4.01957C17.3037 4.01957 18.0842 4.19028 19.0408 5.51702C20.1786 7.09534 19.5521 8.92423 18.9353 10.7282C18.8172 11.0696 18.7077 11.4 18.6109 11.7225L17.6029 10.8879C17.815 10.4077 17.9408 9.87761 17.9408 9.31656C17.9408 7.21314 16.2802 5.50105 14.2381 5.50105C12.1969 5.50105 10.5363 7.21314 10.5363 9.31656C10.5363 11.42 12.1969 13.1321 14.2381 13.1321C15.0331 13.1321 15.7651 12.8665 16.3693 12.4263L18.332 14.0525C18.2178 17.4807 17.4635 19.9675 16.4874 19.9675C15.5385 19.9675 15.1822 19.073 14.7455 17.0644C14.3901 15.4541 13.9873 13.6282 12.3063 13.6282C10.5876 13.6282 10.0618 15.6558 9.63869 17.291C9.23104 18.8793 8.88633 20.0034 8.15623 20.0034C7.54621 20.0034 7.09886 18.7715 6.93521 18.2404C6.77254 17.7153 6.22546 17.4228 5.71904 17.5925C5.20972 17.7602 4.92794 18.3213 5.09062 18.8474C5.8972 21.4529 7.20343 22 8.1572 22C10.4337 22 11.0563 19.5731 11.5114 17.8011C11.6527 17.2541 12.0294 15.8005 12.255 15.5939C12.4061 15.7366 12.6094 16.3796 12.8573 17.5046C13.2204 19.1728 13.8285 21.9651 16.4884 21.9651C19.0583 21.9651 19.9249 18.6237 20.1854 15.5869L20.4139 15.7756C20.4129 15.7756 21.1217 16.3446 21.7743 15.6228ZM14.2381 11.1365C13.265 11.1365 12.4729 10.3209 12.4729 9.31756C12.4729 8.31427 13.265 7.49865 14.2381 7.49865C15.2112 7.49865 16.0043 8.31427 16.0043 9.31756C16.0043 10.3209 15.2112 11.1365 14.2381 11.1365Z" fill="white"/>
</g>
<defs>
<clipPath id="clip0_1129_9183">
<rect width="24" height="24" fill="white"/>
</clipPath>
</defs>
</svg>
