<svg width="18" height="18" viewBox="0 0 18 18" fill="none" xmlns="http://www.w3.org/2000/svg">
<path fill-rule="evenodd" clip-rule="evenodd" d="M0.714976 2.44105C1.17277 1.98326 1.79367 1.72607 2.44108 1.72607H8.13694C8.58633 1.72607 8.95063 2.09038 8.95063 2.53977C8.95063 2.98916 8.58633 3.35346 8.13694 3.35346H2.44108C2.22528 3.35346 2.01831 3.43919 1.86571 3.59178C1.71312 3.74438 1.62739 3.95135 1.62739 4.16715V15.5588C1.62739 15.7746 1.71312 15.9816 1.86571 16.1342C2.01831 16.2868 2.22528 16.3725 2.44108 16.3725H13.8328C14.0486 16.3725 14.2556 16.2868 14.4082 16.1342C14.5608 15.9816 14.6465 15.7746 14.6465 15.5588V9.863C14.6465 9.41361 15.0108 9.0493 15.4602 9.0493C15.9096 9.0493 16.2739 9.41361 16.2739 9.863V15.5588C16.2739 16.2063 16.0167 16.8272 15.5589 17.2849C15.1011 17.7427 14.4802 17.9999 13.8328 17.9999H2.44108C1.79367 17.9999 1.17277 17.7427 0.714976 17.2849C0.257185 16.8272 0 16.2063 0 15.5588V4.16715C0 3.51974 0.257184 2.89884 0.714976 2.44105Z" fill="white"/>
<path fill-rule="evenodd" clip-rule="evenodd" d="M15.4604 1.62738C15.2184 1.62738 14.9863 1.72351 14.8152 1.89462L7.24447 9.46533L6.81435 11.1858L8.53481 10.7557L16.1055 3.18497C16.2766 3.01386 16.3728 2.78178 16.3728 2.53979C16.3728 2.29781 16.2766 2.06573 16.1055 1.89462C15.9344 1.72351 15.7023 1.62738 15.4604 1.62738ZM13.6645 0.743889C14.1408 0.267585 14.7868 0 15.4604 0C16.134 0 16.78 0.267585 17.2563 0.743889C17.7326 1.22019 18.0002 1.8662 18.0002 2.53979C18.0002 3.21339 17.7326 3.8594 17.2563 4.3357L9.52618 12.0658C9.4219 12.1701 9.29123 12.244 9.14816 12.2798L5.89339 13.0935C5.6161 13.1628 5.32277 13.0816 5.12067 12.8795C4.91856 12.6774 4.83731 12.384 4.90664 12.1068L5.72033 8.85198C5.7561 8.70891 5.83008 8.57825 5.93436 8.47397L13.6645 0.743889Z" fill="white"/>
</svg>
