<?xml version="1.0" encoding="utf-8"?>
<!-- Generator: Adobe Illustrator 27.3.1, SVG Export Plug-In . SVG Version: 6.00 Build 0)  -->
<svg version="1.1" id="圖層_1" xmlns="http://www.w3.org/2000/svg" xmlns:xlink="http://www.w3.org/1999/xlink" x="0px" y="0px"
	 viewBox="0 0 24 24" style="enable-background:new 0 0 24 24;" xml:space="preserve">
<style type="text/css">
	.st0{fill:#FFFFFF;}
</style>
<path class="st0" d="M20.3,16.4l1-0.9l-0.9-1.6l-1.3,0.4c-0.3-0.2-0.6-0.4-1-0.6l-0.3-1.3h-1.8l-0.3,1.3c-0.4,0.1-0.7,0.3-1,0.6
	l-1.3-0.4l-0.9,1.6l1,0.9c-0.1,0.4-0.1,0.7,0,1.1l-1,0.9l0.9,1.6l1.3-0.4c0.3,0.2,0.6,0.4,1,0.6l0.3,1.4h1.8l0.3-1.3
	c0.4-0.1,0.7-0.3,1-0.6l1.3,0.4l0.9-1.6l-1-0.9C20.4,17.1,20.4,16.8,20.3,16.4z M17,18.7c-1,0-1.8-0.8-1.8-1.8c0-1,0.8-1.8,1.8-1.8
	c1,0,1.8,0.8,1.8,1.8C18.8,17.9,18,18.7,17,18.7z M9.8,6.2V11l2.1,2.1l0.9-1.6l-1.3-1.2V6.2H9.8z M18.8,10.7c0-2.1-0.9-4.2-2.4-5.7
	c-1.5-1.5-3.6-2.4-5.7-2.4c-2.5,0-4.8,1.2-6.3,3V3.5H2.6v5.4H8V7.1H5.6c0.6-0.8,1.4-1.5,2.2-2c0.9-0.5,1.9-0.7,2.9-0.7
	c3.5,0,6.3,2.8,6.3,6.3H18.8z M9.7,16.9c-2.7-0.4-4.8-2.6-5.2-5.3H2.7c0.4,4,3.9,7.2,8,7.2h0.1L9.7,16.9z"/>
</svg>
