<?xml version="1.0" encoding="utf-8"?>
<!-- Generator: Adobe Illustrator 27.3.1, SVG Export Plug-In . SVG Version: 6.00 Build 0)  -->
<svg version="1.1" id="圖層_1" xmlns="http://www.w3.org/2000/svg" xmlns:xlink="http://www.w3.org/1999/xlink" x="0px" y="0px"
	 viewBox="0 0 24 24" style="enable-background:new 0 0 24 24;" xml:space="preserve">
<style type="text/css">
	.st0{fill:#FFC53D;}
</style>
<path class="st0" d="M23,20.7L12.7,2.4C12.5,2.2,12.3,2,12,2c-0.3,0-0.5,0.1-0.7,0.4L1,20.7C0.7,21.3,1,22,1.7,22h20.7
	C23,22,23.3,21.3,23,20.7z M11.2,9.6c0-0.1,0.1-0.2,0.2-0.2h1.2c0.1,0,0.2,0.1,0.2,0.2v4.7c0,0.1-0.1,0.2-0.2,0.2h-1.2
	c-0.1,0-0.2-0.1-0.2-0.2V9.6z M12,18.5c-0.3,0-0.6-0.1-0.8-0.4c-0.2-0.2-0.3-0.5-0.3-0.9c0-0.3,0.1-0.6,0.3-0.9
	c0.2-0.2,0.5-0.4,0.8-0.4c0.3,0,0.6,0.1,0.8,0.4c0.2,0.2,0.3,0.5,0.3,0.9c0,0.3-0.1,0.6-0.3,0.9C12.6,18.4,12.3,18.5,12,18.5
	L12,18.5z"/>
</svg>
