<svg width="24" height="24" viewBox="0 0 24 24" fill="none" xmlns="http://www.w3.org/2000/svg">
<g clip-path="url(#clip0_1129_9235)">
<path d="M22 11V9L12 2L2 9V11H4V20H2V22H22V20H20V11H22ZM18 20H6V9H18V20Z" fill="white"/>
<path d="M15 15.4286H12.4286V18H11.5714V15.4286H9V14.5714H11.5714V12H12.4286V14.5714H15V15.4286Z" fill="white"/>
<path fill-rule="evenodd" clip-rule="evenodd" d="M15.5 15.4286C15.5 15.7047 15.2761 15.9286 15 15.9286H12.9286V18C12.9286 18.2761 12.7047 18.5 12.4286 18.5H11.5714C11.2953 18.5 11.0714 18.2761 11.0714 18V15.9286H9C8.72386 15.9286 8.5 15.7047 8.5 15.4286V14.5714C8.5 14.2953 8.72386 14.0714 9 14.0714H11.0714V12C11.0714 11.7239 11.2953 11.5 11.5714 11.5H12.4286C12.7047 11.5 12.9286 11.7239 12.9286 12V14.0714H15C15.2761 14.0714 15.5 14.2953 15.5 14.5714V15.4286ZM12.4286 14.5714V12H11.5714V14.5714H9V15.4286H11.5714V18H12.4286V15.4286H15V14.5714H12.4286Z" fill="white"/>
</g>
<defs>
<clipPath id="clip0_1129_9235">
<rect width="24" height="24" fill="white"/>
</clipPath>
</defs>
</svg>
