<svg width="14" height="14" viewBox="0 0 14 14" fill="none" xmlns="http://www.w3.org/2000/svg">
<path d="M7.71838 1.62402H6.78088C6.69755 1.62402 6.65588 1.66569 6.65588 1.74902V6.65527H2C1.91667 6.65527 1.875 6.69694 1.875 6.78027V7.71777C1.875 7.80111 1.91667 7.84277 2 7.84277H6.65588V12.749C6.65588 12.8324 6.69755 12.874 6.78088 12.874H7.71838C7.80172 12.874 7.84338 12.8324 7.84338 12.749V7.84277H12.5C12.5833 7.84277 12.625 7.80111 12.625 7.71777V6.78027C12.625 6.69694 12.5833 6.65527 12.5 6.65527H7.84338V1.74902C7.84338 1.66569 7.80172 1.62402 7.71838 1.62402Z" fill="white"/>
</svg>
