<svg width="24" height="24" viewBox="0 0 24 24" fill="none" xmlns="http://www.w3.org/2000/svg">
<g clip-path="url(#clip0_1129_9286)">
<path d="M10.2311 20.1488C10.2311 21.1721 11.0222 22 12 22C12.9778 22 13.7689 21.1721 13.7689 20.1488H10.2311ZM12 6.18605C14.4533 6.18605 16.4444 8.26977 16.4444 10.8372V17.3488H7.55556L7.55556 10.8372C7.55556 8.26977 9.54667 6.18605 12 6.18605ZM12 2C11.2622 2 10.6667 2.62326 10.6667 3.39535V4.48372C7.87556 5.11628 5.77778 7.72093 5.77778 10.8372V16.4186L4 18.2791V19.2093L20 19.2093V18.2791L18.2222 16.4186V10.8372C18.2222 7.72093 16.1244 5.11628 13.3333 4.48372V3.39535C13.3333 2.62326 12.7378 2 12 2Z" fill="white"/>
</g>
<defs>
<clipPath id="clip0_1129_9286">
<rect width="24" height="24" fill="white"/>
</clipPath>
</defs>
</svg>
