<svg width="50" height="50" viewBox="0 0 50 50" fill="none" xmlns="http://www.w3.org/2000/svg">
<path d="M20.7033 3.01157C20.7033 3.01157 13.6369 0.9686 11.0236 3.84751C8.4103 6.72641 8.27749 10.1249 8.01577 12.2186C7.75405 14.3124 8.92983 18.7577 9.71499 20.7186C10.5001 22.6795 11.8087 25.9491 11.6759 28.3045C11.5431 30.66 11.9728 36.7225 12.1994 38.1131C12.7111 41.2538 15.0783 47.0077 17.5626 47.66C20.047 48.3123 20.8322 47.1366 20.8322 44.6522C20.8322 42.1678 21.6173 28.0428 26.0626 28.5663C30.508 29.0858 30.2462 34.3163 30.379 36.9334C30.508 39.5506 31.6994 48.0311 33.922 47.7694C36.1447 47.5077 38.8791 41.6405 39.0119 36.6717C39.1447 31.703 37.8361 29.4803 39.0119 25.6874C40.1876 21.8944 42.0197 18.2342 42.0197 14.3084C42.0197 11.2616 42.1955 6.27329 39.1408 3.84751C36.3673 1.64438 34.4142 2.20297 32.9923 2.27719C29.4455 2.46469 27.4845 4.9686 20.7033 3.01157Z" fill="#E1E7EA"/>
<path d="M26.2305 9.39464C27.9024 9.39464 33.9766 6.44933 33.2618 5.69933C32.1719 4.5548 27.504 7.1173 25.7618 7.00402C23.9415 6.88683 22.0626 6.14464 20.3048 5.95323C19.6993 5.88683 18.9219 6.08214 19.5821 6.85948C20.0626 7.42198 24.5587 9.39464 26.2305 9.39464Z" fill="#95CBDE"/>
<path d="M19.5978 9.43751C20.4806 10.0234 21.3595 10.7617 21.6368 11.7852C21.6759 11.9297 21.7033 12.0859 21.6525 12.2305C21.6056 12.3594 21.5001 12.4609 21.3908 12.543C20.8634 12.9336 20.1798 13.0352 19.5236 13.043C17.6681 13.0625 15.8126 12.4102 14.379 11.2344C13.4728 10.4922 11.422 7.51172 13.7345 7.21094C15.6486 6.95704 18.0822 8.43751 19.5978 9.43751ZM35.5275 7.94532C35.9611 7.8086 36.4689 7.69923 36.8439 7.95704C37.0158 8.07423 37.1329 8.25782 37.215 8.44922C37.5197 9.15626 37.3712 10 36.9806 10.6641C36.59 11.3281 35.9806 11.8359 35.3478 12.2773C34.3986 12.9336 33.3439 13.4649 32.2111 13.6797C31.0783 13.8945 29.8556 13.7656 28.8595 13.1836C28.7306 13.1094 28.6017 13.0195 28.5314 12.8906C28.379 12.6055 28.5704 12.2539 28.8126 12.043C30.8048 10.3203 32.9884 8.75391 35.5275 7.94532Z" fill="white"/>
</svg>
