<?xml version="1.0" encoding="utf-8"?>
<!-- Generator: Adobe Illustrator 27.3.1, SVG Export Plug-In . SVG Version: 6.00 Build 0)  -->
<svg version="1.1" id="圖層_1" xmlns="http://www.w3.org/2000/svg" xmlns:xlink="http://www.w3.org/1999/xlink" x="0px" y="0px"
	 viewBox="0 0 24 24" style="enable-background:new 0 0 24 24;" xml:space="preserve">
<style type="text/css">
	.st0{fill:#FFFFFF;}
</style>
<path class="st0" d="M7.7,21.4c-0.5,0-1-0.2-1.4-0.6c-0.4-0.4-0.6-0.9-0.6-1.4v-0.2H3.4c-0.5,0-0.9-0.4-0.9-0.9
	c0-0.5,0.4-0.9,0.9-0.9h2.3v-0.2c0-0.5,0.2-1,0.6-1.4c0.7-0.7,2-0.7,2.8,0c0.4,0.4,0.6,0.9,0.6,1.4v0.2h10.9c0.5,0,0.9,0.4,0.9,0.9
	c0,0.5-0.4,0.9-0.9,0.9H9.7v0.2c0,0.5-0.2,1-0.6,1.4C8.7,21.2,8.2,21.4,7.7,21.4z M7.5,17.4v1.1c0,0,0,0.1,0,0.1
	c0.1,0.1,0.2,0.1,0.2,0c0,0,0.1-0.1,0.1-0.1v-2.1c0,0,0-0.1-0.1-0.1c-0.1-0.1-0.2-0.1-0.2,0c0,0-0.1,0.1-0.1,0.1V17.4z M16.3,15.1
	c-0.5,0-1-0.2-1.4-0.6c-0.4-0.4-0.6-0.9-0.6-1.4v-0.2H3.4c-0.5,0-0.9-0.4-0.9-0.9c0-0.5,0.4-0.9,0.9-0.9h10.9v-0.2
	c0-0.5,0.2-1,0.6-1.4c0.8-0.7,2.1-0.7,2.8,0c0.4,0.4,0.6,0.9,0.6,1.4v0.2h2.3c0.5,0,0.9,0.4,0.9,0.9c0,0.5-0.4,0.9-0.9,0.9h-2.3v0.2
	c0,0.5-0.2,1-0.6,1.4C17.3,14.8,16.8,15.1,16.3,15.1z M16.1,12v1.1c0,0,0,0.1,0.1,0.1c0.1,0.1,0.2,0.1,0.2,0c0,0,0.1-0.1,0.1-0.1
	v-2.1c0,0,0-0.1,0-0.1c-0.1-0.1-0.2-0.1-0.2,0c0,0,0,0.1,0,0.1V12z M7.7,8.7c-0.5,0-1-0.2-1.4-0.6C5.9,7.7,5.7,7.2,5.7,6.7V6.5H3.4
	c-0.5,0-0.9-0.4-0.9-0.9s0.4-0.9,0.9-0.9h2.3V4.6c0-0.5,0.2-1,0.6-1.4c0.7-0.7,2-0.7,2.8,0C9.5,3.5,9.7,4,9.7,4.6v0.2h10.9
	c0.5,0,0.9,0.4,0.9,0.9s-0.4,0.9-0.9,0.9H9.7v0.2c0,0.5-0.2,1-0.6,1.4C8.7,8.5,8.2,8.7,7.7,8.7z M7.5,6.6v1.1c0,0,0,0.1,0.1,0.1
	c0.1,0.1,0.2,0.1,0.2,0c0,0,0-0.1,0-0.1V5.6c0,0,0-0.1-0.1-0.1c-0.1-0.1-0.2-0.1-0.2,0c0,0-0.1,0.1-0.1,0.1V6.6z"/>
</svg>
