<svg width="24" height="24" viewBox="0 0 24 24" fill="none" xmlns="http://www.w3.org/2000/svg">
<g clip-path="url(#clip0_1129_9260)">
<path fill-rule="evenodd" clip-rule="evenodd" d="M10.8401 5.52249C12.4287 5.51483 13.7207 6.7618 13.7207 8.30268V10.8834L15.9791 11.3675C18.1439 11.8315 19.6055 13.7969 19.3764 15.9358L18.7011 22.2413C18.6549 22.6724 18.2802 23 17.8333 23H8.86037C8.46303 23 8.11589 22.7396 8.01601 22.3666L7.31872 19.7624C7.16323 19.1817 6.84503 18.6541 6.39939 18.238L5.3272 17.2369C4.40798 16.3787 4.26631 15.0004 4.99275 13.9831C5.68307 13.0163 6.92453 12.6772 7.98799 13.0363V8.30268C7.98799 6.77259 9.26265 5.53009 10.8401 5.52249ZM10.8488 7.21478C10.2315 7.21775 9.73274 7.70395 9.73274 8.30268V14.707C9.73274 15.0463 9.52377 15.3528 9.20187 15.4856C8.87997 15.6184 8.5074 15.5519 8.25537 15.3166L7.72472 14.8211C7.34468 14.4663 6.72743 14.526 6.42709 14.9466C6.18796 15.2815 6.23459 15.7352 6.53719 16.0177L7.60938 17.0188C8.28709 17.6515 8.77098 18.4539 9.00744 19.337L9.53511 21.3077H17.0469L17.641 15.7609C17.7784 14.4776 16.9015 13.2984 15.6026 13.0199L12.6601 12.3892C12.2605 12.3036 11.976 11.96 11.976 11.563V8.30268C11.976 7.69973 11.4704 7.21178 10.8488 7.21478Z" fill="white"/>
<path fill-rule="evenodd" clip-rule="evenodd" d="M10.6882 2.69231C8.01018 2.69231 5.74475 4.95514 5.74475 7.86325C5.74475 8.81688 5.99097 9.70593 6.41729 10.4684C6.64697 10.8792 6.48983 11.3928 6.06631 11.6156C5.64278 11.8384 5.11325 11.686 4.88356 11.2752C4.3202 10.2676 4 9.10157 4 7.86325C4 4.12505 6.94223 1 10.6882 1C14.4342 1 17.3764 4.12505 17.3764 7.86325C17.3764 8.33057 16.9858 8.7094 16.504 8.7094C16.0222 8.7094 15.6316 8.33057 15.6316 7.86325C15.6316 4.95514 13.3662 2.69231 10.6882 2.69231Z" fill="white"/>
</g>
<defs>
<clipPath id="clip0_1129_9260">
<rect width="24" height="24" fill="white"/>
</clipPath>
</defs>
</svg>
