<svg width="24" height="24" viewBox="0 0 24 24" fill="none" xmlns="http://www.w3.org/2000/svg">
<g clip-path="url(#clip0_1170_10790)">
<path d="M10.0228 8.44462C10.0228 9.58871 10.9423 10.5081 12.0639 10.5081C13.1855 10.5081 14.1049 9.57849 14.1049 8.44462C14.1049 7.31075 13.1855 6.38118 12.0639 6.38118C10.9423 6.38118 10.0228 7.31075 10.0228 8.44462ZM11.4374 8.44462C11.4374 8.09731 11.7203 7.81129 12.0639 7.81129C12.4074 7.81129 12.6903 8.09731 12.6903 8.44462C12.6903 8.79194 12.4074 9.07796 12.0639 9.07796C11.7203 9.07796 11.4374 8.79194 11.4374 8.44462Z" fill="white"/>
<path d="M21.4204 5.19624H16.4289L16.146 4.6957C16.0551 4.53226 15.8934 4.40968 15.7115 4.3586C15.5296 4.30753 15.3377 4.33817 15.176 4.43011L14.6102 4.75699C14.4283 4.86935 14.2262 4.75699 14.1656 4.73656C14.0544 4.66505 13.9332 4.54247 13.9433 4.36882V3.71505C13.9433 3.31667 13.63 3 13.236 3H10.9019C10.5078 3 10.1946 3.31667 10.1946 3.71505V4.38925C10.1946 4.54247 10.0834 4.67527 9.97229 4.73656C9.91166 4.7672 9.71968 4.86935 9.5277 4.75699L8.96186 4.43011C8.80019 4.33817 8.60821 4.30753 8.42633 4.3586C8.24445 4.40968 8.09289 4.53226 7.99184 4.6957L7.70892 5.19624H2.7073C2.31323 5.19624 2 5.5129 2 5.91129V17.7403C2 18.1387 2.31323 18.4554 2.7073 18.4554H9.01238V20.1C9.01238 20.3554 8.81029 20.5699 8.54758 20.5699H6.75912C6.36505 20.5699 6.05182 20.8866 6.05182 21.2849C6.05182 21.6833 6.36505 22 6.75912 22H17.3585C17.7526 22 18.0658 21.6833 18.0658 21.2849C18.0658 20.8866 17.7526 20.5699 17.3585 20.5699H15.5701C15.3175 20.5699 15.1053 20.3656 15.1053 20.1V18.4554H21.4103C21.8044 18.4554 22.1176 18.1387 22.1176 17.7403V5.91129C22.1176 5.5129 21.8044 5.19624 21.4103 5.19624H21.4204ZM13.7614 20.5597H10.3765C10.4169 20.3962 10.4371 20.243 10.4371 20.0898V18.4452H13.7008V20.0898C13.7008 20.243 13.721 20.3962 13.7614 20.5597ZM6.80964 6.74892C6.7187 6.91237 6.68839 7.10645 6.73891 7.29032C6.78943 7.47419 6.91069 7.62742 7.07235 7.72957L7.6483 8.06667C7.77965 8.13817 7.83018 8.31183 7.83018 8.44462C7.83018 8.50591 7.82007 8.73064 7.62809 8.84301L7.06225 9.16989C6.72881 9.36398 6.60756 9.80323 6.79954 10.1505L7.97164 12.1935C8.16362 12.5409 8.5981 12.6532 8.94165 12.4591L9.51759 12.122C9.64895 12.0403 9.82072 12.0812 9.94197 12.1527C10.0026 12.1833 10.1845 12.3059 10.1744 12.5306V13.1844C10.1744 13.5828 10.4876 13.8995 10.8817 13.8995H13.2158C13.6098 13.8995 13.9231 13.5828 13.9231 13.1844V12.5204C13.9231 12.3161 14.1049 12.1935 14.1555 12.1629C14.2666 12.1016 14.4384 12.0505 14.5899 12.1425L15.1558 12.4694C15.4892 12.6634 15.9237 12.5511 16.1258 12.2038L17.2979 10.1608C17.4899 9.82366 17.3787 9.38441 17.0352 9.18011L16.4592 8.84301C16.2774 8.74086 16.2673 8.51613 16.2673 8.45484C16.2673 8.32204 16.3178 8.14839 16.439 8.0871L17.0352 7.73978C17.1969 7.64785 17.3181 7.48441 17.3686 7.30054C17.4191 7.11667 17.3888 6.92258 17.2979 6.75914L17.2272 6.64677H20.6929V14.6758H3.4146V6.62634H6.88037L6.80964 6.73871V6.74892ZM12.5186 4.43011C12.5287 5.05323 12.8823 5.63548 13.4381 5.97258C14.014 6.30968 14.7011 6.34032 15.2568 6.03387L15.7216 6.84086C15.1962 7.16774 14.8628 7.76021 14.8628 8.42419C14.8628 9.09839 15.1861 9.71129 15.7216 10.0382L15.2568 10.8452C14.7112 10.5387 14.0342 10.5591 13.4583 10.886C12.8823 11.2231 12.5186 11.8156 12.5085 12.4387H11.589C11.5688 11.8054 11.2151 11.2129 10.6392 10.886C10.0632 10.5591 9.38624 10.5387 8.84061 10.8452L8.37581 10.0382C8.91134 9.70108 9.24478 9.08817 9.23467 8.42419C9.23467 7.76021 8.90123 7.15753 8.37581 6.84086L8.84061 6.03387C9.39634 6.34032 10.0935 6.31989 10.6594 5.97258C11.2252 5.63548 11.5688 5.05323 11.5789 4.43011H12.5186ZM20.703 16.0855V17.0151H3.4146V16.0855H20.7131H20.703Z" fill="white"/>
</g>
<defs>
<clipPath id="clip0_1170_10790">
<rect width="24" height="24" fill="white"/>
</clipPath>
</defs>
</svg>
