<svg width="24" height="24" viewBox="0 0 24 24" fill="none" xmlns="http://www.w3.org/2000/svg">
<g clip-path="url(#clip0_1170_10817)">
<path d="M22 10.9755C22 10.9485 22 10.9245 22 10.9004C22 10.8674 22 10.8374 22 10.8044C22 10.7264 21.997 10.6484 21.9939 10.5673C21.9909 10.4743 21.9879 10.3813 21.9818 10.2882C21.9818 10.2822 21.9818 10.2762 21.9818 10.2702C21.6968 5.8767 18.5014 2.25144 14.2904 1.26709C14.2844 1.26709 14.2783 1.26409 14.2692 1.26109C13.8084 1.15305 13.3385 1.07803 12.8565 1.03901C12.7988 1.03301 12.7443 1.03001 12.6867 1.02701C12.4623 1.012 12.238 1 12.0076 1C12.0076 1 12.0045 1 12.0015 1C6.48689 1 2 5.44155 2 10.9004C2 11.0565 2.00606 11.2096 2.01213 11.3626C2.01516 11.4376 2.02122 11.5127 2.02729 11.5847C2.03335 11.6567 2.03638 11.7287 2.04244 11.7978C2.05154 11.9028 2.06367 12.0078 2.07882 12.1129C2.08186 12.1429 2.08489 12.1729 2.09095 12.1999C2.63968 16.2963 5.72594 19.6095 9.73382 20.5338L11.2497 23.5318C11.3497 23.7299 11.5225 23.88 11.7347 23.949C11.8226 23.979 11.9136 23.991 12.0015 23.991C12.1288 23.991 12.2592 23.961 12.3774 23.904C12.5381 23.8229 12.6745 23.6909 12.7534 23.5318L14.2692 20.5338C15.2303 20.3117 16.1398 19.9516 16.9735 19.4774C17.0038 19.4594 17.0371 19.4414 17.0675 19.4234C17.1342 19.3844 17.1978 19.3454 17.2615 19.3064C20.0961 17.5868 21.8302 14.6097 21.9848 11.4016C21.9909 11.2576 21.9939 11.1135 21.997 10.9695L22 10.9755ZM12.0076 18.6731H12.0045C8.87282 18.6671 6.05033 16.8125 4.81037 14.0005H14.0631C14.6542 14.0005 15.1363 13.5234 15.1363 12.9382V3.77897C16.8734 4.52323 18.265 5.84669 19.0896 7.55428C19.993 9.42693 20.1082 11.5367 19.4109 13.4933C18.3044 16.5934 15.3303 18.6761 12.0106 18.6761L12.0076 18.6731ZM10.5978 3.24178C11.0587 3.16075 11.5377 3.12774 11.9985 3.12474C12.3289 3.12474 12.6594 3.14875 12.9868 3.19376V11.8788H4.21616C3.66439 7.79736 6.4687 3.96503 10.6009 3.24478L10.5978 3.24178Z" fill="white"/>
<path d="M7.07807 8.86573L7.46309 9.0578L7.32667 9.46294C7.21146 9.80506 7.39943 10.1772 7.74504 10.2912C7.88146 10.3362 8.02699 10.3362 8.16341 10.2912L8.57269 10.1562L8.76672 10.5373C8.93043 10.8614 9.32758 10.9905 9.65197 10.8314C9.7793 10.7684 9.88237 10.6664 9.94907 10.5373L10.1431 10.1562L10.5524 10.2912C10.898 10.4053 11.2739 10.2192 11.3891 9.87708C11.4346 9.74204 11.4346 9.59799 11.3891 9.46294L11.2527 9.0578L11.6377 8.86573C11.9651 8.70368 12.0955 8.31054 11.9348 7.98943C11.8712 7.86338 11.7681 7.76135 11.6377 7.69533L11.2527 7.50326L11.3891 7.09812C11.5043 6.756 11.3164 6.38387 10.9707 6.26983C10.8343 6.22481 10.6888 6.22481 10.5524 6.26983L10.1431 6.40488L9.94907 6.02374C9.72473 5.57959 8.99106 5.57959 8.76672 6.02374L8.57269 6.40488L8.16341 6.26983C7.8178 6.15579 7.44187 6.34185 7.32667 6.68397C7.28119 6.81902 7.28119 6.96307 7.32667 7.09812L7.46309 7.50326L7.07807 7.69533C6.75065 7.85738 6.62029 8.25052 6.78096 8.57163C6.84463 8.69767 6.94771 8.79971 7.07807 8.86573ZM8.93346 7.86038C9.09111 7.85438 9.24269 7.79136 9.35789 7.68632C9.4731 7.79136 9.62468 7.85438 9.78233 7.86038C9.78839 8.01644 9.85206 8.16649 9.95817 8.28053C9.85206 8.39457 9.78839 8.54462 9.78233 8.70068C9.62468 8.70668 9.4731 8.7697 9.35789 8.87474C9.24269 8.7697 9.09111 8.70668 8.93346 8.70068C8.92739 8.54462 8.86373 8.39457 8.75762 8.28053C8.86373 8.16649 8.92739 8.01644 8.93346 7.86038Z" fill="white"/>
</g>
<defs>
<clipPath id="clip0_1170_10817">
<rect width="24" height="24" fill="white"/>
</clipPath>
</defs>
</svg>
