<svg width="24" height="24" viewBox="0 0 24 24" fill="none" xmlns="http://www.w3.org/2000/svg">
<g clip-path="url(#clip0_1129_9289)">
<path d="M13.6923 10.0909H10.3077C9.78497 10.088 9.28451 9.88599 8.91488 9.52859C8.54526 9.17118 8.3363 8.68726 8.33333 8.18182V4.90909C8.3363 4.40365 8.54526 3.91973 8.91488 3.56232C9.28451 3.20492 9.78497 3.00286 10.3077 3L13.6923 3C14.215 3.00286 14.7155 3.20492 15.0851 3.56232C15.4547 3.91973 15.6637 4.40365 15.6667 4.90909V8.18182C15.6637 8.68726 15.4547 9.17118 15.0851 9.52859C14.7155 9.88599 14.215 10.088 13.6923 10.0909ZM10.3077 4.63636C10.2329 4.63636 10.1611 4.6651 10.1083 4.71624C10.0554 4.76739 10.0256 4.83676 10.0256 4.90909V8.18182C10.0256 8.25415 10.0554 8.32352 10.1083 8.37467C10.1611 8.42581 10.2329 8.45455 10.3077 8.45455H13.6923C13.7671 8.45455 13.8389 8.42581 13.8917 8.37467C13.9446 8.32352 13.9744 8.25415 13.9744 8.18182V4.90909C13.9744 4.83676 13.9446 4.76739 13.8917 4.71624C13.8389 4.6651 13.7671 4.63636 13.6923 4.63636H10.3077Z" fill="white"/>
<path d="M5.23077 21H2.97436C2.45164 20.9971 1.95117 20.7951 1.58155 20.4377C1.21192 20.0803 1.00296 19.5963 1 19.0909L1 16.9091C1.00296 16.4037 1.21192 15.9197 1.58155 15.5623C1.95117 15.2049 2.45164 15.0029 2.97436 15H5.23077C5.75349 15.0029 6.25396 15.2049 6.62358 15.5623C6.9932 15.9197 7.20217 16.4037 7.20513 16.9091V19.0909C7.20217 19.5963 6.9932 20.0803 6.62358 20.4377C6.25396 20.7951 5.75349 20.9971 5.23077 21ZM2.97436 16.6364C2.89955 16.6364 2.82781 16.6651 2.77492 16.7162C2.72202 16.7674 2.69231 16.8368 2.69231 16.9091L2.69231 19.0909C2.69231 19.1632 2.72202 19.2326 2.77492 19.2838C2.82781 19.3349 2.89955 19.3636 2.97436 19.3636H5.23077C5.30557 19.3636 5.37732 19.3349 5.43021 19.2838C5.4831 19.2326 5.51282 19.1632 5.51282 19.0909V16.9091C5.51282 16.8368 5.4831 16.7674 5.43021 16.7162C5.37732 16.6651 5.30557 16.6364 5.23077 16.6364H2.97436Z" fill="white"/>
<path d="M13.1282 21L10.8718 21C10.3491 20.9971 9.84861 20.7951 9.47899 20.4377C9.10936 20.0803 8.9004 19.5963 8.89744 19.0909V16.9091C8.9004 16.4037 9.10936 15.9197 9.47899 15.5623C9.84861 15.2049 10.3491 15.0029 10.8718 15H13.1282C13.6509 15.0029 14.1514 15.2049 14.521 15.5623C14.8906 15.9197 15.0996 16.4037 15.1026 16.9091V19.0909C15.0996 19.5963 14.8906 20.0803 14.521 20.4377C14.1514 20.7951 13.6509 20.9971 13.1282 21ZM10.8718 16.6364C10.797 16.6364 10.7252 16.6651 10.6724 16.7162C10.6195 16.7674 10.5897 16.8368 10.5897 16.9091V19.0909C10.5897 19.1632 10.6195 19.2326 10.6724 19.2838C10.7252 19.3349 10.797 19.3636 10.8718 19.3636L13.1282 19.3636C13.203 19.3636 13.2748 19.3349 13.3276 19.2838C13.3805 19.2326 13.4103 19.1632 13.4103 19.0909V16.9091C13.4103 16.8368 13.3805 16.7674 13.3276 16.7162C13.2748 16.6651 13.203 16.6364 13.1282 16.6364H10.8718Z" fill="white"/>
<path d="M21.0256 21H18.7692C18.2465 20.9971 17.746 20.7951 17.3764 20.4377C17.0068 20.0803 16.7978 19.5963 16.7949 19.0909V16.9091C16.7978 16.4037 17.0068 15.9197 17.3764 15.5623C17.746 15.2049 18.2465 15.0029 18.7692 15H21.0256C21.5484 15.0029 22.0488 15.2049 22.4185 15.5623C22.7881 15.9197 22.997 16.4037 23 16.9091V19.0909C22.997 19.5963 22.7881 20.0803 22.4185 20.4377C22.0488 20.7951 21.5484 20.9971 21.0256 21ZM18.7692 16.6364C18.6944 16.6364 18.6227 16.6651 18.5698 16.7162C18.5169 16.7674 18.4872 16.8368 18.4872 16.9091V19.0909C18.4872 19.1632 18.5169 19.2326 18.5698 19.2838C18.6227 19.3349 18.6944 19.3636 18.7692 19.3636H21.0256C21.1004 19.3636 21.1722 19.3349 21.2251 19.2838C21.278 19.2326 21.3077 19.1632 21.3077 19.0909V16.9091C21.3077 16.8368 21.278 16.7674 21.2251 16.7162C21.1722 16.6651 21.1004 16.6364 21.0256 16.6364H18.7692Z" fill="white"/>
<path d="M19.8974 16.6364C19.6739 16.6335 19.4604 16.5464 19.3023 16.3936C19.1443 16.2408 19.0542 16.0343 19.0513 15.8182L19.0513 13.6364C19.0513 13.564 19.0216 13.4947 18.9687 13.4435C18.9158 13.3924 18.844 13.3636 18.7692 13.3636L5.23077 13.3636C5.15596 13.3636 5.08422 13.3924 5.03133 13.4435C4.97843 13.4947 4.94872 13.564 4.94872 13.6364V15.8182C4.94872 16.0352 4.85957 16.2433 4.70089 16.3967C4.5422 16.5502 4.32698 16.6364 4.10256 16.6364C3.87815 16.6364 3.66293 16.5502 3.50424 16.3967C3.34556 16.2433 3.25641 16.0352 3.25641 15.8182L3.25641 13.6364C3.25937 13.1309 3.46834 12.647 3.83796 12.2896C4.20758 11.9322 4.70805 11.7301 5.23077 11.7273L18.7692 11.7273C19.292 11.7301 19.7924 11.9322 20.162 12.2896C20.5317 12.647 20.7406 13.1309 20.7436 13.6364L20.7436 15.8182C20.7407 16.0343 20.6506 16.2408 20.4925 16.3936C20.3345 16.5464 20.1209 16.6335 19.8974 16.6364Z" fill="white"/>
<path d="M12 16.6364C11.7765 16.6335 11.563 16.5464 11.4049 16.3936C11.2469 16.2408 11.1568 16.0343 11.1538 15.8182V9.27273C11.1538 9.05573 11.243 8.84762 11.4017 8.69419C11.5604 8.54075 11.7756 8.45455 12 8.45455C12.2244 8.45455 12.4396 8.54075 12.5983 8.69419C12.757 8.84762 12.8462 9.05573 12.8462 9.27273V15.8182C12.8432 16.0343 12.7531 16.2408 12.5951 16.3936C12.437 16.5464 12.2235 16.6335 12 16.6364Z" fill="white"/>
</g>
<defs>
<clipPath id="clip0_1129_9289">
<rect width="24" height="24" fill="white"/>
</clipPath>
</defs>
</svg>
