<svg width="15" height="17" viewBox="0 0 15 17" fill="none" xmlns="http://www.w3.org/2000/svg">
<path fill-rule="evenodd" clip-rule="evenodd" d="M2.4 0.3C2.54164 0.111146 2.76393 0 3 0H12C12.2361 0 12.4584 0.111146 12.6 0.3L14.8454 3.29388C14.9424 3.42026 15 3.5784 15 3.75V14.25C15 14.8467 14.7629 15.419 14.341 15.841C13.919 16.2629 13.3467 16.5 12.75 16.5H2.25C1.65326 16.5 1.08097 16.2629 0.65901 15.841C0.237053 15.419 0 14.8467 0 14.25V3.75C0 3.57841 0.0576225 3.42028 0.154572 3.2939L2.4 0.3ZM11.625 1.5L12.75 3H2.25L3.375 1.5H11.625ZM1.5 14.25V4.5H13.5V14.25C13.5 14.4489 13.421 14.6397 13.2803 14.7803C13.1397 14.921 12.9489 15 12.75 15H2.25C2.05109 15 1.86032 14.921 1.71967 14.7803C1.57902 14.6397 1.5 14.4489 1.5 14.25ZM5.25 6.75C5.25 6.33579 4.91421 6 4.5 6C4.08579 6 3.75 6.33579 3.75 6.75C3.75 7.74456 4.14509 8.69839 4.84835 9.40165C5.55161 10.1049 6.50544 10.5 7.5 10.5C8.49456 10.5 9.44839 10.1049 10.1517 9.40165C10.8549 8.69839 11.25 7.74456 11.25 6.75C11.25 6.33579 10.9142 6 10.5 6C10.0858 6 9.75 6.33579 9.75 6.75C9.75 7.34674 9.51295 7.91903 9.09099 8.34099C8.66903 8.76295 8.09674 9 7.5 9C6.90326 9 6.33097 8.76295 5.90901 8.34099C5.48705 7.91903 5.25 7.34674 5.25 6.75Z" fill="white"/>
</svg>
