<svg width="18" height="18" viewBox="0 0 18 18" fill="none" xmlns="http://www.w3.org/2000/svg">
<path fill-rule="evenodd" clip-rule="evenodd" d="M5.28775 2.28769C6.27231 1.30312 7.60767 0.75 9.00006 0.75C10.3924 0.75 11.7278 1.30312 12.7124 2.28769C13.6969 3.27226 14.2501 4.60761 14.2501 6C14.2501 8.51449 14.7879 10.076 15.2835 10.9846C15.5323 11.4408 15.7746 11.7401 15.943 11.9178C16.0273 12.0068 16.0936 12.0659 16.1335 12.0991C16.1535 12.1158 16.1669 12.126 16.1726 12.1303C16.1735 12.1309 16.1743 12.1315 16.1748 12.1319C16.4437 12.3165 16.5626 12.6544 16.4679 12.9673C16.3721 13.2837 16.0806 13.5 15.7501 13.5H2.25006C1.91956 13.5 1.62801 13.2837 1.53224 12.9673C1.43748 12.6544 1.55646 12.3165 1.82533 12.1319C1.82585 12.1315 1.82657 12.1309 1.82747 12.1303C1.83324 12.126 1.84663 12.1158 1.8666 12.0991C1.90651 12.0659 1.9728 12.0068 2.05716 11.9178C2.22548 11.7401 2.46779 11.4408 2.71664 10.9846C3.21226 10.076 3.75006 8.51449 3.75006 6C3.75006 4.60761 4.30318 3.27226 5.28775 2.28769ZM1.83291 12.1267C1.83297 12.1267 1.83302 12.1266 1.83308 12.1266C1.83308 12.1266 1.83308 12.1266 1.83307 12.1266L1.83291 12.1267ZM3.86205 12H14.1381C14.081 11.9065 14.0237 11.8075 13.9666 11.7029C13.3373 10.549 12.7501 8.73551 12.7501 6C12.7501 5.00544 12.355 4.05161 11.6517 3.34835C10.9484 2.64509 9.99462 2.25 9.00006 2.25C8.0055 2.25 7.05167 2.64509 6.34841 3.34835C5.64515 4.05161 5.25006 5.00544 5.25006 6C5.25006 8.73551 4.66286 10.549 4.03348 11.7029C3.97641 11.8075 3.91912 11.9065 3.86205 12Z" fill="white"/>
<path fill-rule="evenodd" clip-rule="evenodd" d="M7.32594 15.1014C7.68424 14.8935 8.14318 15.0155 8.35102 15.3738C8.41695 15.4874 8.51158 15.5818 8.62544 15.6474C8.73929 15.7129 8.86838 15.7475 8.99977 15.7475C9.13116 15.7475 9.26025 15.7129 9.37411 15.6474C9.48796 15.5818 9.58259 15.4874 9.64852 15.3738C9.85636 15.0155 10.3153 14.8935 10.6736 15.1014C11.0319 15.3092 11.1539 15.7682 10.946 16.1265C10.7482 16.4674 10.4643 16.7504 10.1228 16.9472C9.78121 17.1439 9.39395 17.2475 8.99977 17.2475C8.6056 17.2475 8.21834 17.1439 7.87677 16.9472C7.5352 16.7504 7.25131 16.4674 7.05352 16.1265C6.84568 15.7682 6.96765 15.3092 7.32594 15.1014Z" fill="white"/>
</svg>
