<?xml version="1.0" encoding="utf-8"?>
<!-- Generator: Adobe Illustrator 27.3.1, SVG Export Plug-In . SVG Version: 6.00 Build 0)  -->
<svg version="1.1" id="圖層_1" xmlns="http://www.w3.org/2000/svg" xmlns:xlink="http://www.w3.org/1999/xlink" x="0px" y="0px"
	 viewBox="0 0 24 24" style="enable-background:new 0 0 24 24;" xml:space="preserve">
<style type="text/css">
	.st0{fill:#FFFFFF;}
</style>
<g>
	<path class="st0" d="M20.2,19.3H3.8c-0.2,0-0.5-0.1-0.6-0.3s-0.3-0.4-0.3-0.6l0-4.1c0-0.4,0.2-0.7,0.4-1c0.3-0.3,0.6-0.4,1-0.4H9
		c0-0.2,0-0.3,0-0.5c0,0-0.3-0.3-0.5-0.5C7.8,11.1,6.5,9.7,6.5,7c0-4,3.1-5.5,5.7-5.5c2.6,0,5.4,1.4,5.4,5.5c0,2.5-1.2,3.8-2,4.6
		c-0.2,0.2-0.6,0.6-0.6,0.7c0,0.2,0,0.4,0,0.5h4.6c0.4,0,0.7,0.1,1,0.4c0.3,0.3,0.4,0.6,0.4,1v4.1C21.1,18.9,20.7,19.3,20.2,19.3z
		 M4.7,17.5h14.6v-2.8h-4.7c-1.3,0-1.3-1.1-1.3-2.3c0-0.8,0.5-1.4,1-2C15,9.7,15.8,8.9,15.8,7c0-3-2-3.6-3.6-3.6
		c-1.4,0-3.9,0.5-3.9,3.6c0,1.9,0.9,2.9,1.6,3.6c0.5,0.5,0.9,1,0.9,1.7c0,0.6,0,1-0.1,1.3c-0.2,0.6-0.6,1-1.3,1H4.7L4.7,17.5z"/>
	<path class="st0" d="M20.2,22.4H3.8c-0.5,0-0.9-0.4-0.9-0.9s0.4-0.9,0.9-0.9h16.4c0.5,0,0.9,0.4,0.9,0.9S20.7,22.4,20.2,22.4z"/>
</g>
</svg>
