<?xml version="1.0" encoding="utf-8"?>
<!-- Generator: Adobe Illustrator 27.3.1, SVG Export Plug-In . SVG Version: 6.00 Build 0)  -->
<svg version="1.1" id="圖層_1" xmlns="http://www.w3.org/2000/svg" xmlns:xlink="http://www.w3.org/1999/xlink" x="0px" y="0px"
	 viewBox="0 0 24 24" style="enable-background:new 0 0 24 24;" xml:space="preserve">
<style type="text/css">
	.st0{fill:#FFFFFF;}
</style>
<path class="st0" d="M13.8,21.7h-3.5c-0.5,0-0.9-0.4-0.9-0.9c0-0.5,0.4-0.9,0.9-0.9h3.5c0.5,0,0.9,0.4,0.9,0.9
	C14.7,21.3,14.3,21.7,13.8,21.7z M13.4,19.1h-2.6c-0.6,0-1.3-0.2-1.7-0.6c-0.5-0.4-0.8-1-0.9-1.6l-0.4-1.7c0-0.1-0.1-0.1-0.1-0.2
	c-0.8-0.6-1.4-1.4-1.9-2.3c-0.5-1-0.8-2.1-0.8-3.3l0,0v0c0-1.9,0.7-3.7,2.1-5c1.3-1.3,3.1-2.1,5-2.1s3.7,0.7,5,2.1
	c1.3,1.3,2.1,3.1,2.1,5c0,1.1-0.3,2.3-0.8,3.3c-0.5,0.9-1.1,1.6-1.9,2.3c0,0.1-0.1,0.1-0.1,0.2L16,16.9c-0.1,0.6-0.4,1.2-0.9,1.6
	C14.6,18.8,14,19.1,13.4,19.1z M9.7,15.5l0.2,0.9c0,0.3,0.1,0.4,0.3,0.6c0.2,0.1,0.4,0.2,0.6,0.2h2.6c0.2,0,0.4-0.1,0.6-0.2
	c0.2-0.1,0.3-0.3,0.3-0.5l0.2-1H9.7z M9.1,13.7H15c0,0,0.1-0.1,0.1-0.1c0.7-0.5,1.3-1.1,1.7-1.9c0.4-0.7,0.6-1.6,0.6-2.4
	c0-1.4-0.6-2.7-1.6-3.7c-1-1-2.4-1.5-3.8-1.5c-1.4,0-2.8,0.5-3.8,1.5c-1,1-1.6,2.3-1.6,3.7v0c0,0.8,0.2,1.7,0.6,2.4
	C7.8,12.5,8.3,13.2,9.1,13.7C9.1,13.7,9.1,13.7,9.1,13.7z M5.9,9.4L5.9,9.4L5.9,9.4z"/>
</svg>
