<?xml version="1.0" encoding="UTF-8"?><svg id="_層_1" xmlns="http://www.w3.org/2000/svg" xmlns:xlink="http://www.w3.org/1999/xlink" viewBox="0 0 1101.74 670.8"><defs><style>.cls-1{fill:#00c3d9;}.cls-2{fill:#e3e4e5;}.cls-3{fill:#fff;}.cls-4{fill:#ffadaf;}.cls-5{fill:#e4e6ea;}.cls-6{fill:#fecb22;}.cls-7{fill:#ff2e56;}.cls-8{fill:#6737c1;}.cls-9{fill:#63d6ba;}.cls-10{fill:#97b0dd;}.cls-11{fill:#b9caf6;}.cls-12{fill:#d7e6f1;}.cls-13{fill:#dcdde0;}.cls-14{fill:#1f143f;}.cls-15{fill:#04a2aa;}.cls-16{fill:#349b82;}.cls-17{fill:#2b209a;}.cls-18{fill:#2e1c66;}.cls-19{fill:#4ab9a1;}.cls-20{fill:url(#_命名漸層_10);}.cls-21{fill:url(#_命名漸層_12);}.cls-22{fill:url(#_命名漸層_11);}.cls-23{fill:url(#_命名漸層);}.cls-24{fill:url(#_命名漸層_2);}.cls-25{fill:url(#_命名漸層_3);}.cls-26{fill:url(#_命名漸層_4);}.cls-27{fill:url(#_命名漸層_5);}.cls-28{fill:url(#_命名漸層_6);}.cls-29{fill:url(#_命名漸層_7);}.cls-30{fill:url(#_命名漸層_8);}.cls-31{fill:url(#_命名漸層_9);}</style><linearGradient id="_命名漸層" x1="306.72" y1="385.52" x2="636.86" y2="116.1" gradientTransform="translate(0 672) scale(1 -1)" gradientUnits="userSpaceOnUse"><stop offset="0" stop-color="#e4e6ea"/><stop offset="1" stop-color="#fff"/></linearGradient><linearGradient id="_命名漸層_2" x1="374.2" y1="641.54" x2="374.2" y2="584.53" gradientTransform="translate(0 672) scale(1 -1)" gradientUnits="userSpaceOnUse"><stop offset="0" stop-color="#fff"/><stop offset="1" stop-color="#aae5f2"/></linearGradient><linearGradient id="_命名漸層_3" x1="864.44" y1="398.44" x2="864.44" y2="357.07" gradientTransform="translate(0 672) scale(1 -1)" gradientUnits="userSpaceOnUse"><stop offset="0" stop-color="#fff"/><stop offset="1" stop-color="#aae5f2"/></linearGradient><linearGradient id="_命名漸層_4" x1="671.85" y1="578.03" x2="671.85" y2="545.72" gradientTransform="translate(0 672) scale(1 -1)" gradientUnits="userSpaceOnUse"><stop offset="0" stop-color="#fff"/><stop offset="1" stop-color="#aae5f2"/></linearGradient><linearGradient id="_命名漸層_5" x1="352.51" y1="52.11" x2="390.83" y2="38.22" gradientTransform="translate(0 672) scale(1 -1)" gradientUnits="userSpaceOnUse"><stop offset="0" stop-color="#e4e6ea"/><stop offset=".35" stop-color="#dadce0"/><stop offset=".94" stop-color="#bfc1c4"/><stop offset="1" stop-color="#bcbec1"/></linearGradient><linearGradient id="_命名漸層_6" x1="348.7" y1="266.23" x2="290.55" y2="206.1" gradientTransform="translate(0 672) scale(1 -1)" gradientUnits="userSpaceOnUse"><stop offset="0" stop-color="#bcbec1"/><stop offset=".36" stop-color="#d9dadc"/><stop offset=".76" stop-color="#f5f5f6"/><stop offset="1" stop-color="#fff"/></linearGradient><linearGradient id="_命名漸層_7" x1="395.46" y1="260.99" x2="356.25" y2="137" gradientTransform="translate(0 672) scale(1 -1)" gradientUnits="userSpaceOnUse"><stop offset="0" stop-color="#bcbec1"/><stop offset=".02" stop-color="#bfc1c4"/><stop offset=".27" stop-color="#dbdcde"/><stop offset=".51" stop-color="#efeff0"/><stop offset=".76" stop-color="#fbfbfb"/><stop offset="1" stop-color="#fff"/></linearGradient><linearGradient id="_命名漸層_8" x1="838.41" y1="34.8" x2="856.22" y2="34.8" gradientTransform="translate(0 672) scale(1 -1)" gradientUnits="userSpaceOnUse"><stop offset="0" stop-color="#e0ac1b"/><stop offset="1" stop-color="#fecb22"/></linearGradient><linearGradient id="_命名漸層_9" x1="841.52" y1="60.77" x2="868.82" y2="60.58" gradientTransform="translate(0 672) scale(1 -1)" gradientUnits="userSpaceOnUse"><stop offset="0" stop-color="#cc1d46"/><stop offset="1" stop-color="#ff2e56"/></linearGradient><linearGradient id="_命名漸層_10" x1="743.07" y1="193.37" x2="720.02" y2="233.86" gradientTransform="translate(0 672) scale(1 -1)" gradientUnits="userSpaceOnUse"><stop offset="0" stop-color="#bcbec1"/><stop offset=".36" stop-color="#d9dadc"/><stop offset=".76" stop-color="#f5f5f6"/><stop offset="1" stop-color="#fff"/></linearGradient><linearGradient id="_命名漸層_11" x1="796.47" y1="160.81" x2="772.58" y2="229.07" gradientTransform="translate(0 672) scale(1 -1)" gradientUnits="userSpaceOnUse"><stop offset="0" stop-color="#bcbec1"/><stop offset=".36" stop-color="#d9dadc"/><stop offset=".76" stop-color="#f5f5f6"/><stop offset="1" stop-color="#fff"/></linearGradient><linearGradient id="_命名漸層_12" x1="214.94" y1="416.14" x2="214.94" y2="382.77" gradientTransform="translate(0 672) scale(1 -1)" gradientUnits="userSpaceOnUse"><stop offset="0" stop-color="#fff"/><stop offset="1" stop-color="#aae5f2"/></linearGradient></defs><path class="cls-12" d="M550.87,670.8c304.24,0,550.87-5.86,550.87-13.09s-246.63-13.09-550.87-13.09S0,650.48,0,657.71s246.63,13.09,550.87,13.09Z"/><path class="cls-5" d="M353.73,318.2c45.54,103.3-10.47,258.75,63.4,291.76,50.62,22.64,65.46-155.46,65.46-155.46,0,0-155.4-196.63-128.86-136.31Z"/><path class="cls-5" d="M507.9,350.49s53.14,138.31,51.8,187.8c-1.34,49.49-10.06,71.62,13.3,73.62,23.36,1.95,67.77-29.16,63.76-109.97-3.95-80.76-128.86-151.45-128.86-151.45Z"/><path class="cls-3" d="M463.9,656.84c-26.13-5.8-43.23-39.07-51.6-55.91-17.92-36.14-17.76-73.21-14.07-111.25,1.8-18.84,3.08-37.99-1.39-56.68-4.72-19.66-20.02-33.27-31.21-50.83-19.25-30.24-35.01-59.09-38.71-92.72-3.03-27.31-1.85-59.09,7.34-85.74,4.77-13.96,13.76-27.47,28.18-36.76,31.73-20.48,64.43-9.81,99.65-5.49,73.42,8.98,134.41-12.42,198.38-6.11,39.17,3.85,71.1,16.94,92.51,42.87,19.56,23.72,23.15,53.39,20.48,80.71-3.18,32.55-18.38,62.48-33.42,92.67-6.16,12.32-16.58,22.85-21.46,35.89-8.42,22.33-6.62,45.54-6.98,68.54-.51,33.01,.62,67.46-9.55,100.11-9.91,31.73-34.91,69.62-78.55,80.24-18.59,3.85-25.36-14.12-27.06-42.41-1.69-28.29-3.39-146.47-25.36-154.17-21.97-7.7-33.06,7.03-48.77,49.8-18.74,50.36-17.87,156.23-58.43,147.24Z"/><path class="cls-5" d="M625.88,453.02c-40.04-27.21-76.08,7.91-76.08,7.91,5.9-3.75,12.47-4.16,20.48-1.49,18.89-12.48,36.25-13.25,55.6-6.42Z"/><path class="cls-23" d="M443.06,588.09c-24.9-36.35-23.41-82.96-13.45-124.24,9.96-41.43,36.61-77.42,40.1-120.6,1.59-19.97,.57-41.64-13.04-57.5-9.29-10.78-21.41-18.64-32.29-27.83-10.88-9.14-21-20.48-23.87-34.4-4.21-20.28,8.83-36.66,24.75-47.23,9.24-6.16,20.07-11.19,31.01-15.66-33.01-4.62-63.82-13.09-93.8,6.26-14.43,9.34-23.41,22.85-28.18,36.76-9.14,26.59-10.32,58.42-7.34,85.74,3.7,33.68,19.46,62.48,38.71,92.72,11.19,17.56,26.49,31.16,31.21,50.83,4.47,18.69,3.24,37.84,1.39,56.68-3.7,38.04-3.85,75.11,14.07,111.25,8.37,16.84,25.41,50.11,51.6,55.91,11.91,2.62,20.28-4.62,26.59-17.51-16.99-16.07-34.29-31.93-47.44-51.19Z"/><path class="cls-5" d="M393.62,184.93c5.9-1.23,46.51-23.21,132.87-6.06,86.35,17.15,111.15,2.1,138.36-8.47-83.27,55.34-166.54-12.94-271.23,14.53Z"/><path class="cls-24" d="M307.06,91.43h135.43c21.51,0,18.38-22.64,8.68-26.34-6.57-2.52-13.81-.21-19.41,3.75-6.93,4.83-12.78,14.22-22.23,9.45-6.67-3.39-7.08-10.58-7.5-17.46-.46-8.68-1.18-19.51-8.73-24.75-6.78-4.67-16.94-3.59-24.33-1.18-6.88,2.21-13.04,6.78-17.56,12.73-5.6,7.5-4.47,16.33-4.31,25.41,.1,6.37-4.83,10.47-10.93,8.01-4.72-1.9-7.91-5.9-11.19-9.7-3.7-4.26-8.62-8.63-13.96-10.06-11.76-3.18-24.54,7.19-20.48,20.9,1.28,4.16,4.62,9.24,16.53,9.24Z"/><path class="cls-25" d="M815.01,317.84h99.6c15.81,0,13.5-16.63,6.37-19.41-4.83-1.85-10.17-.15-14.27,2.72-5.08,3.54-9.39,10.47-16.33,6.93-4.93-2.46-5.24-7.8-5.49-12.83-.36-6.37-.87-14.32-6.42-18.23-4.98-3.44-12.47-2.62-17.87-.87-5.03,1.64-9.6,4.98-12.89,9.4-4.11,5.49-3.29,12.01-3.13,18.69,.1,4.67-3.54,7.7-8.01,5.9-3.44-1.39-5.8-4.31-8.26-7.14-2.72-3.13-6.32-6.32-10.27-7.39-8.68-2.31-18.07,5.29-15.04,15.4,.82,3.08,3.29,6.83,12.01,6.83Z"/><path class="cls-26" d="M635.17,126.86h80.04c3.29,0,7.65-.15,10.11-2.67,2.21-2.26,1.59-5.96,.31-8.52-.92-1.8-2.57-3.54-4.52-4.21-3.18-1.08-5.96,.41-9.03,1.18-5.49,1.33-9.65-2.16-11.4-7.08-1.49-4.16-3.54-8.42-6.98-11.35-3.65-3.08-9.09-3.75-13.3-1.28-5.24,3.03-7.91,8.88-12.63,12.58-8.62,6.72-21.72,8.83-31.37,2.93-4.83-2.98-10.99-7.86-16.53-3.23-1.85,1.54-2.72,3.64-2.93,5.85-.26,3.23,.97,6.78,2.88,9.24,2.31,2.88,7.96,6.57,15.35,6.57Z"/><path class="cls-3" d="M420.27,585.53s183.13-28.7,186.88-29.47c1.85,17.87,8.42,101.29,8.42,101.29,0,0-189.7-.51-195.4-.46,3.08-8.88,.1-71.36,.1-71.36Z"/><path class="cls-1" d="M420.16,656.89h15.71c9.65-38.56,30.91-64.64,52.52-82.09-36.91,5.8-68.13,10.68-68.13,10.68,0,0,2.98,62.53-.1,71.41Z"/><path class="cls-15" d="M601.8,556.93c-3.8,.62-9.5,1.54-16.53,2.62-8.88,28.24-35.01,68.33-102.01,97.49,41.79,.1,102.37,.21,122.44,.26-.05-.92-2.16-68.85-3.9-100.37Z"/><path class="cls-1" d="M607.14,556.06c-.77,.15-9.09,1.49-21.87,3.54-3.34,14.17-18.94,67.72-70.23,97.54,49.75,.1,100.47,.26,100.47,.26,0,0-6.57-83.48-8.37-101.34Z"/><path class="cls-15" d="M606.06,557.39l-7.34,1.03,9.5,98.06h6.42l-8.57-99.08Z"/><path class="cls-5" d="M420.27,585.53s.1,2.16,.26,5.8c14.84-2.41,109.97-17.3,153.3-14.79,22.28,1.33,32.65,18.02,38.2,36.25-1.85-22.95-3.95-47.9-4.83-56.73-3.85,.77-186.93,29.47-186.93,29.47Z"/><path class="cls-5" d="M420.27,585.53c-16.38,2-55.45,6.83-55.45,6.83l2.88,64.99,55.91-.51c-.05,.05,9.96-38.66-3.34-71.31Z"/><path class="cls-27" d="M381.2,624.13c.82,17.97-5.24,32.81-13.55,33.22-8.32,.41-15.71-13.86-16.53-31.83-.82-17.97,5.24-32.81,13.55-33.22,8.37-.36,15.71,13.91,16.53,31.83Z"/><path class="cls-13" d="M381.09,622.13c12.37-1.08,33.58-3.13,45.85-5.03-.41-6.78-1.33-13.96-3.18-21.05l-47.28,6.73c2.36,5.13,4.06,11.86,4.62,19.35Z"/><path class="cls-13" d="M381.3,626.55c0,2.05-.05,4.11-.21,6.06,11.29-.67,32.65-1.95,46-2.98,.05-2.1,.1-4.31,.1-6.52l-45.9,3.44Z"/><path class="cls-5" d="M684.2,635.27c-14.48-2.77-151.04-29.32-166.13-32.86-15.09-3.49-40.82-7.44-53.55-5.96s-34.76,2.98-42-3.65c-1.23-1.13-2.72-1.95-4.42-2.36l-37.73-9.81c-2.62-.67-5.24,.87-5.9,3.49-.97,3.7,1.28,7.5,4.98,8.47l45.9,11.91c4.98,1.28,41.58,1.9,69.46,9.4,27.88,7.5,190.42,46,190.42,46,0,0,15.55,4.26,18.48-6.88,2.77-10.83-3.03-14.63-19.51-17.76Z"/><path class="cls-19" d="M387.4,579.16l-3.39-.87,3.85-19.2c.2-1.13,1.33-1.8,2.46-1.54l1.28,.31c1.08,.31,1.74,1.44,1.39,2.52l-5.6,18.79Z"/><path class="cls-19" d="M392.49,580.49l-3.39-.87,3.85-19.2c.2-1.13,1.33-1.8,2.46-1.54l1.28,.31c1.08,.31,1.74,1.44,1.39,2.52l-5.6,18.79Z"/><path class="cls-19" d="M397.62,581.83l-3.39-.87,3.85-19.2c.2-1.13,1.33-1.8,2.46-1.54l1.28,.31c1.08,.31,1.74,1.44,1.39,2.52l-5.6,18.79Z"/><path class="cls-19" d="M402.76,583.11l-3.39-.87,3.85-19.2c.21-1.13,1.33-1.8,2.46-1.54l1.28,.31c1.08,.31,1.75,1.44,1.39,2.52l-5.6,18.79Z"/><path class="cls-19" d="M407.84,584.45l-3.39-.87,3.85-19.2c.21-1.13,1.33-1.8,2.46-1.54l1.28,.31c1.08,.31,1.75,1.44,1.39,2.51l-5.6,18.79Z"/><path class="cls-19" d="M412.97,585.78l-3.39-.87,3.85-19.2c.21-1.13,1.33-1.8,2.46-1.54l1.28,.31c1.08,.31,1.75,1.44,1.39,2.52l-5.6,18.79Z"/><path class="cls-19" d="M418.05,587.12l-3.39-.87,3.85-19.2c.21-1.13,1.34-1.8,2.46-1.54l1.28,.31c1.08,.31,1.75,1.44,1.39,2.52l-5.6,18.79Z"/><path class="cls-19" d="M423.19,588.45l-3.39-.87,3.85-19.2c.21-1.13,1.34-1.8,2.47-1.54l1.28,.31c1.08,.31,1.75,1.44,1.39,2.52l-5.6,18.79Z"/><path class="cls-6" d="M688.51,631.89c-14.48-2.77-151.04-29.32-166.13-32.86-15.09-3.49-40.82-7.44-53.55-5.96-12.73,1.49-34.76,2.98-41.99-3.65-1.23-1.13-2.72-1.95-4.42-2.36l-37.73-9.81c-2.62-.67-5.24,.87-5.9,3.49-.98,3.7,1.28,7.5,4.98,8.47l45.9,11.91c4.98,1.28,41.59,1.9,69.46,9.4,27.88,7.49,190.42,46,190.42,46,0,0,15.56,4.26,18.48-6.88,2.77-10.78-3.03-14.58-19.51-17.76Z"/><path class="cls-5" d="M393.82,558.83c.05,0,30.24,8.01,30.24,8.01,8.42,2.26,10.58-3.29,10.42-7.29-.31-7.34-16.12-8.83-31.11-13.04-4.88-1.34-12.42-2.93-10.58-8.88-7.34,.98-14.84,16.99,1.03,21.2Z"/><path class="cls-4" d="M318.92,646.36l-.2,5.24,3.8,.77,1.18-6.88-4.77,.87Z"/><path class="cls-17" d="M322.72,650.26c-.31,.62-.98,1.54-2.1,1.44-.72-.05-1.59-1.23-2.16-.62-.56,.62-1.08,1.75-.98,2.93,.05,.92,.26,1.44,1.85,1.75,1.59,.31,9.14-.41,9.14-.41,0,0,1.69-.15,1.75-.92,0-.87-.31-.87-1.59-1.64-1.18-.67-3.13-1.64-4.16-2.16-.72-.31-1.39-1.03-1.75-.36Z"/><path class="cls-4" d="M371.7,647.23l1.49,5.85,4.47-.46-.98-7.96-4.98,2.57Z"/><path class="cls-17" d="M377.35,650.93c-.36,.72-1.13,1.74-2.41,1.64-.82-.05-1.8-1.39-2.46-.72-.62,.72-1.23,2-1.13,3.39,.05,1.03,.31,1.64,2.11,2,1.8,.36,12.07-.05,12.07-.05,0,0,1.95-.21,2-1.03,0-1.03-.36-1.03-1.8-1.85-1.33-.77-5.13-2.31-6.31-2.82-.92-.51-1.7-1.33-2.05-.56Z"/><path class="cls-4" d="M418.11,453.89c1.33-.2,21.26-11.76,23.36-12.99,2.11-1.23,2.77,1.33-.87,3.9-6.06,4.26-2.67,5.03-5.34,8.52-2.67,3.49-10.63,6.57-12.89,6.57s-4.26-6.01-4.26-6.01Z"/><path class="cls-3" d="M418.47,452.66l3.49-2.36,4.36,10.32-4.52,1.28-3.34-9.24Z"/><path class="cls-10" d="M307.01,496.61s5.18,68.9,10.63,150.63c1.75,.57,6.47,.41,6.47,.41,0,0,18.94-117.57,21.05-161.62-16.53-.92-38.15,10.58-38.15,10.58Z"/><path class="cls-11" d="M314.71,492.45s43.33,133.48,56.83,155.82c1.9,.1,6.11-.36,6.11-.36,0,0-4.88-125.22-12.53-159.72-17.51,5.85-50.42,4.26-50.42,4.26Z"/><path class="cls-28" d="M341.3,400.96c-30.7,12.37-40.61,39.63-34.29,68.49l24.49-36.45,9.81-32.04Z"/><path class="cls-3" d="M419.39,449.94s-9.65,4.78-16.79,4.93c-14.38,.31-20.23-25.72-30.6-42.71-7.75-12.73-28.29-15.61-38.04-7.49-11.14,9.29-18.94,22.74-23.46,42.41-.21,.1-.36,.21-.57,.31-8.47,41.94-2.11,114.85,0,142.83,10.16,7.19,57.65-8.47,67.36-12.73,2.31-56.22-15.71-134.61-15.71-134.61,5.65,10.11,11.35,20.69,24.13,25.16,22.38,7.86,38.66-4.88,38.66-4.88l-4.98-13.19Z"/><path class="cls-14" d="M355.22,383.76s8.21,3.08,10.83-3.34c2.21-5.44-1.59-6.52-4-5.44s-3.03,1.33-6.37-1.08c-6.37-4.62-12.07,.51-11.76,3.49,0,0-3.64,.26-4.57,4.72-1.44,6.78,2.93,14.07,8.52,13.66,1.08-6.42,3.8-9.04,3.8-9.04l3.54-2.98Z"/><path class="cls-4" d="M358.56,384.43c-1.95-3.13-5.75-.77-6.73,.56-1.33,1.9-2.26,4.57-2.62,3.39-.31-1.08-.98-1.64-1.69-1.54-.51,.1-1.03,.62-1.23,1.33-.62,2.16,2.21,2.41,1.13,5.13-.05,.05-.05,.15-.05,.21,0,0-2.82,5.95-1.75,7.24,1.75,2.05,5.8,1.33,5.29,.2-.41-.92-.36-2.67-.26-3.95,.36,.1,.72,.15,1.13,.26,3.49,.56,4.83-.93,5.55-2.36,.41-.92,1.8-9.5,1.23-10.47Z"/><path class="cls-5" d="M340.23,402.04l.05-4.52s11.6,1.49,15.2,2.21c-.2,1.13-.67,3.59-.67,3.59,0,0-8.16-2-14.58-1.28Z"/><path class="cls-29" d="M350.14,586.45c12.06-3.28,23.05-7.19,27.21-8.98,2.31-56.22-15.71-134.61-15.71-134.61,0,0-3.44-8.37-4.26-20.59-18.28,76.8,7.65,98.93-7.24,164.18Z"/><path class="cls-16" d="M810.39,592.61c-.15-3.29,1.08-6.47,.21-9.65-1.49-5.29-7.03-8.01-11.19-10.88-2.88-2-5.65-4.21-7.55-7.14-1.9-2.93-2.88-6.62-1.85-9.91,2.05-6.62,12.07-8.47,16.22-2.88,1.7,2.31,2.16,5.29,2.77,8.11,1.59,7.19,6.11,8.06,12.27,10.06,10.32,3.34,24.95,11.5,21.31,24.7-2.88,10.37-17.56,14.78-26.03,8.57-3.03-2.21-5.13-5.65-5.96-9.29-.1-.57-.15-1.13-.21-1.69Z"/><path class="cls-16" d="M882.37,577.26c-3.39,1.39-7.24,1.28-10.22,3.39-4.98,3.54-5.75,10.42-7.24,15.86-1.03,3.75-2.31,7.5-4.67,10.58-2.36,3.08-5.9,5.49-9.75,5.65-7.75,.31-13.45-9.5-9.14-15.97,1.8-2.67,4.78-4.26,7.5-5.96,6.98-4.36,6.21-9.45,6.01-16.69-.36-12.12,2.77-30.6,17.97-31.68,11.96-.87,22.18,12.94,18.79,24.18-1.18,4-4.01,7.49-7.55,9.75-.57,.36-1.13,.62-1.69,.87Z"/><path class="cls-19" d="M826.46,603.24c-1.54-1.13-2.93-2.26-4.16-3.44-2.16-2.1-4.11-4.52-4.93-7.39-1.69-6.01,2.62-9.29,6.98-12.37,2.62-1.9,6.01-4.88,6.06-8.42,.05-3.75-3.03-8.06-5.39-10.68-4.21-4.78-10.63-7.45-12.94-13.71-1.95-5.29,.62-10.53,5.54-12.89,2.52-1.23,5.24-1.59,7.96-2.16,2.36-.46,4.67-1.34,7.03-2,4.31-1.18,9.29-2.72,11.45-7.03,2.52-4.93,.62-10.93,3.23-15.86,2.31-4.36,6.26-7.91,11.09-9.14,5.7-1.44,12.48,.41,16.48,4.77,3.9,4.21,3.49,13.04,1.69,18.12-1.13,3.13-3.03,5.95-5.49,8.21-2.72,2.46-6.16,3.85-9.14,5.96-9.09,6.52-6.47,22.95,.15,30.24,1.95,2.16,4.21,4.05,5.95,6.42,1.69,2.36,2.88,5.34,2.26,8.21-1.34,5.85-9.29,9.4-14.22,11.4-1.59,.67-3.7,1.33-4.72,2.88-1.08,1.64-.51,4.11,.51,5.65,.72,1.13,1.69,2.05,2.72,2.88,.87,.67,2.31,1.34,2.05,2.67-.1,.62-.62,1.03-1.08,1.39-8.37,6.52-20.74,2.36-29.11-3.7Z"/><path class="cls-9" d="M844.79,613.15c-.15,0-.26-.05-.36-.21-.41-.67-9.45-16.94-3.8-24.8,6.72-9.34,4.93-13.45,.72-23.36l-.31-.67c-4.26-9.91-7.91-18.43,20.49-47.95,.15-.15,.41-.15,.56,0,.16,.15,.16,.41,0,.57-28.08,29.16-24.49,37.48-20.33,47.13l.26,.62c4.26,9.96,6.21,14.48-.77,24.13-5.34,7.44,3.75,23.82,3.85,23.98,.1,.21,.05,.41-.15,.51-.05,.05-.1,.05-.15,.05Z"/><path class="cls-6" d="M857.36,657.35h-31.93l-11.55-40.3h53.19l-9.7,40.3Z"/><path class="cls-7" d="M868.97,617.05h-56.93l-1.85-10.88,61.5-.46-2.72,11.35Z"/><path class="cls-30" d="M867.07,617.05h-13.6c.15,2.67-.67,4.98-3.23,6.62-1.75,1.08-3.75,1.85-5.03,3.49-2.16,2.67-.56,4.21,.36,6.88,1.03,2.88,1.08,6.11,.15,8.98-1.85,5.6-6.52,9.4-8.88,14.32h20.43l9.81-40.3Z"/><path class="cls-31" d="M871.69,605.7l-19.36,.15c-.26,.82-.41,1.69-.41,2.62-.05,2.21,.77,4.36,1.23,6.52,.15,.72,.26,1.39,.31,2.05h15.45l2.77-11.35Z"/><path class="cls-3" d="M754.74,74.29c-.1,0-.15,0-.26-.05-1.49-.46-2.98-.98-4.47-1.49-.41-.15-.62-.56-.51-.98,.15-.41,.56-.62,.97-.51,1.49,.51,2.98,.98,4.42,1.44,.41,.15,.62,.56,.51,.98,0,.41-.31,.62-.67,.62Zm-8.83-2.98c-.1,0-.15,0-.26-.05-1.49-.51-2.93-1.03-4.42-1.54-.41-.15-.62-.56-.46-.98s.57-.62,.98-.46c1.49,.51,2.93,1.03,4.41,1.54,.41,.15,.62,.56,.46,.98-.1,.31-.41,.51-.72,.51Zm-8.83-3.08c-.1,0-.15,0-.26-.05-1.49-.51-2.93-1.08-4.41-1.59-.41-.15-.62-.62-.46-.98,.15-.41,.62-.62,.98-.46,1.44,.51,2.93,1.08,4.36,1.59,.41,.15,.62,.62,.46,.98-.05,.31-.36,.51-.67,.51Zm-8.78-3.23c-.1,0-.21,0-.26-.05-1.44-.56-2.93-1.13-4.36-1.64-.41-.15-.62-.62-.46-1.03,.15-.41,.62-.62,1.03-.46,1.44,.56,2.93,1.13,4.36,1.64,.41,.15,.62,.62,.46,1.03-.15,.36-.46,.51-.77,.51Zm-8.73-3.34c-.1,0-.21,0-.31-.05-1.44-.56-2.88-1.13-4.36-1.75-.41-.15-.62-.62-.41-1.03,.15-.41,.62-.62,1.03-.41,1.44,.56,2.88,1.18,4.31,1.75,.41,.15,.62,.62,.46,1.03-.1,.26-.41,.46-.72,.46Zm-39.79-2.52q-.05,0,0,0c-1.59,0-3.18-.21-4.77-.46-.41-.05-.72-.46-.62-.92,.05-.41,.46-.72,.92-.62,1.49,.26,3.03,.41,4.52,.46,.41,0,.77,.36,.77,.77-.05,.41-.41,.77-.82,.77Zm4.62-.36c-.36,0-.72-.26-.77-.67-.05-.41,.21-.82,.62-.92,1.54-.26,2.98-.72,4.31-1.28,.41-.15,.87,0,1.03,.41,.15,.41,0,.87-.41,1.03-1.44,.62-3.03,1.08-4.62,1.39-.05,.05-.1,.05-.15,.05Zm26.49-.62c-.1,0-.21,0-.31-.05-1.44-.62-2.88-1.18-4.31-1.8-.41-.15-.57-.62-.41-1.03,.15-.41,.62-.56,1.03-.41,1.44,.62,2.88,1.18,4.31,1.8,.41,.15,.57,.62,.41,1.03-.1,.26-.41,.46-.72,.46Zm-40.3-.67c-.1,0-.15,0-.26-.05-1.39-.46-2.72-1.08-4.01-1.75l-.36-.21c-.36-.21-.51-.67-.31-1.08,.21-.36,.67-.51,1.08-.31l.36,.21c1.18,.62,2.46,1.18,3.8,1.64,.41,.15,.62,.56,.46,.98-.15,.36-.46,.56-.77,.56Zm-135.69-1.75c-1.33,0-2.67-.1-3.95-.36-.41-.05-.72-.46-.62-.92,.05-.41,.46-.72,.92-.62,1.49,.26,2.98,.36,4.47,.31,.46,0,.77,.31,.82,.77,0,.41-.31,.77-.77,.82h-.87Zm157.97-.67c-.26,0-.46-.1-.62-.31-.26-.36-.21-.82,.15-1.08,.87-.72,1.69-1.49,2.41-2.36,.26-.26,.46-.56,.67-.82,.26-.36,.77-.41,1.08-.15,.36,.26,.41,.77,.15,1.08-.26,.31-.46,.62-.72,.92-.82,.92-1.69,1.8-2.67,2.57-.1,.1-.26,.15-.46,.15Zm-152.58-.1c-.36,0-.67-.21-.77-.56-.1-.41,.1-.82,.57-.98,.36-.1,.77-.21,1.13-.36,1.08-.36,2.11-.82,3.08-1.33,.36-.21,.87-.05,1.03,.36,.21,.36,.05,.87-.36,1.03-1.03,.51-2.11,.98-3.23,1.39-.41,.15-.82,.26-1.23,.41-.05,.05-.1,.05-.2,.05Zm162.03-.46c-.1,0-.21,0-.31-.05-1.44-.62-2.88-1.23-4.31-1.85-.41-.15-.57-.62-.41-1.03s.62-.56,1.03-.41c1.44,.62,2.88,1.23,4.26,1.85,.41,.15,.57,.62,.41,1.03-.1,.31-.41,.46-.67,.46Zm-175.73-.46c-.1,0-.21,0-.31-.05-1.49-.62-2.93-1.39-4.26-2.31-.36-.26-.41-.72-.2-1.08,.26-.36,.72-.41,1.08-.21,1.23,.87,2.52,1.59,3.95,2.16,.41,.15,.57,.62,.41,1.03-.1,.31-.36,.46-.67,.46Zm135.74-.92c-.15,0-.31-.05-.46-.15-1.23-.87-2.52-1.8-3.8-2.82-.36-.26-.36-.77-.1-1.08,.26-.31,.77-.36,1.08-.1,1.28,1.03,2.46,1.95,3.7,2.77,.36,.26,.46,.72,.21,1.08-.1,.21-.36,.31-.62,.31Zm31.42-2.36c-.1,0-.21,0-.31-.05-1.64-.72-2.98-1.39-4.26-2-.41-.21-.57-.67-.36-1.03,.21-.36,.67-.56,1.03-.36,1.28,.62,2.62,1.23,4.21,1.95,.41,.15,.57,.62,.41,1.03-.15,.31-.41,.46-.72,.46Zm-145.19-.05c-.21,0-.46-.1-.62-.26-.26-.31-.21-.82,.1-1.08,1.18-.98,2.21-2.05,3.08-3.23,.26-.36,.72-.41,1.08-.15,.36,.26,.41,.72,.15,1.08-.98,1.28-2.05,2.46-3.34,3.54-.15,.05-.31,.1-.46,.1Zm-29.52-2c-.21,0-.41-.1-.56-.26-.72-.87-1.39-1.8-1.95-2.77-.26-.41-.46-.87-.72-1.28-.21-.36-.05-.87,.36-1.03,.36-.21,.87-.05,1.03,.36,.21,.41,.41,.82,.67,1.18,.51,.87,1.13,1.75,1.8,2.52,.26,.31,.26,.82-.1,1.08-.15,.15-.36,.21-.51,.21Zm179.43-1.03c-.1,0-.21,0-.31-.05-.41-.15-.57-.62-.41-1.03,.62-1.33,1.08-2.77,1.39-4.31,.1-.41,.51-.67,.92-.62,.41,.1,.67,.51,.62,.92-.36,1.59-.87,3.13-1.49,4.57-.1,.36-.41,.51-.72,.51Zm-43.38-.41c-.21,0-.36-.05-.51-.21-1.03-.98-2.16-2-3.39-3.23-.31-.31-.31-.77,0-1.08,.31-.31,.77-.31,1.08,0,1.23,1.23,2.31,2.26,3.34,3.18,.31,.31,.36,.77,.05,1.08-.15,.21-.36,.26-.57,.26Zm30.29-.62c-.1,0-.26-.05-.36-.1-1.49-.82-2.82-1.59-4.06-2.41-.36-.21-.46-.72-.26-1.08,.26-.36,.72-.46,1.08-.26,1.23,.77,2.57,1.54,4.01,2.36,.36,.21,.51,.67,.31,1.08-.21,.31-.46,.41-.72,.41Zm-131.38-3.39c-.1,0-.21,0-.31-.05-.41-.15-.57-.62-.41-1.03,.57-1.39,.98-2.82,1.18-4.31,.05-.41,.46-.72,.87-.67,.41,.05,.72,.46,.67,.87-.26,1.64-.72,3.18-1.28,4.67-.1,.31-.41,.51-.72,.51Zm123.52-1.64c-.15,0-.31-.05-.46-.15-1.03-.77-2-1.59-2.93-2.46-.26-.21-.46-.41-.72-.67-.31-.31-.31-.77,0-1.08,.31-.31,.77-.31,1.08,0,.21,.21,.46,.41,.67,.62,.87,.82,1.8,1.59,2.82,2.36,.36,.26,.41,.77,.15,1.08-.15,.21-.41,.31-.62,.31Zm-29.11-.87c-.21,0-.41-.1-.57-.26l-.77-.77c-.82-.87-1.64-1.69-2.52-2.57-.31-.31-.31-.82,0-1.08,.31-.31,.82-.31,1.08,0,.82,.82,1.7,1.69,2.52,2.57l.77,.77c.31,.31,.31,.82,0,1.08-.1,.15-.31,.26-.51,.26Zm-133.53-.31c-.36,0-.67-.26-.77-.62-.26-1.13-.36-2.26-.36-3.39,0-.51,0-1.03,.05-1.49,.05-.41,.41-.72,.87-.72,.41,.05,.72,.41,.72,.87-.05,.46-.05,.92-.05,1.39,0,1.03,.1,2.05,.31,3.03,.1,.41-.15,.82-.62,.92h-.15Zm185.59-1.8c-.46,0-.77-.36-.77-.82v-1.9c-.05-.82-.1-1.75-.21-2.62-.05-.41,.26-.82,.67-.87,.41-.05,.82,.26,.87,.67,.1,.98,.21,1.9,.21,2.77v2c0,.41-.36,.77-.77,.77Zm-29.62-3.54c-.26,0-.46-.1-.62-.31-.98-1.28-1.9-2.62-2.67-3.95-.2-.36-.1-.87,.31-1.08,.36-.21,.87-.1,1.08,.31,.77,1.28,1.59,2.57,2.57,3.8,.26,.36,.21,.82-.15,1.08-.21,.1-.36,.15-.51,.15Zm-29.06-.98c-.21,0-.41-.05-.51-.21-1.13-1.08-2.26-2.1-3.44-3.13-.31-.31-.36-.77-.05-1.08,.31-.31,.77-.36,1.08-.05,1.18,1.03,2.36,2.1,3.49,3.18,.31,.31,.31,.77,.05,1.08-.2,.15-.41,.21-.62,.21Zm-86.3,0c-.41,0-.77-.31-.77-.72-.1-1.49-.31-2.98-.67-4.47-.1-.41,.15-.82,.57-.92,.41-.1,.82,.15,.92,.56,.41,1.59,.67,3.18,.72,4.77,.05,.36-.26,.72-.77,.77q.05,0,0,0Zm-39.74-2.88c-.1,0-.21,0-.31-.05-.41-.15-.62-.62-.41-1.03,.57-1.44,1.34-2.82,2.31-4.26,.26-.36,.72-.46,1.08-.21,.36,.26,.46,.72,.21,1.08-.87,1.33-1.59,2.62-2.16,3.95-.1,.36-.41,.51-.72,.51Zm183.69-1.9c-.36,0-.67-.26-.77-.62-.36-1.44-.77-2.93-1.23-4.42-.15-.41,.1-.87,.51-.98,.41-.15,.87,.1,.98,.51,.51,1.54,.92,3.08,1.28,4.57,.1,.41-.15,.82-.57,.92h-.21Zm-64.64-1.39c-.15,0-.36-.05-.51-.15-1.18-.98-2.41-1.95-3.64-2.88-.36-.26-.41-.77-.15-1.08,.26-.36,.77-.41,1.08-.15,1.23,.92,2.46,1.9,3.7,2.93,.31,.26,.36,.77,.1,1.08-.1,.15-.36,.26-.57,.26Zm31.42-.92c-.31,0-.62-.21-.72-.51-.57-1.54-1.03-3.08-1.34-4.62-.1-.41,.21-.82,.62-.92,.41-.1,.82,.21,.92,.62,.31,1.44,.72,2.93,1.28,4.36,.15,.41-.05,.87-.46,1.03-.15,0-.26,.05-.31,.05Zm-113-1.95c-.31,0-.57-.15-.72-.46-.62-1.39-1.39-2.67-2.21-3.95-.26-.36-.15-.82,.21-1.08,.36-.26,.82-.15,1.08,.21,.92,1.33,1.69,2.72,2.36,4.16,.15,.41,0,.87-.41,1.03-.05,.1-.21,.1-.31,.1Zm-32.34-1.54c-.21,0-.36-.05-.51-.21-.31-.31-.31-.77-.05-1.08,1.03-1.08,2.16-2.21,3.44-3.29,.31-.26,.82-.26,1.08,.1,.26,.31,.26,.82-.1,1.08-1.23,1.08-2.31,2.1-3.29,3.18-.15,.1-.36,.21-.56,.21Zm106.48-1.23c-.15,0-.31-.05-.46-.15-1.28-.87-2.57-1.75-3.85-2.57-.36-.26-.46-.72-.26-1.08,.26-.36,.72-.46,1.08-.26,1.33,.82,2.62,1.75,3.9,2.62,.36,.26,.46,.72,.21,1.08-.15,.26-.41,.36-.62,.36Zm69.15-1.85c-.31,0-.62-.15-.72-.46-.62-1.44-1.28-2.82-1.95-4.16-.21-.36-.05-.87,.31-1.03,.36-.21,.87-.05,1.03,.31,.72,1.39,1.39,2.82,2,4.31,.15,.41,0,.87-.41,1.03h-.26Zm-32.09-2.57c-.41,0-.77-.31-.77-.72,0-1.39,.1-2.67,.31-3.95,.05-.31,.1-.56,.15-.87,.1-.41,.51-.67,.92-.56,.41,.1,.67,.51,.56,.92-.05,.26-.1,.51-.15,.77-.21,1.18-.31,2.41-.31,3.59,.05,.41-.31,.82-.72,.82Zm-207.82-.05c-.26,0-.51-.15-.67-.41-.21-.36-.1-.87,.31-1.08,1.34-.77,2.77-1.54,4.16-2.21,.36-.21,.87-.05,1.03,.36,.21,.36,.05,.87-.36,1.03-1.39,.72-2.72,1.44-4.11,2.21-.1,.1-.2,.1-.36,.1Zm91.43-.46c-.2,0-.41-.1-.56-.26-1.03-1.13-2.1-2.16-3.29-3.18-.31-.26-.36-.77-.1-1.08,.26-.31,.77-.36,1.08-.1,1.23,1.03,2.36,2.16,3.44,3.29,.31,.31,.26,.82-.05,1.08-.15,.21-.31,.26-.51,.26Zm-20.12,0c-.26,0-.46-.1-.62-.31-.26-.36-.21-.82,.15-1.08,1.18-.87,2.52-1.8,3.9-2.67,.36-.26,.82-.15,1.08,.21,.26,.36,.15,.82-.2,1.08-1.34,.87-2.62,1.8-3.8,2.62-.21,.1-.36,.15-.51,.15Zm91.54-.1c-.15,0-.26-.05-.41-.1-1.34-.77-2.67-1.54-4.06-2.26-.36-.21-.51-.67-.31-1.08,.21-.36,.67-.51,1.08-.31,1.39,.77,2.77,1.54,4.11,2.31,.36,.21,.51,.72,.26,1.08-.1,.21-.36,.36-.67,.36Zm-154.53-3.7c-.31,0-.57-.15-.72-.46-.2-.41,0-.87,.36-1.03,1.44-.67,2.88-1.28,4.31-1.9,.41-.15,.87,0,1.03,.41,.15,.41,0,.87-.41,1.03-1.44,.62-2.82,1.23-4.26,1.9-.1,0-.21,.05-.31,.05Zm146.32-.77c-.1,0-.26-.05-.36-.1-1.39-.67-2.77-1.33-4.21-1.95-.41-.15-.57-.62-.41-1.03,.15-.41,.62-.56,1.03-.41,1.44,.62,2.88,1.33,4.26,2,.41,.21,.57,.67,.36,1.03-.1,.31-.36,.46-.67,.46Zm-75.52-.56c-.26,0-.51-.15-.67-.36-.21-.36-.1-.87,.26-1.08,.82-.46,1.59-.92,2.41-1.39-.36-.21-.72-.41-1.13-.62-.36-.21-.51-.67-.31-1.08,.21-.36,.67-.51,1.08-.31,.67,.36,1.34,.72,2,1.13,.05,0,.05-.05,.1-.05,.36-.21,.87-.05,1.03,.31,.1,.15,.1,.31,.1,.46,.31,.21,.57,.36,.87,.56,.36,.26,.46,.72,.21,1.08-.26,.36-.72,.46-1.08,.21-.41-.26-.82-.56-1.28-.82-1.08,.56-2.16,1.18-3.18,1.8-.15,.1-.31,.15-.41,.15Zm156.43,0c-.26,0-.51-.1-.67-.36-.87-1.33-1.8-2.57-2.72-3.65-.26-.31-.26-.82,.1-1.08,.31-.26,.82-.26,1.08,.1,.98,1.13,1.95,2.41,2.88,3.8,.26,.36,.15,.82-.21,1.08-.15,.05-.31,.1-.46,.1Zm-218.66-2.31c-.31,0-.62-.21-.72-.51-.15-.41,.05-.87,.46-1.03,1.49-.56,2.98-1.08,4.41-1.59,.41-.15,.87,.1,.98,.51,.15,.41-.1,.87-.51,.98-1.44,.51-2.93,1.03-4.36,1.59-.05,.05-.15,.05-.26,.05Zm129.22-.92c-.1,0-.21,0-.31-.05-1.44-.56-2.88-1.13-4.31-1.64-.41-.15-.62-.62-.46-.98,.15-.41,.62-.62,.98-.46,1.44,.51,2.93,1.08,4.42,1.69,.41,.15,.62,.62,.41,1.03-.1,.26-.41,.41-.72,.41Zm63.82-.1c-.1,0-.26-.05-.36-.1-.36-.21-.51-.67-.31-1.08,.82-1.49,1.8-2.77,2.93-3.9,.31-.31,.82-.31,1.08,0,.31,.31,.31,.82,0,1.08-1.03,1.03-1.9,2.21-2.62,3.54-.15,.31-.41,.46-.72,.46Zm-122.55-.98c-.31,0-.56-.15-.72-.46-.15-.41,0-.87,.41-1.03,1.44-.67,2.93-1.28,4.36-1.8,.41-.15,.87,.05,1.03,.46,.15,.41-.05,.87-.46,1.03-1.44,.56-2.88,1.13-4.26,1.8-.15-.05-.26,0-.36,0Zm-61.61-.98c-.36,0-.67-.21-.77-.56-.1-.41,.1-.82,.51-.98,1.49-.46,3.03-.87,4.52-1.23,.41-.1,.82,.15,.92,.56,.1,.41-.15,.82-.56,.92-1.49,.36-2.98,.77-4.47,1.23,0,0-.1,.05-.15,.05Zm50.41-.1c-.1,0-.21,0-.31-.05-1.39-.62-2.82-1.13-4.31-1.59-.41-.15-.62-.56-.51-.98,.15-.41,.56-.62,.98-.51,1.49,.51,3.03,1.03,4.41,1.64,.41,.15,.57,.62,.41,1.03-.1,.26-.36,.46-.67,.46Zm61.15-1.03c-.1,0-.15,0-.26-.05-1.49-.46-2.98-.92-4.47-1.33-.41-.1-.67-.56-.56-.98,.1-.41,.56-.67,.97-.56,1.49,.41,3.03,.87,4.52,1.33,.41,.15,.62,.56,.51,.98-.05,.41-.36,.62-.72,.62Zm92.1-.62c-.15,0-.36-.05-.51-.15-1.18-.98-2.41-1.8-3.64-2.36l-.1-.05c-.41-.21-.56-.67-.36-1.03,.21-.41,.67-.56,1.03-.36l.15,.05c1.33,.67,2.67,1.54,3.95,2.57,.31,.26,.36,.77,.1,1.08-.15,.15-.36,.26-.62,.26Zm-194.63-.56c-.36,0-.67-.26-.77-.62-.1-.41,.2-.82,.62-.92,1.54-.31,3.08-.62,4.62-.87,.41-.05,.82,.21,.87,.67,.05,.41-.21,.82-.67,.87-1.49,.26-3.03,.51-4.57,.82,0,.05-.05,.05-.1,.05Zm61.3-.05c-.31,0-.62-.21-.72-.56-.15-.41,.1-.87,.51-.98,1.54-.46,3.03-.92,4.57-1.28,.41-.1,.82,.15,.92,.56,.1,.41-.15,.82-.57,.92-1.49,.36-2.98,.77-4.47,1.23-.1,.1-.21,.1-.26,.1Zm-28.8-.62h-.15c-1.49-.36-3.03-.62-4.52-.82-.41-.05-.72-.46-.67-.87,.05-.41,.46-.72,.87-.67,1.54,.21,3.13,.51,4.67,.87,.41,.1,.67,.51,.57,.92-.1,.31-.41,.56-.77,.56Zm61.04-.67h-.21c-.98-.21-1.9-.46-2.88-.67-.57-.1-1.08-.21-1.64-.31-.41-.05-.72-.46-.62-.92,.05-.41,.46-.72,.92-.62,.57,.1,1.13,.21,1.69,.31,.98,.21,1.95,.41,2.93,.67,.41,.1,.67,.51,.56,.92-.1,.41-.41,.62-.77,.62Zm-84.3-.1c-.41,0-.72-.31-.77-.67-.05-.41,.26-.82,.67-.87,1.59-.15,3.13-.31,4.67-.41,.41-.05,.82,.31,.82,.72,.05,.41-.31,.82-.72,.82-1.54,.1-3.08,.26-4.62,.41h-.05Zm14.02-.51q-.05,0,0,0h-.21c-1.18-.05-2.36-.1-3.59-.05h-.87c-.41,0-.77-.36-.77-.77s.36-.77,.77-.77h.97c1.18,0,2.36,0,3.54,.05h.21c.41,0,.77,.41,.72,.82-.05,.36-.36,.72-.77,.72Zm158.43-.21c-.31,0-.57-.15-.72-.46-.15-.41,0-.87,.41-1.03,1.49-.67,3.03-1.03,4.62-1.03h.26c.41,0,.77,.36,.77,.82,0,.41-.36,.77-.77,.77h-.21c-1.33,0-2.67,.31-3.95,.87-.21,.05-.31,.05-.41,.05Zm-111.3-.1c-.36,0-.72-.26-.77-.67-.05-.41,.21-.82,.62-.87,1.59-.26,3.13-.46,4.67-.62,.46-.05,.82,.26,.82,.72,.05,.41-.26,.82-.72,.82-1.49,.15-3.03,.31-4.57,.56q0,.05-.05,.05Zm13.96-.62h-.05c-1.39-.1-2.88-.15-4.31-.15h-.31c-.41,0-.77-.36-.77-.77s.36-.77,.77-.77h.31c1.49,0,2.98,.05,4.41,.21,.41,.05,.77,.41,.72,.82-.05,.36-.36,.67-.77,.67Z"/><path class="cls-3" d="M1011.08,449.32c-.1,0-.26,0-.36-.1-.41-.21-.57-.67-.36-1.03,.67-1.39,1.33-2.77,1.95-4.21,.15-.41,.62-.57,1.03-.41,.41,.15,.56,.62,.41,1.03-.62,1.44-1.29,2.88-2,4.26-.11,.26-.42,.46-.67,.46Zm3.75-8.57c-.11,0-.21,0-.31-.05-.41-.15-.62-.62-.41-1.03,.56-1.44,1.13-2.88,1.64-4.36,.15-.41,.56-.62,.98-.46,.41,.15,.61,.62,.46,.98-.52,1.49-1.08,2.93-1.7,4.42-.05,.36-.36,.51-.66,.51Zm3.18-8.78c-.1,0-.16,0-.26-.05-.41-.15-.61-.57-.51-.98,.46-1.49,.92-2.98,1.33-4.47,.11-.41,.57-.67,.98-.51,.41,.1,.67,.57,.56,.98-.41,1.49-.87,3.03-1.33,4.52-.16,.31-.46,.51-.77,.51Zm2.51-8.98h-.2c-.41-.1-.67-.51-.57-.92,.36-1.49,.72-3.03,1.03-4.52,.1-.41,.51-.72,.93-.62,.41,.1,.66,.51,.61,.92-.31,1.54-.67,3.08-1.03,4.57-.1,.31-.41,.57-.77,.57Zm1.9-9.19h-.1c-.41-.05-.72-.46-.61-.87,.25-1.54,.46-3.08,.66-4.57,.05-.41,.41-.72,.88-.67,.41,.05,.71,.46,.66,.87-.2,1.54-.41,3.08-.66,4.67-.16,.31-.47,.56-.83,.56Zm1.13-9.24h-.05c-.41-.05-.77-.41-.72-.82,.16-1.54,.26-3.08,.31-4.62,0-.41,.36-.77,.82-.72,.41,0,.77,.36,.72,.82-.05,1.54-.15,3.13-.31,4.67,0,.36-.36,.67-.77,.67Zm.41-9.34c-.41,0-.77-.36-.77-.77,0-1.54-.05-3.13-.1-4.62,0-.41,.31-.77,.72-.82,.41,0,.77,.31,.82,.72,.05,1.54,.1,3.13,.1,4.72,0,.41-.3,.77-.77,.77Zm-.41-9.34c-.41,0-.72-.31-.77-.72-.15-1.54-.3-3.08-.56-4.62-.05-.41,.26-.82,.67-.87,.41-.05,.82,.26,.87,.67,.2,1.54,.41,3.08,.56,4.67,.05,.41-.25,.82-.72,.87h-.05Zm-1.33-9.24c-.36,0-.67-.26-.77-.62-.31-1.54-.67-3.03-1.03-4.52-.1-.41,.16-.82,.57-.92,.41-.1,.82,.15,.92,.56,.41,1.49,.72,3.03,1.03,4.62,.1,.41-.21,.82-.62,.92,0-.05-.05-.05-.1-.05Zm-35.37-6.21c-.41,0-.77-.31-.77-.77,0-.41,.31-.77,.77-.82,1.54-.05,3.03-.26,4.41-.67,.41-.1,.82,.1,.98,.56,.1,.41-.1,.82-.56,.98-1.54,.41-3.13,.67-4.83,.72q.05,0,0,0Zm-4.62-.36h-.15c-1.54-.26-3.08-.72-4.62-1.28-.41-.15-.62-.62-.46-.98,.15-.41,.62-.62,.97-.46,1.44,.51,2.93,.92,4.36,1.18,.41,.05,.72,.46,.62,.92,0,.36-.36,.62-.72,.62Zm13.55-2.16c-.26,0-.51-.15-.67-.41-.21-.36-.1-.87,.31-1.08,1.23-.72,2.46-1.59,3.59-2.62,.31-.31,.82-.31,1.13,.05,.31,.31,.31,.77,0,1.08l-.05,.05c-1.18,1.13-2.51,2.05-3.85,2.82-.21,.05-.31,.1-.46,.1Zm24.08-.31c-.31,0-.62-.2-.72-.57-.46-1.49-.98-2.93-1.54-4.36-.16-.41,.05-.87,.46-1.03s.87,.05,1.03,.46c.56,1.44,1.08,2.93,1.59,4.47,.15,.41-.1,.87-.51,.98-.16,.05-.21,.05-.31,.05Zm-46.36-.72c-.1,0-.26-.05-.36-.1-1.39-.77-2.72-1.64-4-2.57-.36-.26-.41-.72-.15-1.08,.26-.36,.77-.41,1.08-.15,1.23,.93,2.52,1.75,3.85,2.47,.36,.2,.51,.67,.31,1.08-.21,.21-.46,.36-.72,.36Zm29.16-5.18c-.16,0-.36-.05-.46-.15-.36-.26-.41-.77-.16-1.08,.88-1.13,1.75-2.36,2.57-3.8,.2-.36,.72-.51,1.08-.26,.36,.2,.51,.72,.25,1.08-.87,1.44-1.74,2.77-2.67,3.95-.15,.15-.35,.26-.61,.26Zm-36.61-.41c-.2,0-.41-.1-.56-.26-1.08-1.08-2.11-2.31-3.13-3.59-.26-.36-.21-.82,.15-1.08,.36-.26,.82-.21,1.08,.15,.98,1.23,2,2.41,3.03,3.44,.31,.31,.31,.82,0,1.08-.2,.2-.36,.26-.57,.26Zm50.42-2.36c-.31,0-.57-.15-.72-.46-.67-1.39-1.33-2.77-2.1-4.11-.21-.36-.06-.87,.3-1.08,.36-.21,.88-.05,1.08,.31,.77,1.39,1.44,2.77,2.11,4.21,.2,.41,0,.87-.36,1.03-.05,.05-.21,.1-.31,.1Zm-56.17-4.98c-.26,0-.51-.1-.67-.36-.87-1.33-1.64-2.72-2.36-4.11-.21-.36-.05-.87,.36-1.03,.36-.2,.87-.05,1.03,.36,.67,1.33,1.44,2.67,2.26,4,.26,.36,.1,.82-.26,1.08-.1,0-.26,.05-.36,.05Zm47.24-.21c-.11,0-.26-.05-.36-.1-.36-.21-.57-.67-.36-1.03,.25-.57,.51-1.08,.77-1.64,.41-.87,.82-1.69,1.18-2.57,.15-.36,.56-.57,.92-.41-.36-.46-.67-.97-1.02-1.44-.26-.36-.21-.82,.15-1.08,.36-.26,.82-.21,1.08,.15,.92,1.23,1.85,2.57,2.67,3.9,.25,.36,.1,.82-.26,1.08-.36,.2-.82,.1-1.08-.26-.36-.51-.67-1.08-1.02-1.59,0,.1-.06,.15-.06,.26-.41,.87-.77,1.75-1.18,2.62-.25,.57-.51,1.08-.82,1.64-.05,.31-.36,.46-.61,.46Zm-51.5-8.11c-.31,0-.62-.21-.72-.51-.62-1.54-1.08-3.08-1.44-4.57-.1-.41,.15-.82,.57-.92,.41-.1,.82,.15,.92,.57,.36,1.44,.82,2.88,1.39,4.36,.15,.41-.05,.87-.46,1.03-.05,.05-.15,.05-.26,.05Zm55.29-.46c-.1,0-.2,0-.3-.05-.41-.15-.62-.62-.47-1.03,.57-1.44,1.13-2.88,1.65-4.36,.15-.41,.56-.62,.97-.46,.41,.15,.62,.56,.47,.98-.52,1.49-1.08,2.93-1.65,4.42-.05,.36-.36,.51-.67,.51Zm-4.87-1.95c-.21,0-.46-.1-.62-.26-.51-.57-1.03-1.18-1.54-1.75-.46-.51-1.03-1.08-1.59-1.64-.31-.31-.31-.77,0-1.08,.31-.31,.77-.31,1.08,0,.61,.62,1.18,1.18,1.64,1.69,.51,.57,1.03,1.18,1.54,1.74,.26,.31,.26,.82-.1,1.08-.05,.15-.26,.21-.41,.21Zm-6.68-6.57c-.15,0-.36-.05-.51-.21-1.13-.98-2.36-1.95-3.59-2.93-.36-.26-.41-.77-.15-1.08,.26-.36,.77-.41,1.08-.15,1.28,.98,2.52,1.95,3.7,2.98,.3,.26,.36,.77,.1,1.08-.15,.21-.36,.31-.62,.31Zm-45.9-.1c-.41,0-.77-.31-.77-.72-.05-.62-.05-1.18-.05-1.75,0-1.08,.1-2.1,.26-3.08,.05-.41,.46-.72,.87-.67,.41,.05,.72,.46,.67,.87-.15,.92-.21,1.85-.21,2.88,0,.51,0,1.08,.05,1.64,.05,.41-.31,.82-.72,.82h-.1Zm60.53-.15c-.06,0-.16,0-.21-.05-.41-.1-.67-.56-.51-.98,.46-1.49,.87-2.98,1.28-4.47,.1-.41,.51-.67,.98-.56,.41,.1,.66,.51,.56,.98-.41,1.54-.82,3.03-1.28,4.52-.16,.36-.47,.57-.82,.57Zm-22.03-5.44c-.15,0-.31-.05-.46-.15-1.28-.87-2.57-1.75-3.85-2.57-.36-.21-.46-.72-.26-1.08,.21-.36,.72-.46,1.08-.26,1.34,.82,2.62,1.69,3.95,2.57,.36,.26,.46,.72,.2,1.08-.2,.31-.41,.41-.67,.41Zm-36.91-3.49c-.1,0-.26-.05-.36-.1-.36-.2-.51-.67-.36-1.03l.15-.26c.77-1.44,1.69-2.67,2.77-3.7,.31-.31,.82-.26,1.08,.05,.31,.31,.26,.82-.05,1.08-.98,.87-1.8,2-2.46,3.29l-.1,.21c-.1,.31-.41,.46-.67,.46Zm61.35-.1h-.16c-.41-.1-.66-.51-.61-.92,.31-1.49,.61-3.03,.92-4.57,.1-.41,.46-.72,.93-.62,.41,.05,.71,.46,.61,.92-.25,1.54-.56,3.08-.92,4.62-.1,.31-.41,.57-.77,.57Zm-32.4-1.33c-.1,0-.26-.05-.36-.1-1.39-.77-2.77-1.44-4.11-2.05-.41-.15-.56-.62-.41-1.03,.15-.41,.62-.57,1.03-.41,1.39,.62,2.77,1.33,4.21,2.11,.36,.21,.51,.67,.31,1.08-.1,.26-.41,.41-.67,.41Zm-8.52-3.8c-.1,0-.15,0-.26-.05-1.54-.51-3.03-.92-4.41-1.18-.41-.1-.72-.51-.62-.92,.1-.41,.51-.72,.92-.62,1.44,.31,3.03,.72,4.62,1.23,.41,.15,.62,.57,.46,.98-.1,.36-.41,.56-.72,.56Zm-13.71-.87c-.31,0-.62-.2-.72-.51-.15-.41,.05-.87,.46-.98,1.44-.51,3.08-.82,4.83-.82,.41,0,.77,.36,.77,.77s-.36,.77-.77,.77c-1.59,.05-3.03,.26-4.31,.72-.1,0-.21,.05-.26,.05Zm56.27-3.18h-.1c-.41-.05-.72-.46-.67-.87,.21-1.54,.41-3.08,.57-4.62,.05-.41,.41-.72,.87-.72,.41,.05,.72,.41,.72,.87-.16,1.54-.36,3.13-.57,4.67-.1,.36-.46,.67-.82,.67Zm.93-9.29c-.47-.05-.83-.41-.78-.82,.11-1.54,.16-3.08,.21-4.62,0-.41,.36-.77,.77-.77s.77,.36,.77,.82c-.05,1.59-.1,3.18-.2,4.67,0,.41-.36,.72-.77,.72Zm.25-9.34c-.41,0-.77-.36-.77-.77,0-1.54-.05-3.08-.15-4.62,0-.41,.31-.77,.72-.82,.41,0,.82,.31,.82,.72,.1,1.54,.15,3.13,.15,4.67,0,.46-.36,.82-.77,.82Zm-.46-9.34c-.41,0-.72-.31-.77-.72-.15-1.54-.31-3.08-.46-4.62-.05-.41,.25-.82,.66-.87,.42-.05,.83,.26,.88,.67,.2,1.54,.36,3.13,.51,4.67,.05,.41-.26,.82-.72,.82l-.1,.05Zm-1.18-9.24c-.36,0-.72-.26-.77-.67-.26-1.49-.51-3.03-.82-4.57-.11-.41,.2-.82,.61-.92,.41-.1,.82,.21,.93,.62,.31,1.54,.56,3.08,.82,4.62,.05,.41-.21,.82-.67,.87,0,.05-.05,.05-.1,.05Zm-1.8-9.19c-.36,0-.67-.26-.77-.62-.36-1.49-.72-3.03-1.13-4.52-.1-.41,.16-.82,.57-.98,.41-.1,.82,.15,.97,.57,.41,1.54,.77,3.03,1.13,4.57,.1,.41-.15,.82-.56,.92-.05,.05-.11,.05-.21,.05Zm-2.36-9.04c-.36,0-.67-.21-.77-.57-.46-1.49-.92-2.98-1.44-4.42-.15-.41,.11-.87,.46-.98,.42-.15,.88,.1,.98,.46,.51,1.49,.98,2.98,1.44,4.47,.1,.41-.1,.82-.52,.98-.05,.05-.1,.05-.15,.05Zm-3.03-8.83c-.31,0-.61-.2-.72-.51-.56-1.44-1.13-2.93-1.69-4.31-.16-.41,0-.87,.41-1.03,.41-.15,.87,0,1.03,.41,.61,1.44,1.18,2.93,1.74,4.36,.16,.41-.05,.87-.46,1.03-.1,.05-.21,.05-.31,.05Zm-3.59-8.62c-.31,0-.57-.15-.72-.46-.62-1.39-1.28-2.82-2-4.21-.21-.41-.05-.87,.36-1.03,.41-.21,.87-.05,1.02,.36,.67,1.39,1.39,2.82,2,4.26,.16,.41,.01,.87-.41,1.03-.05,0-.15,.05-.25,.05Zm-4.11-8.42c-.26,0-.56-.15-.67-.41-.72-1.39-1.49-2.72-2.26-4.06-.2-.36-.1-.87,.31-1.08,.36-.21,.87-.1,1.08,.31,.77,1.33,1.54,2.72,2.26,4.11,.2,.36,.05,.87-.31,1.08-.15,.05-.31,.05-.41,.05Zm-4.67-8.11c-.26,0-.51-.15-.67-.36-.82-1.33-1.64-2.62-2.52-3.9-.26-.36-.15-.82,.21-1.08,.36-.26,.82-.15,1.08,.21,.87,1.28,1.69,2.62,2.52,3.95,.21,.36,.1,.82-.26,1.08-.05,.1-.2,.1-.36,.1Zm-5.13-7.8c-.26,0-.46-.1-.62-.31-.87-1.23-1.8-2.51-2.72-3.75-.26-.36-.21-.82,.15-1.08,.36-.26,.82-.21,1.08,.15,.92,1.23,1.85,2.52,2.77,3.8,.26,.36,.15,.82-.21,1.08-.15,.05-.31,.1-.46,.1Zm-5.6-7.44c-.21,0-.46-.1-.62-.31-.98-1.18-1.95-2.41-2.98-3.59-.26-.31-.26-.82,.1-1.08,.31-.26,.82-.26,1.08,.1,1.03,1.18,2,2.41,2.98,3.59,.26,.36,.21,.82-.1,1.08-.1,.15-.31,.21-.46,.21Zm-6.06-7.09c-.21,0-.41-.1-.57-.26-1.03-1.13-2.1-2.26-3.18-3.39-.31-.31-.31-.82,0-1.08,.31-.31,.82-.31,1.08,0,1.08,1.13,2.16,2.26,3.23,3.44,.31,.31,.26,.82-.05,1.08-.15,.1-.36,.21-.51,.21Zm-6.52-6.72c-.21,0-.41-.05-.57-.21-1.13-1.08-2.26-2.16-3.39-3.18-.31-.31-.36-.77-.05-1.08s.77-.36,1.08-.05c1.13,1.03,2.31,2.1,3.44,3.18,.31,.31,.31,.77,0,1.08-.1,.21-.31,.26-.51,.26Zm-6.93-6.26c-.15,0-.36-.05-.51-.21-1.18-1.03-2.41-2-3.59-2.93-.36-.26-.41-.77-.1-1.08,.26-.36,.77-.41,1.08-.1,1.23,.98,2.41,1.95,3.65,2.98,.31,.26,.36,.77,.1,1.08-.15,.15-.41,.26-.62,.26Zm-7.29-5.8c-.15,0-.31-.05-.46-.15-1.23-.92-2.51-1.85-3.8-2.72-.36-.26-.46-.72-.21-1.08s.72-.46,1.08-.21c1.28,.87,2.57,1.8,3.8,2.72,.36,.26,.41,.72,.15,1.08-.1,.26-.36,.36-.57,.36Zm-7.7-5.29c-.15,0-.31-.05-.41-.1-1.28-.82-2.62-1.64-3.95-2.41-.36-.21-.51-.72-.26-1.08,.2-.36,.72-.51,1.08-.26,1.33,.82,2.67,1.64,4.01,2.46,.36,.26,.46,.72,.26,1.08-.21,.15-.46,.31-.72,.31Zm-8.06-4.77c-.1,0-.26-.05-.36-.1-1.34-.72-2.72-1.49-4.11-2.16-.36-.21-.57-.67-.36-1.03,.21-.36,.67-.57,1.03-.36,1.39,.72,2.77,1.44,4.16,2.16,.36,.2,.51,.67,.31,1.08-.1,.26-.36,.41-.67,.41Zm-8.32-4.21c-.1,0-.21,0-.31-.05-1.39-.62-2.82-1.28-4.26-1.85-.41-.15-.57-.62-.41-1.03,.15-.41,.62-.56,1.03-.41,1.44,.62,2.88,1.23,4.31,1.9,.41,.15,.56,.62,.36,1.03-.15,.26-.46,.41-.72,.41Zm-8.68-3.54c-.1,0-.2,0-.26-.05-1.44-.51-2.93-1.03-4.36-1.54-.41-.15-.62-.57-.51-.98,.15-.41,.57-.62,.97-.51,1.49,.46,2.98,1.03,4.47,1.54,.41,.15,.62,.62,.46,.98-.15,.36-.41,.56-.77,.56Zm-8.88-2.93c-.05,0-.15,0-.21-.05-1.49-.41-2.98-.82-4.52-1.18-.41-.1-.67-.51-.57-.92,.1-.41,.51-.67,.92-.57,1.54,.36,3.03,.77,4.57,1.23,.41,.1,.67,.56,.51,.98-.05,.31-.36,.51-.72,.51Z"/><path class="cls-14" d="M772.86,396.39c.41,1.9,.51,3.9,1.13,5.75,.62,1.9,1.85,3.65,3.39,4.93,1.69,1.44,3.9,1.95,5.65,3.29,3.7,2.88,3.65,7.91,3.8,12.17,.1,2.98,.41,6.32,2.31,8.73,1.75,2.21,2.21,5.49,1.28,8.11-1.54,4.57-5.7,5.75-9.81,7.24-1.85,.67-3.8,1.33-5.8,1.39-3.08,0-6.01-1.59-7.85-4.01-1.85-2.36-2.72-5.39-2.72-8.42,0-2.82-.46-4.77-3.23-6.26-1.8-.98-4.26-1.18-5.8-2.57-1.59-1.44-3.54-2.46-5.18-3.85-1.64-1.28-2.98-2.93-4.06-4.72-3.59-6.06-4.98-17.4,2.77-21,2.36-1.08,4.78-.67,6.98-2.31,1.7-1.28,2.88-3.18,4.52-4.42,1.69-1.28,4.21-1.59,6.21-1.18,2.41,.51,4.52,2.21,5.6,4.36,.41,.92,.67,1.85,.82,2.77Z"/><path class="cls-20" d="M748.22,421.03c-12.53,9.09-13.71,36.09-30.19,36.45-10.52,.26-16.89-13.3-18.22-16.12-6.78,1.49-11.35,2.82-11.35,2.82,0,0,3.44,27.88,25.36,31.73,14.63,2.57,21.41-4.93,26.85-15.76,6.57-12.99,11.55-42.05,7.55-39.12Z"/><path class="cls-4" d="M726.6,647.23l-1.44,5.85-4.47-.46,.92-7.96,4.98,2.57Z"/><path class="cls-17" d="M721.01,650.93c.36,.72,1.13,1.75,2.41,1.64,.82-.05,1.8-1.39,2.46-.72,.62,.72,1.23,2,1.13,3.39-.05,1.03-.31,1.64-2.11,2-1.8,.36-12.07-.05-12.07-.05,0,0-1.95-.21-2-1.03,0-1.03,.36-1.03,1.8-1.85,1.33-.77,5.13-2.31,6.31-2.82,.92-.51,1.64-1.34,2.05-.57Z"/><path class="cls-17" d="M777.89,492.6s-37.63,133.33-51.13,155.61c-1.9,.1-6.11-.36-6.11-.36,0,0,4.88-125.22,12.53-159.72,17.51,5.9,44.72,4.47,44.72,4.47Z"/><path class="cls-4" d="M802.07,647.23l1.44,5.85,4.47-.46-.98-7.96-4.93,2.57Z"/><path class="cls-17" d="M807.67,650.93c-.36,.72-1.13,1.75-2.41,1.64-.82-.05-1.8-1.39-2.46-.72-.62,.72-1.23,2-1.13,3.39,.05,1.03,.31,1.64,2.1,2,1.8,.36,12.06-.05,12.06-.05,0,0,1.95-.21,2-1.03,0-1.03-.36-1.03-1.8-1.85-1.34-.77-5.13-2.31-6.32-2.82-.92-.51-1.64-1.34-2.05-.57Z"/><path class="cls-8" d="M752.22,491.88s36.19,134.05,49.7,156.33c1.9,.1,6.11-.36,6.11-.36,0,0-4.88-125.22-12.53-159.72-17.51,5.9-43.28,3.75-43.28,3.75Z"/><path class="cls-1" d="M760.39,415.9s-5.13-.77-10.88,14.22c-5.7,14.99-18.79,56.17-20.07,66.54,12.47,4.42,52.93,16.38,63.1-1.03-4.42-17.61-15.45-86.35-32.14-79.73Z"/><path class="cls-3" d="M764.39,415.69s28.13,105.5,20.84,171.37c12.89-.72,17.1,5.75,31.27,3.03-.97-8.98-9.55-99.91-22.95-125.88-13.35-25.93-14.32-37.58-15.3-40.76-1.59-5.19-13.86-7.75-13.86-7.75Z"/><path class="cls-3" d="M760.13,415.9s-22.54,65.2-16.94,171.78c-12.89-.72-23.77,7.03-27.67,2.41,.98-8.98,.92-89.74,15.2-125.42,10.88-27.11,14.32-37.58,15.3-40.76,1.59-5.18,14.12-8.01,14.12-8.01Z"/><path class="cls-4" d="M762.59,412.36l2.26,.93s-.62,3.64-.92,4.52c-.31,.92-2.31,1.85-3.03,.87-.72-.97-.77-2.41-1.03-3.95-.41-2.05,2.72-2.36,2.72-2.36Z"/><path class="cls-4" d="M765.83,402.96c-2.05-1.8-8.88-2.93-11.14-.1,0,0-1.59,6.16,.56,10.06,2.21,3.9,7.7,4.31,9.65,.26,1.9-3.95,2.36-8.98,.92-10.22Z"/><path class="cls-14" d="M756.43,403.01s5.9,6.98,12.37,5.9c6.93,.51,.72-9.75,.72-9.75l-14.17-2.93-5.44,8.93s-1.34,3.95-1.13,4.06c.21,.1,5.96,2.05,7.65-6.21Z"/><path class="cls-5" d="M775.58,431.61l-4.72-1.49s2-3.23,2.82-4.31c-6.62-9.86-9.34-10.06-9.34-10.06,0,0,7.29,27.42,13.5,62.99,2.52-22.54-2.26-47.13-2.26-47.13Z"/><path class="cls-5" d="M750.84,426.01c.82,1.08,2.88,4.31,2.88,4.31l-4.72,1.54s-6.57,25.21-2,47.13v-.1c5.29-40.4,13.09-63.05,13.09-63.05,0,0-.05,0-.15,.05-.57,.26-3.34,1.49-9.09,10.11Z"/><path class="cls-18" d="M577.88,381.81c-12.17,23.31-6.16,50.47,13.35,60.68,19.56,10.22,45.23-.41,57.4-23.72,12.17-23.31,6.16-50.47-13.35-60.68-19.51-10.22-45.23,.41-57.4,23.72Zm67.61,35.27c-11.24,21.51-34.81,31.47-52.57,22.18-17.76-9.29-23.05-34.29-11.86-55.81,11.24-21.51,34.81-31.47,52.57-22.18,17.76,9.29,23.05,34.29,11.86,55.81Z"/><path class="cls-3" d="M645.49,417.08c-11.24,21.51-34.81,31.47-52.57,22.18-17.76-9.29-23.05-34.29-11.86-55.81,11.24-21.51,34.81-31.47,52.57-22.18,17.76,9.29,23.05,34.29,11.86,55.81Z"/><path class="cls-2" d="M588.66,372.52l-8.01,55.14c2.77,4.62,6.57,8.47,11.3,11.14l7.14-74.95c-3.75,2.26-7.29,5.18-10.42,8.68Z"/><path class="cls-2" d="M605.8,360.45l-9.96,80.14c1.9,.77,3.9,1.28,5.85,1.64l7.65-83.01c-1.23,.36-2.41,.77-3.54,1.23Z"/><path class="cls-2" d="M625.57,358.45c-.41,18.74-1.18,53.34-1.75,80.29,4.98-2.41,9.65-5.96,13.71-10.32l-6.37-68.28c-1.8-.77-3.7-1.34-5.6-1.69Z"/><path class="cls-18" d="M648.06,415.69l49.95,23.36-4.47,8.62-47.75-27.62,2.26-4.36Z"/><path class="cls-18" d="M855.57,523.04l-3.13,6.01c-1.59,3.08-5.44,4.26-8.52,2.67l-158.69-82.86c-4.77-2.46-6.62-8.37-4.11-13.09,2.46-4.77,8.37-6.62,13.09-4.11l158.64,82.86c3.13,1.54,4.36,5.39,2.72,8.52Z"/><path class="cls-4" d="M760.13,464.16s-2.82-.77-4.93-4.31c-1.85-3.18-9.86-6.83-12.53-2.93,2.05,1.08,2.77,1.49,4.31,2.26,1.69,.87,.82,3.18,1.34,4.93,.51,1.69,3.03,5.85,9.7,5.29,4.01-.36,2.1-5.24,2.1-5.24Z"/><path class="cls-22" d="M775.12,419.85s35.27,22.33,28.85,48.46c-4.57,18.58-36.86,14.43-48.77,2.93l3.08-10.11s22.85,6.01,26.59,0c2.62-4.21,3.03-8.52-3.65-13.91-3.49-2.82-6.11-27.36-6.11-27.36Z"/><path class="cls-21" d="M178.26,291.44h80.04c3.29,0,7.65-.15,10.11-2.67,2.21-2.26,1.59-5.96,.31-8.52-.92-1.8-2.57-3.54-4.52-4.21-3.18-1.08-5.95,.41-9.03,1.18-5.49,1.33-9.65-2.16-11.4-7.08-1.49-4.16-3.54-8.42-6.98-11.35-3.64-3.08-9.09-3.75-13.3-1.28-5.24,3.03-7.91,8.88-12.63,12.58-8.62,6.72-21.72,8.83-31.37,2.93-4.83-2.98-10.99-7.86-16.53-3.23-1.85,1.54-2.72,3.64-2.93,5.85-.26,3.23,.98,6.78,2.88,9.24,2.31,2.88,7.96,6.57,15.35,6.57Z"/></svg>