<?xml version="1.0" encoding="UTF-8" standalone="no"?>
<!DOCTYPE svg PUBLIC "-//W3C//DTD SVG 1.1//EN" "http://www.w3.org/Graphics/SVG/1.1/DTD/svg11.dtd">
<svg width="100%" height="100%" viewBox="0 0 37 25" version="1.1" xmlns="http://www.w3.org/2000/svg" xmlns:xlink="http://www.w3.org/1999/xlink" xml:space="preserve" xmlns:serif="http://www.serif.com/" style="fill-rule:evenodd;clip-rule:evenodd;stroke-linejoin:round;stroke-miterlimit:2;">
    <path d="M18.054,0C11.937,0 4.014,7.159 0.678,10.426C-0.226,11.329 -0.226,12.789 0.678,13.692C4.014,16.959 11.937,24.118 18.054,24.118C24.17,24.118 32.093,16.959 35.43,13.692C36.333,12.789 36.333,11.329 35.43,10.426C32.093,7.159 24.17,0 18.054,0ZM18.054,20.434C13.466,20.434 9.713,16.681 9.713,12.094C9.713,7.506 13.466,3.753 18.054,3.753C22.641,3.753 26.394,7.506 26.394,12.094C26.394,16.681 22.641,20.434 18.054,20.434Z" style="fill:rgb(43,144,220);fill-rule:nonzero;"/>
    <path d="M22.293,12.024C22.293,14.387 20.416,16.264 18.053,16.264C15.69,16.264 13.814,14.387 13.814,12.024C13.814,9.661 15.69,7.785 18.053,7.785C20.416,7.785 22.293,9.731 22.293,12.024Z" style="fill:rgb(43,144,220);fill-rule:nonzero;"/>
    <g transform="matrix(1.07957,-0.664516,0.698921,1.13547,-15.2734,-4.2153)">
        <path d="M31,23.5C31,22.672 30.293,22 29.422,22L1.578,22C0.707,22 0,22.672 0,23.5C0,24.328 0.707,25 1.578,25L29.422,25C30.293,25 31,24.328 31,23.5Z" style="fill:rgb(43,144,220);"/>
    </g>
</svg>
