<svg width="37" height="25" viewBox="0 0 37 25" fill="none" xmlns="http://www.w3.org/2000/svg">
<path d="M18.0537 0C11.9373 0 4.01386 7.15892 0.677664 10.4256C-0.225888 11.3292 -0.225888 12.7888 0.677664 13.6923C4.01386 16.959 11.9373 24.118 18.0537 24.118C24.17 24.118 32.0935 16.959 35.4297 13.6923C36.3332 12.7888 36.3332 11.3292 35.4297 10.4256C32.0935 7.15892 24.17 0 18.0537 0ZM18.0537 20.4342C13.4664 20.4342 9.71319 16.681 9.71319 12.0937C9.71319 7.50645 13.4664 3.75324 18.0537 3.75324C22.6409 3.75324 26.3942 7.50645 26.3942 12.0937C26.3942 16.681 22.6409 20.4342 18.0537 20.4342Z" fill="#2B90DC"/>
<path d="M22.293 12.0244C22.293 14.3875 20.4164 16.2641 18.0533 16.2641C15.6902 16.2641 13.8135 14.3875 13.8135 12.0244C13.8135 9.66126 15.6902 7.78467 18.0533 7.78467C20.4164 7.78467 22.293 9.73076 22.293 12.0244Z" fill="#2B90DC"/>
</svg>
