<svg width="22" height="22" viewBox="0 0 22 22" fill="none" xmlns="http://www.w3.org/2000/svg">
<path d="M18.7654 3.2357C17.6118 2.07309 16.2114 1.18416 14.6676 0.63453C13.1239 0.084904 11.4762 -0.111369 9.84634 0.0602054C4.79493 0.568835 0.638189 4.66536 0.0738633 9.71042C-0.68316 16.3776 4.47836 22 10.9888 22C13.0673 22 15.1031 21.411 16.8598 20.3014C18.6165 19.1917 20.0218 17.6071 20.9126 15.7315C21.3531 14.8105 20.6924 13.752 19.6739 13.752C19.1646 13.752 18.6829 14.0269 18.4626 14.4805C17.6635 16.1975 16.2967 17.5873 14.5921 18.416C12.8875 19.2447 10.9491 19.4617 9.10308 19.0307C6.04746 18.3571 3.5837 15.869 2.93679 12.8172C2.66485 11.6106 2.668 10.3583 2.946 9.15312C3.224 7.94789 3.76974 6.82051 4.54285 5.85435C5.31595 4.88819 6.29665 4.10798 7.4124 3.57142C8.52815 3.03487 9.75041 2.7557 10.9888 2.75457C13.2736 2.75457 15.3107 3.70309 16.7972 5.20149L14.7188 7.27724C13.8517 8.14329 14.4573 9.62794 15.6823 9.62794H20.6236C21.3806 9.62794 22 9.00933 22 8.25326V3.31818C22 2.09472 20.5135 1.47612 19.6463 2.34216L18.7654 3.2357Z" fill="#959595"/>
</svg>
