<svg width="24" height="25" viewBox="0 0 24 25" fill="none" xmlns="http://www.w3.org/2000/svg">
<path d="M20 8.33333H22.6667C23.0203 8.33333 23.3594 8.45876 23.6095 8.68202C23.8595 8.90527 24 9.20808 24 9.52381V23.8095C24 24.1253 23.8595 24.4281 23.6095 24.6513C23.3594 24.8746 23.0203 25 22.6667 25H1.33333C0.979711 25 0.640573 24.8746 0.390524 24.6513C0.140476 24.4281 0 24.1253 0 23.8095V9.52381C0 9.20808 0.140476 8.90527 0.390524 8.68202C0.640573 8.45876 0.979711 8.33333 1.33333 8.33333H4V7.14286C4 5.24845 4.84285 3.43164 6.34315 2.09209C7.84344 0.752549 9.87827 0 12 0C14.1217 0 16.1566 0.752549 17.6569 2.09209C19.1571 3.43164 20 5.24845 20 7.14286V8.33333ZM17.3333 8.33333V7.14286C17.3333 5.87992 16.7714 4.66871 15.7712 3.77568C14.771 2.88265 13.4145 2.38095 12 2.38095C10.5855 2.38095 9.22896 2.88265 8.22876 3.77568C7.22857 4.66871 6.66667 5.87992 6.66667 7.14286V8.33333H17.3333ZM10.6667 15.4762V17.8571H13.3333V15.4762H10.6667ZM5.33333 15.4762V17.8571H8V15.4762H5.33333ZM16 15.4762V17.8571H18.6667V15.4762H16Z" fill="#2B90DC"/>
</svg>
