<?xml version="1.0" encoding="UTF-8"?><svg id="_層_1" xmlns="http://www.w3.org/2000/svg" xmlns:xlink="http://www.w3.org/1999/xlink" viewBox="0 0 1114.88 655.18"><defs><style>.cls-1{fill:#f2eee8;}.cls-2{fill:#00577a;}.cls-3{fill:#00c3d9;}.cls-4{fill:#005d8f;}.cls-5{fill:#67768c;}.cls-6,.cls-7{fill:#f0f0f0;}.cls-8{fill:#eaeef5;}.cls-9,.cls-10,.cls-11,.cls-12,.cls-13,.cls-14{fill:#fff;}.cls-15{fill:#f3896e;}.cls-16{fill:#f39a82;}.cls-17{fill:#ffadaf;}.cls-18{fill:#e4e6ea;}.cls-19{fill:#fecb22;}.cls-20{fill:#ff2e56;}.cls-21{fill:#d7e6f1;}.cls-22{fill:#dfe3e6;}.cls-23{fill:#e16524;}.cls-24{fill:#1f3947;}.cls-25{fill:#1f3247;}.cls-26{fill:#404d5c;}.cls-27,.cls-28{fill:#3ebef8;}.cls-29{fill:#6d8394;}.cls-30,.cls-31{fill:#58667d;}.cls-32{fill:#2b209a;}.cls-33{fill:#4a5e69;}.cls-34{fill:#3a40a9;}.cls-35{fill:#7787a1;}.cls-10,.cls-31{opacity:.2;}.cls-10,.cls-31,.cls-11,.cls-12,.cls-7,.cls-13,.cls-14,.cls-28{isolation:isolate;}.cls-11,.cls-36{opacity:.3;}.cls-12,.cls-37{opacity:.7;}.cls-7,.cls-38{opacity:.5;}.cls-13{opacity:.25;}.cls-14,.cls-28,.cls-39{opacity:.4;}.cls-40{fill:url(#_命名漸層);}.cls-41{opacity:.9;}.cls-42{fill:url(#_命名漸層_2);}.cls-43{fill:url(#_命名漸層_3);}.cls-44{fill:url(#_命名漸層_4);}.cls-45{fill:url(#_命名漸層_5);}</style><linearGradient id="_命名漸層" x1="1069.89" y1="203.25" x2="1026.03" y2="189.5" gradientTransform="translate(0 656) scale(1 -1)" gradientUnits="userSpaceOnUse"><stop offset="0" stop-color="#bcbec1"/><stop offset=".36" stop-color="#d9dadc"/><stop offset=".76" stop-color="#f5f5f6"/><stop offset="1" stop-color="#fff"/></linearGradient><linearGradient id="_命名漸層_2" x1="1058.34" y1="123.63" x2="1069.05" y2="206.61" gradientTransform="translate(0 656) scale(1 -1)" gradientUnits="userSpaceOnUse"><stop offset="0" stop-color="#bcbec1"/><stop offset=".36" stop-color="#d9dadc"/><stop offset=".76" stop-color="#f5f5f6"/><stop offset="1" stop-color="#fff"/></linearGradient><linearGradient id="_命名漸層_3" x1="1133.06" y1="180.19" x2="1026.94" y2="89.49" gradientTransform="translate(0 656) scale(1 -1)" gradientUnits="userSpaceOnUse"><stop offset="0" stop-color="#bcbec1"/><stop offset=".36" stop-color="#d9dadc"/><stop offset=".76" stop-color="#f5f5f6"/><stop offset="1" stop-color="#fff"/></linearGradient><linearGradient id="_命名漸層_4" x1="1050.94" y1="582.14" x2="1050.94" y2="548.77" gradientTransform="translate(0 656) scale(1 -1)" gradientUnits="userSpaceOnUse"><stop offset="0" stop-color="#fff"/><stop offset="1" stop-color="#aae5f2"/></linearGradient><linearGradient id="_命名漸層_5" x1="347.94" y1="536.45" x2="347.94" y2="504.15" gradientTransform="translate(0 656) scale(1 -1)" gradientUnits="userSpaceOnUse"><stop offset="0" stop-color="#fff"/><stop offset="1" stop-color="#aae5f2"/></linearGradient></defs><g class="cls-37"><path class="cls-11" d="M159.85,266.43v67.52c0,2.85-2.32,5.16-5.17,5.16H87.17c-2.85,0-5.17-2.31-5.17-5.16v-67.52c0-2.85,2.31-5.17,5.17-5.17h67.52c2.85,.03,5.17,2.31,5.17,5.17Z"/><path class="cls-13" d="M180.71,220.96v49.65c0,2.09-1.69,3.78-3.78,3.78h-49.65c-2.09,0-3.78-1.69-3.78-3.78v-49.65c0-2.09,1.69-3.78,3.78-3.78h49.65c2.09-.03,3.78,1.69,3.78,3.78Z"/><path class="cls-10" d="M135.77,194.59v40.82c0,1.72-1.38,3.1-3.1,3.1h-40.82c-1.72,0-3.1-1.38-3.1-3.1v-40.82c0-1.72,1.38-3.11,3.1-3.11h40.82c1.72,0,3.1,1.38,3.1,3.11Z"/></g><g class="cls-41"><path class="cls-9" d="M348.09,317.38c-1.1,0-1.98-.88-1.98-1.98s.88-1.98,1.98-1.98,1.98,.88,1.98,1.98-.9,1.98-1.98,1.98Z"/><path class="cls-9" d="M348.09,309.16c-1.1,0-1.98-.88-1.98-1.98v-.03c0-1.1,.88-1.98,1.98-1.98s1.98,.88,1.98,1.98v.03c0,1.07-.9,1.98-1.98,1.98Zm0-8.27c-1.1,0-1.98-.88-1.98-1.98v-.03c0-1.1,.88-1.98,1.98-1.98s1.98,.88,1.98,1.98v.03c0,1.1-.9,1.98-1.98,1.98Zm0-8.24c-1.1,0-1.98-.88-1.98-1.98v-.03c0-1.1,.88-1.98,1.98-1.98s1.98,.88,1.98,1.98v.03c0,1.07-.9,1.98-1.98,1.98Zm0-8.27c-1.1,0-1.98-.88-1.98-1.97v-.03c0-1.1,.88-1.98,1.98-1.98s1.98,.88,1.98,1.98v.03c0,1.1-.9,1.97-1.98,1.97Zm0-8.24c-1.1,0-1.98-.88-1.98-1.98v-.03c0-1.1,.88-1.98,1.98-1.98s1.98,.88,1.98,1.98v.03c0,1.1-.9,1.98-1.98,1.98Zm0-8.24c-1.1,0-1.98-.88-1.98-1.98v-.03c0-1.1,.88-1.98,1.98-1.98s1.98,.88,1.98,1.98v.03c0,1.07-.9,1.98-1.98,1.98Zm0-8.27c-1.1,0-1.98-.88-1.98-1.98v-.03c0-1.1,.88-1.98,1.98-1.98s1.98,.88,1.98,1.98v.03c0,1.1-.9,1.98-1.98,1.98Zm0-8.24c-1.1,0-1.98-.88-1.98-1.98v-.03c0-1.1,.88-1.98,1.98-1.98s1.98,.88,1.98,1.98v.03c0,1.07-.9,1.98-1.98,1.98Zm0-8.27c-1.1,0-1.98-.88-1.98-1.98v-.03c0-1.1,.88-1.98,1.98-1.98s1.98,.88,1.98,1.98v.03c0,1.1-.9,1.98-1.98,1.98Z"/><path class="cls-9" d="M348.09,234.87c-1.1,0-1.98-.88-1.98-1.98v-.03c0-1.1,.88-1.98,1.98-1.98s1.98,.88,1.98,1.98c0,.79-.48,1.5-1.16,1.81-.25,.11-.54,.2-.82,.2Z"/><path class="cls-9" d="M475.79,234.87c-1.1,0-1.98-.88-1.98-1.98s.88-1.98,1.98-1.98h.03c1.1,0,1.98,.88,1.98,1.98-.03,1.07-.9,1.98-2,1.98Zm-7.96,0c-1.1,0-1.98-.88-1.98-1.98s.88-1.98,1.98-1.98h.03c1.1,0,1.98,.88,1.98,1.98-.03,1.07-.93,1.98-2,1.98Zm-7.99,0c-1.1,0-1.98-.88-1.98-1.98s.88-1.98,1.98-1.98h.03c1.1,0,1.98,.88,1.98,1.98-.03,1.07-.9,1.98-2,1.98Zm-7.99,0c-1.1,0-1.98-.88-1.98-1.98s.88-1.98,1.98-1.98h.03c1.1,0,1.98,.88,1.98,1.98-.03,1.07-.9,1.98-2,1.98Zm-7.99,0c-1.1,0-1.98-.88-1.98-1.98s.88-1.98,1.98-1.98h.03c1.1,0,1.98,.88,1.98,1.98-.03,1.07-.9,1.98-2,1.98Zm-7.96,0c-1.1,0-1.98-.88-1.98-1.98s.88-1.98,1.98-1.98h.03c1.1,0,1.98,.88,1.98,1.98-.03,1.07-.93,1.98-2,1.98Zm-7.99,0c-1.1,0-1.98-.88-1.98-1.98s.88-1.98,1.98-1.98h.03c1.1,0,1.98,.88,1.98,1.98-.03,1.07-.9,1.98-2,1.98Zm-7.99,0c-1.1,0-1.98-.88-1.98-1.98s.88-1.98,1.98-1.98h.03c1.1,0,1.98,.88,1.98,1.98-.03,1.07-.9,1.98-2,1.98Zm-7.99,0c-1.1,0-1.98-.88-1.98-1.98s.88-1.98,1.98-1.98h.03c1.1,0,1.98,.88,1.98,1.98-.03,1.07-.9,1.98-2,1.98Zm-7.96,0c-1.1,0-1.98-.88-1.98-1.98s.88-1.98,1.98-1.98h.03c1.1,0,1.98,.88,1.98,1.98-.03,1.07-.93,1.98-2,1.98Zm-7.99,0c-1.1,0-1.98-.88-1.98-1.98s.88-1.98,1.98-1.98h.03c1.1,0,1.98,.88,1.98,1.98-.03,1.07-.93,1.98-2,1.98Zm-7.99,0c-1.1,0-1.98-.88-1.98-1.98s.88-1.98,1.98-1.98h.03c1.1,0,1.98,.88,1.98,1.98-.03,1.07-.9,1.98-2,1.98Zm-7.99,0c-1.1,0-1.98-.88-1.98-1.98s.88-1.98,1.98-1.98h.03c1.1,0,1.98,.88,1.98,1.98-.03,1.07-.9,1.98-2,1.98Zm-7.99,0c-1.1,0-1.97-.88-1.97-1.98s.88-1.98,1.97-1.98h.03c1.1,0,1.98,.88,1.98,1.98-.03,1.07-.9,1.98-2.01,1.98Zm-7.96,0c-1.1,0-1.98-.88-1.98-1.98s.88-1.98,1.98-1.98h.03c1.1,0,1.98,.88,1.98,1.98-.03,1.07-.93,1.98-2,1.98Zm-7.99,0c-1.1,0-1.97-.88-1.97-1.98s.88-1.98,1.97-1.98h.03c1.1,0,1.98,.88,1.98,1.98-.03,1.07-.9,1.98-2.01,1.98Z"/><path class="cls-9" d="M483.77,234.87c-1.1,0-1.98-.88-1.98-1.98s.88-1.98,1.98-1.98,1.98,.88,1.98,1.98-.9,1.98-1.98,1.98Z"/></g><path class="cls-9" d="M787.78,307.41h-.25s.03,.03,.06,.03c-.03,.03-.06,.03-.06,.03h.25l-.03-.03s.03,0,.03-.03Z"/><g class="cls-41"><path class="cls-9" d="M714.11,234.87c-1.1,0-1.98-.88-1.98-1.98s.88-1.98,1.98-1.98,1.98,.88,1.98,1.98-.9,1.98-1.98,1.98Z"/><path class="cls-9" d="M812.33,234.87c-1.1,0-1.98-.88-1.98-1.98s.88-1.98,1.98-1.98h.03c1.1,0,1.98,.88,1.98,1.98-.03,1.07-.9,1.98-2,1.98Zm-8.19,0c-1.1,0-1.98-.88-1.98-1.98s.88-1.98,1.98-1.98h.03c1.1,0,1.98,.88,1.98,1.98-.03,1.07-.9,1.98-2,1.98Zm-8.18,0c-1.1,0-1.98-.88-1.98-1.98s.88-1.98,1.98-1.98h.03c1.1,0,1.98,.88,1.98,1.98-.03,1.07-.9,1.98-2,1.98Zm-8.19,0c-1.1,0-1.98-.88-1.98-1.98s.88-1.98,1.98-1.98h.03c1.1,0,1.98,.88,1.98,1.98-.03,1.07-.9,1.98-2,1.98Zm-8.19,0c-1.1,0-1.98-.88-1.98-1.98s.88-1.98,1.95-1.98h.03c1.1,0,1.98,.88,1.98,1.98s-.88,1.98-1.98,1.98Zm-8.19,0c-1.1,0-1.97-.88-1.97-1.98s.88-1.98,1.97-1.98h.03c1.1,0,1.98,.88,1.98,1.98-.03,1.07-.9,1.98-2.01,1.98Zm-8.18,0h-.03c-1.1,0-1.98-.88-1.98-1.98s.88-1.98,1.98-1.98h.03c1.1,0,1.98,.88,1.98,1.98s-.88,1.98-1.98,1.98Zm-8.19,0c-1.1,0-1.98-.88-1.98-1.98s.88-1.98,1.98-1.98h.03c1.1,0,1.98,.88,1.98,1.98-.03,1.07-.9,1.98-2,1.98Zm-8.19,0c-1.1,0-2-.88-2-1.98s.88-1.98,1.98-1.98h.03c1.1,0,1.98,.88,1.98,1.98s-.9,1.98-1.98,1.98Zm-8.18,0c-1.1,0-1.98-.88-1.98-1.98s.88-1.98,1.98-1.98h.03c1.1,0,1.98,.88,1.98,1.98-.03,1.07-.93,1.98-2,1.98Zm-8.19,0c-1.1,0-1.98-.88-1.98-1.98s.88-1.98,1.98-1.98h.03c1.1,0,1.98,.88,1.98,1.98-.03,1.07-.93,1.98-2,1.98Zm-8.19,0c-1.1,0-1.98-.88-1.98-1.98s.88-1.98,1.98-1.98h.03c1.1,0,1.98,.88,1.98,1.98-.03,1.07-.93,1.98-2,1.98Z"/><path class="cls-9" d="M820.52,234.87c-1.1,0-1.98-.88-1.98-1.98s.88-1.98,1.98-1.98,1.98,.88,1.98,1.98-.9,1.98-1.98,1.98Z"/></g><path class="cls-14" d="M418.72,250.9c.52-2.18-.84-4.37-3.02-4.89-2.18-.52-4.37,.84-4.89,3.02-.52,2.18,.84,4.37,3.02,4.89,2.18,.52,4.37-.84,4.89-3.02Z"/><path class="cls-12" d="M431.63,252.8c1.59-1.59,1.59-4.16,0-5.75-1.59-1.59-4.16-1.59-5.75,0-1.59,1.59-1.59,4.16,0,5.75,1.59,1.59,4.16,1.59,5.75,0Z"/><path class="cls-9" d="M446.73,250.9c.52-2.18-.84-4.37-3.02-4.89-2.18-.52-4.37,.84-4.89,3.02-.52,2.18,.84,4.37,3.02,4.89,2.18,.52,4.37-.84,4.89-3.02Z"/><path class="cls-9" d="M175.12,244.89c-.45,0-.88-.23-1.1-.65-.34-.62-.14-1.38,.45-1.72l28.57-16.49c.62-.34,1.38-.14,1.72,.45,.34,.62,.14,1.38-.45,1.72l-28.54,16.51c-.2,.11-.42,.17-.65,.17Z"/><path class="cls-9" d="M175.12,277.86c-.23,0-.45-.06-.62-.17l-28.57-16.48c-.4-.23-.62-.65-.62-1.1v-33c0-.45,.25-.88,.62-1.1l28.57-16.48c.4-.23,.88-.23,1.27,0l28.56,16.48c.4,.23,.62,.65,.62,1.1v33c0,.45-.25,.88-.62,1.1l-28.56,16.48c-.2,.11-.42,.17-.65,.17Zm-27.29-18.49l27.29,15.75,27.29-15.75v-31.53l-27.29-15.75-27.29,15.75v31.53Z"/><path class="cls-9" d="M175.12,277.86c-.71,0-1.27-.57-1.27-1.27v-32.23l-27.95-16.12c-.62-.34-.82-1.13-.45-1.72,.34-.62,1.13-.82,1.72-.45l28.59,16.46c.4,.23,.62,.65,.62,1.1v33c0,.68-.57,1.24-1.27,1.24Z"/><path class="cls-9" d="M139.84,219.88c-.79,0-1.41-.62-1.41-1.41v-9.15c0-.79,.62-1.41,1.41-1.41h9.12c.79,0,1.41,.62,1.41,1.41s-.62,1.41-1.41,1.41h-7.73v7.73c.03,.79-.62,1.41-1.38,1.41Z"/><path class="cls-9" d="M210.43,279.3h-9.15c-.79,0-1.41-.62-1.41-1.41s.62-1.41,1.41-1.41h7.73v-7.73c0-.79,.62-1.41,1.41-1.41s1.41,.62,1.41,1.41v9.15c0,.79-.65,1.41-1.41,1.41Z"/><path class="cls-9" d="M446.43,222.31c1.13,.88,2.2,1.55,3.5,1.89l3.73-4.23c1.16,.34,2.46,.68,3.84,.79l1.78,5.45c.59-.06,1.3-.14,1.95-.17,.65,.03,1.38,0,1.92-.22l.48-5.9c1.3-.23,2.46-.85,3.58-1.64l4.63,3.53c1.1-.79,2.06-1.72,2.91-2.77l-3.02-5c.79-1.07,1.44-1.98,1.95-3.3l5.7,.11c.42-1.33,.65-2.79,.79-3.92l-5.33-2.23c-.03-.73-.06-1.44-.06-1.98-.11-.62-.28-1.38-.31-1.92l4.63-3.44c-.48-1.27-.99-2.31-1.69-3.56l-5.65,1.3c-.73-1.07-1.64-2.03-2.6-2.79l1.81-5.56c-1.1-.65-2.23-1.52-3.5-1.89l-3.7,4.43c-1.18-.54-2.54-.88-3.87-.96l-1.75-5.45c-.65,.06-1.3,.11-2.03,.25-.57,.14-1.3,.23-1.89,.17l-.45,5.87c-1.33,.37-2.46,1.04-3.58,1.64l-4.63-3.53c-1.1,.82-2.06,1.72-2.91,2.77l2.96,5c-.76,1.13-1.44,2.26-1.89,3.3l-5.73,.17c-.48,1.02-.65,2.51-.79,3.76l5.34,2.23c-.03,.73-.06,1.33,.03,1.86,.11,.76,.25,1.44,.37,1.92l-4.63,3.44c.45,1.41,.9,2.48,1.64,3.58l5.62-1.35c.82,1.1,1.67,2.03,2.57,2.79l-1.69,5.56Zm2.26-16.6c-.65-5.53,3.36-10.61,8.89-11.15,5.53-.57,10.47,3.39,11.18,8.95,.59,5.53-3.39,10.47-8.95,11.18-5.48,.59-10.42-3.41-11.12-8.98Z"/><path class="cls-9" d="M480.9,196.9c1.13,.9,2.26,1.58,3.58,1.95l3.81-4.32c1.19,.34,2.51,.68,3.92,.79l1.81,5.56c.62-.06,1.33-.14,1.98-.17,.68,.03,1.41,0,1.95-.23l.51-6.01c1.3-.22,2.48-.88,3.67-1.66l4.71,3.61c1.1-.82,2.12-1.75,2.96-2.82l-3.08-5.08c.82-1.1,1.47-2,1.98-3.36l5.82,.11c.42-1.35,.65-2.85,.82-4.01l-5.45-2.26c-.03-.73-.06-1.47-.06-2-.11-.62-.28-1.41-.34-1.98l4.71-3.5c-.48-1.3-.99-2.37-1.72-3.61l-5.73,1.33c-.73-1.1-1.66-2.06-2.62-2.85l1.84-5.65c-1.1-.65-2.26-1.55-3.59-1.95l-3.75,4.52c-1.21-.54-2.6-.88-3.92-.99l-1.78-5.53c-.65,.06-1.33,.14-2.09,.25-.59,.14-1.33,.23-1.92,.17l-.45,5.98c-1.36,.37-2.48,1.04-3.64,1.67l-4.71-3.61c-1.1,.85-2.09,1.75-2.96,2.82l3.02,5.08c-.76,1.13-1.47,2.29-1.92,3.39l-5.84,.17c-.48,1.04-.68,2.54-.79,3.81l5.45,2.26c-.03,.76-.06,1.33,.03,1.89,.11,.76,.25,1.47,.37,1.95l-4.71,3.5c.48,1.44,.93,2.51,1.69,3.67l5.7-1.38c.82,1.1,1.69,2.06,2.62,2.85l-1.86,5.65Zm2.29-16.91c-.65-5.65,3.44-10.81,9.06-11.38,5.65-.59,10.67,3.44,11.38,9.12,.62,5.64-3.47,10.67-9.09,11.4-5.62,.59-10.61-3.5-11.35-9.15Z"/><g class="cls-38"><path class="cls-9" d="M272.44,209.32h-48.69v4.26h48.69v-4.26Z"/><path class="cls-9" d="M272.44,218.55h-48.69v4.26h48.69v-4.26Z"/><path class="cls-9" d="M272.44,227.76h-48.69v4.26h48.69v-4.26Z"/><path class="cls-9" d="M260.39,236.99h-36.64v4.26h36.64v-4.26Z"/></g><path class="cls-11" d="M1077.94,133h-257.42V476.77h257.42V133Z"/><g class="cls-37"><path class="cls-11" d="M395.43,364.82h-67.52c-2.85,0-5.17-2.31-5.17-5.17v-67.52c0-2.85,2.32-5.16,5.17-5.16h67.52c2.85,0,5.17,2.31,5.17,5.16v67.52c0,2.88-2.31,5.17-5.17,5.17Z"/><path class="cls-13" d="M440.93,385.68h-49.65c-2.09,0-3.78-1.69-3.78-3.78v-49.65c0-2.09,1.69-3.78,3.78-3.78h49.65c2.09,0,3.78,1.69,3.78,3.78v49.65c0,2.09-1.69,3.78-3.78,3.78Z"/><path class="cls-10" d="M467.27,340.75h-40.82c-1.72,0-3.11-1.38-3.11-3.11v-40.82c0-1.72,1.38-3.11,3.11-3.11h40.82c1.72,0,3.1,1.38,3.1,3.11v40.82c0,1.72-1.38,3.11-3.1,3.11Z"/></g><path class="cls-5" d="M392.8,484.76H137.8v-181.95c0-2.99,2.43-5.39,5.39-5.39h244.22c2.99,0,5.39,2.43,5.39,5.39v181.95Z"/><path class="cls-24" d="M418.07,499.44H110.9c-8.1,0-14.68-6.58-14.68-14.68H432.69c.03,8.1-6.52,14.68-14.62,14.68Z"/><path class="cls-4" d="M378.97,309.61H151.66v175.15h227.31v-175.15Z"/><path class="cls-25" d="M378.97,309.61H151.66v22.58h227.31v-22.58Z"/><path class="cls-25" d="M198.97,309.61h-47.31v175.15h47.31v-175.15Z"/><path class="cls-8" d="M378.97,309.61H151.66v8.16h227.31v-8.16Z"/><path class="cls-26" d="M192.48,430.45h-34.35v4.88h34.35v-4.88Z"/><path class="cls-26" d="M192.48,438.75h-34.35v4.88h34.35v-4.88Z"/><path class="cls-26" d="M192.48,447.02h-34.35v4.88h34.35v-4.88Z"/><path class="cls-26" d="M192.48,455.29h-34.35v4.88h34.35v-4.88Z"/><path class="cls-26" d="M192.48,463.56h-34.35v4.88h34.35v-4.88Z"/><path class="cls-26" d="M192.48,471.86h-34.35v4.88h34.35v-4.88Z"/><path class="cls-23" d="M166.91,332.22h-8.78v8.78h8.78v-8.78Z"/><path class="cls-26" d="M179.69,332.22h-8.78v8.78h8.78v-8.78Z"/><path class="cls-26" d="M192.48,332.22h-8.78v8.78h8.78v-8.78Z"/><path class="cls-26" d="M166.91,344.95h-8.78v8.78h8.78v-8.78Z"/><path class="cls-26" d="M179.69,344.95h-8.78v8.78h8.78v-8.78Z"/><path class="cls-26" d="M192.48,344.95h-8.78v8.78h8.78v-8.78Z"/><path class="cls-26" d="M166.91,357.71h-8.78v8.78h8.78v-8.78Z"/><path class="cls-26" d="M179.69,357.71h-8.78v8.78h8.78v-8.78Z"/><path class="cls-26" d="M192.48,357.71h-8.78v8.78h8.78v-8.78Z"/><path class="cls-26" d="M166.91,370.44h-8.78v8.78h8.78v-8.78Z"/><path class="cls-26" d="M179.69,370.44h-8.78v8.78h8.78v-8.78Z"/><path class="cls-26" d="M192.48,370.44h-8.78v8.78h8.78v-8.78Z"/><g class="cls-36"><g class="cls-39"><path class="cls-27" d="M378.94,346.99H198.97c-.31,0-.57-.25-.57-.56s.25-.57,.57-.57h180c.31,0,.57,.25,.57,.57s-.28,.56-.59,.56Z"/><path class="cls-27" d="M378.94,362.45H198.97c-.31,0-.57-.25-.57-.56s.25-.57,.57-.57h180c.31,0,.57,.25,.57,.57s-.28,.56-.59,.56Z"/><path class="cls-27" d="M378.94,377.95H198.97c-.31,0-.57-.25-.57-.57s.25-.56,.57-.56h180c.31,0,.57,.25,.57,.56s-.28,.57-.59,.57Z"/><path class="cls-27" d="M378.94,393.42H198.97c-.31,0-.57-.25-.57-.57s.25-.56,.57-.56h180c.31,0,.57,.25,.57,.56s-.28,.57-.59,.57Z"/><path class="cls-27" d="M378.94,408.89H198.97c-.31,0-.57-.25-.57-.56s.25-.57,.57-.57h180c.31,0,.57,.25,.57,.57s-.28,.56-.59,.56Z"/><path class="cls-27" d="M378.94,424.38H198.97c-.31,0-.57-.25-.57-.56s.25-.57,.57-.57h180c.31,0,.57,.25,.57,.57s-.28,.56-.59,.56Z"/><path class="cls-27" d="M378.94,439.85H198.97c-.31,0-.57-.25-.57-.56s.25-.57,.57-.57h180c.31,0,.57,.25,.57,.57s-.28,.56-.59,.56Z"/><path class="cls-27" d="M378.94,455.32H198.97c-.31,0-.57-.25-.57-.57s.25-.56,.57-.56h180c.31,0,.57,.25,.57,.56s-.28,.57-.59,.57Z"/><path class="cls-27" d="M378.94,470.82H198.97c-.31,0-.57-.25-.57-.56s.25-.56,.57-.56h180c.31,0,.57,.25,.57,.56s-.28,.56-.59,.56Z"/></g><g class="cls-39"><path class="cls-27" d="M338.44,485.8c-.31,0-.57-.25-.57-.56v-152.57c0-.31,.25-.56,.57-.56s.56,.25,.56,.56v152.57c0,.31-.25,.56-.56,.56Z"/><path class="cls-27" d="M322.94,485.8c-.31,0-.56-.25-.56-.56v-152.56c0-.31,.25-.57,.56-.57s.57,.25,.57,.57v152.56c0,.31-.25,.56-.57,.56Z"/><path class="cls-27" d="M307.47,485.8c-.31,0-.57-.25-.57-.56v-152.56c0-.31,.25-.57,.57-.57s.56,.25,.56,.57v152.56c0,.31-.25,.56-.56,.56Z"/><path class="cls-27" d="M291.98,485.8c-.31,0-.57-.25-.57-.56v-152.56c0-.31,.25-.57,.57-.57s.56,.25,.56,.57v152.56c0,.31-.25,.56-.56,.56Z"/><path class="cls-27" d="M276.51,485.8c-.31,0-.57-.25-.57-.56v-152.56c0-.31,.25-.57,.57-.57s.56,.25,.56,.57v152.56c0,.31-.25,.56-.56,.56Z"/><path class="cls-27" d="M261.04,485.8c-.31,0-.56-.25-.56-.56v-152.57c0-.31,.25-.56,.56-.56s.57,.25,.57,.56v152.57c0,.31-.25,.56-.57,.56Z"/><path class="cls-27" d="M245.55,485.8c-.31,0-.57-.25-.57-.56v-152.56c0-.31,.25-.57,.57-.57s.56,.25,.56,.57v152.56c0,.31-.25,.56-.56,.56Z"/><path class="cls-27" d="M230.08,485.8c-.31,0-.56-.25-.56-.56v-152.56c0-.31,.25-.57,.56-.57s.57,.25,.57,.57v152.56c0,.31-.25,.56-.57,.56Z"/><path class="cls-27" d="M214.58,485.8c-.31,0-.56-.25-.56-.56v-152.57c0-.31,.25-.56,.56-.56s.57,.25,.57,.56v152.57c0,.31-.25,.56-.57,.56Z"/></g><g class="cls-39"><path class="cls-27" d="M369.37,485.8c-.31,0-.56-.25-.56-.56v-152.56c0-.31,.25-.57,.56-.57s.57,.25,.57,.57v152.56c0,.31-.25,.56-.57,.56Z"/><path class="cls-27" d="M353.91,485.8c-.31,0-.56-.25-.56-.56v-152.56c0-.31,.25-.57,.56-.57s.57,.25,.57,.57v152.56c0,.31-.25,.56-.57,.56Z"/></g></g><path class="cls-28" d="M260.39,347.07h-44.94v14.14h44.94v-14.14Z"/><g class="cls-38"><path class="cls-9" d="M376.77,240.51v18.83l12.64-9.43-12.64-9.4Z"/><path class="cls-9" d="M358.39,240.51v18.83l12.62-9.43-12.62-9.4Z"/></g><path class="cls-9" d="M778.15,219.94c-11.94,0-21.62-9.71-21.62-21.62s9.71-21.62,21.62-21.62,21.62,9.71,21.62,21.62-9.71,21.62-21.62,21.62Zm0-39.88c-10.05,0-18.23,8.18-18.23,18.23s8.18,18.23,18.23,18.23,18.23-8.18,18.23-18.23-8.18-18.23-18.23-18.23Z"/><path class="cls-9" d="M776.23,206.02c-.42,0-.88-.17-1.19-.51l-6.32-6.32c-.65-.65-.65-1.72,0-2.4,.65-.65,1.72-.65,2.4,0l5.14,5.14,10.9-10.9c.65-.65,1.72-.65,2.4,0,.65,.65,.65,1.72,0,2.4l-12.08,12.08c-.4,.34-.82,.51-1.24,.51Z"/><path class="cls-24" d="M726.8,210.45h-230.53c-4.97,0-9.03,4.04-9.03,9.03V498.98h25.12l1.75-13.49h194.85l1.75,13.49h25.12V219.49c0-5-4.04-9.03-9.03-9.03Zm-213.34,26.22h196.2v197.78h-196.2V236.68Z"/><path class="cls-29" d="M551.01,427.01h-17.98v7.45h17.98v-7.45Z"/><path class="cls-29" d="M690.08,427.01h-17.98v7.45h17.98v-7.45Z"/><path class="cls-29" d="M620.59,236.68h-18.07v197.78h18.07V236.68Z"/><path class="cls-24" d="M603.17,317.71h17.41v-76.18h-18.07v76.21c.23-.03,.42-.03,.65-.03Z"/><path class="cls-2" d="M703.69,416.62h-184.23v10.36h184.23v-10.36Z"/><path class="cls-33" d="M709.65,444.51h-68.48v32.26h68.48v-32.26Z"/><path class="cls-24" d="M657.99,458.76h-8.58c-.4,0-.73-.34-.73-.73v-8.55c0-.4,.34-.73,.73-.73h8.58c.4,0,.73,.34,.73,.73v8.58c0,.39-.34,.71-.73,.71Z"/><path class="cls-24" d="M672.47,458.76h-8.58c-.4,0-.73-.34-.73-.73v-8.55c0-.4,.34-.73,.73-.73h8.58c.4,0,.73,.34,.73,.73v8.58c0,.39-.34,.71-.73,.71Z"/><path class="cls-24" d="M686.95,458.76h-8.58c-.4,0-.73-.34-.73-.73v-8.55c0-.4,.34-.73,.73-.73h8.58c.4,0,.73,.34,.73,.73v8.58c-.03,.39-.34,.71-.73,.71Z"/><path class="cls-24" d="M701.4,458.76h-8.58c-.4,0-.73-.34-.73-.73v-8.55c0-.4,.34-.73,.73-.73h8.58c.4,0,.73,.34,.73,.73v8.58c0,.39-.31,.71-.73,.71Z"/><path class="cls-24" d="M657.99,472.51h-8.58c-.4,0-.73-.34-.73-.73v-8.58c0-.39,.34-.73,.73-.73h8.58c.4,0,.73,.34,.73,.73v8.58c0,.42-.34,.73-.73,.73Z"/><path class="cls-24" d="M672.47,472.51h-8.58c-.4,0-.73-.34-.73-.73v-8.58c0-.39,.34-.73,.73-.73h8.58c.4,0,.73,.34,.73,.73v8.58c0,.42-.34,.73-.73,.73Z"/><path class="cls-24" d="M686.95,472.51h-8.58c-.4,0-.73-.34-.73-.73v-8.58c0-.39,.34-.73,.73-.73h8.58c.4,0,.73,.34,.73,.73v8.58c-.03,.42-.34,.73-.73,.73Z"/><path class="cls-24" d="M701.4,472.51h-8.58c-.4,0-.73-.34-.73-.73v-8.58c0-.39,.34-.73,.73-.73h8.58c.4,0,.73,.34,.73,.73v8.58c0,.42-.31,.73-.73,.73Z"/><path class="cls-24" d="M625.98,279.61h-29.58v29.58h29.58v-29.58Z"/><path class="cls-24" d="M625.98,236.68h-29.58v5.22h29.58v-5.22Z"/><path class="cls-24" d="M669.37,317.74h-116.35v5.96h116.35v-5.96Z"/><path class="cls-9" d="M586.27,416.62h50.55c4.77,0,8.89-14.59,9.82-20.1,1.86-11.12,3.47-14.59,3.64-26.73,.28-23.48-12.17-25.07-21.17-20.97,0,0-10.47,2.2-17.56,2.2s-17.53-2.2-17.56-2.2c-9-4.09-21.48-2.51-21.17,20.97,.14,12.14,1.75,15.61,3.64,26.73,.9,5.53,5.02,20.1,9.8,20.1Z"/><path class="cls-6" d="M632.39,406.2c-3.02,.25-6.07-.2-9-1.16-.76,0-1.5-.03-2.26-.06-7.48-.39-15.1-2.14-21.48-6.24-6.32-4.04-11.66-9.88-14.73-16.77-1.81-4.06-3.3-8.13-4.12-12.5-.9-4.94-1.41-9.96-1.41-14.99,0-2.23,.59-4.29,1.61-6.12-4.74,2.46-8.33,8.75-8.19,21.45,.14,12.14,1.75,15.61,3.64,26.73,.93,5.5,5.02,20.1,9.82,20.1h50.55c3.56,0,6.72-8.04,8.5-14.45-.06,.03-.08,.06-.14,.08-3.95,2.43-8.19,3.53-12.79,3.92Z"/><path class="cls-9" d="M975.65,231.82h50.56c4.77,0,8.89-14.59,9.82-20.1,1.86-11.12,3.47-14.59,3.64-26.73,.28-23.49-12.17-25.07-21.17-20.97,0,0-10.47,2.2-17.56,2.2s-17.53-2.2-17.55-2.2c-9.01-4.09-21.48-2.51-21.17,20.97,.14,12.14,1.78,15.61,3.64,26.73,.9,5.5,5.02,20.1,9.79,20.1Z"/><path class="cls-6" d="M1027.76,221.57c-8.24,5.67-18.41,8.3-28.26,6.04-8.83-2.03-15.75-8.44-20.72-15.72-2.43-3.56-4.12-7.54-5.65-11.54-1.24-3.25-2.14-6.6-2.74-10.02-1.58-9-1.75-17.78,.17-26.76,0-.06,.03-.11,.06-.17-4.88,2.37-8.58,8.64-8.41,21.57,.14,12.14,1.75,15.61,3.64,26.73,.93,5.5,5.02,20.1,9.82,20.1h50.55c3.84,0,7.29-9.48,8.95-16.06-2.31,2.17-4.85,4.07-7.42,5.84Z"/><path class="cls-30" d="M1002.01,231.82h-19.33s1.78,14.37,2.71,29.24c.96,15.07,8.3,49.09,9.49,54.39,.08,.42,.48,.71,.96,.71h10.28c.45,0,.87-.28,.96-.71,1.15-5.31,8.52-39.32,9.48-54.39,.93-14.88,2.71-29.24,2.71-29.24h-17.25Z"/><path class="cls-31" d="M1021.07,231.82h-40.2l6.72-40.2h26.76l6.72,40.2Z"/><path class="cls-30" d="M1026.09,231.82h-50.32v4.97h50.32v-4.97Z"/><path class="cls-35" d="M1017.2,253.75c-.08,0-.17,0-.28-.03l-32.94-5.36c-.93-.14-1.55-1.02-1.41-1.95,.14-.93,1.02-1.55,1.95-1.41l32.94,5.36c.94,.14,1.56,1.02,1.42,1.95-.15,.85-.85,1.44-1.67,1.44Z"/><path class="cls-35" d="M1017.2,260.81c-.08,0-.17,0-.28-.03l-32.94-5.36c-.93-.14-1.55-1.02-1.41-1.95,.14-.93,1.02-1.55,1.95-1.41l32.94,5.36c.94,.14,1.56,1.02,1.42,1.95-.15,.85-.85,1.44-1.67,1.44Z"/><path class="cls-35" d="M1016.07,267.7c-.09,0-.17,0-.28-.03l-30.68-4.94c-.93-.14-1.55-1.02-1.41-1.95,.14-.93,1.02-1.55,1.95-1.41l30.68,4.94c.94,.14,1.56,1.02,1.41,1.95-.11,.85-.84,1.44-1.66,1.44Z"/><path class="cls-35" d="M1015.17,274.64c-.09,0-.17,0-.28-.03l-29.05-4.71c-.93-.14-1.55-1.02-1.41-1.95,.14-.93,1.02-1.55,1.95-1.41l29.04,4.71c.93,.14,1.55,1.02,1.41,1.95-.14,.85-.84,1.44-1.66,1.44Z"/><path class="cls-35" d="M1014.07,281.53c-.09,0-.17,0-.28-.03l-26.9-4.38c-.93-.14-1.55-1.02-1.41-1.95,.14-.93,1.02-1.55,1.95-1.41l26.9,4.38c.93,.14,1.55,1.02,1.41,1.95-.14,.85-.84,1.44-1.66,1.44Z"/><path class="cls-35" d="M1012.85,288.42c-.08,0-.17,0-.28-.03l-24.47-3.98c-.93-.14-1.55-1.02-1.41-1.95,.14-.93,1.02-1.55,1.95-1.41l24.47,3.98c.93,.14,1.55,1.02,1.41,1.95-.14,.85-.85,1.44-1.67,1.44Z"/><path class="cls-35" d="M1011.56,295.27c-.09,0-.17,0-.29-.03l-21.85-3.56c-.93-.14-1.55-1.02-1.41-1.95,.14-.93,1.02-1.55,1.95-1.41l21.85,3.56c.93,.14,1.55,1.02,1.41,1.95-.11,.85-.85,1.44-1.66,1.44Z"/><path class="cls-35" d="M1010.2,302.13c-.08,0-.17,0-.28-.03l-19.11-3.1c-.93-.14-1.55-1.02-1.41-1.95,.14-.93,1.02-1.55,1.95-1.41l19.11,3.1c.94,.14,1.56,1.02,1.42,1.95-.12,.85-.85,1.44-1.67,1.44Z"/><path class="cls-35" d="M1008.82,308.96c-.09,0-.17,0-.28-.03l-16.23-2.62c-.93-.14-1.55-1.02-1.41-1.95,.14-.93,1.02-1.55,1.95-1.41l16.23,2.62c.93,.14,1.56,1.02,1.41,1.95-.14,.85-.84,1.44-1.66,1.44Z"/><path class="cls-35" d="M1006.5,316.08c-.11,0-.22,0-.34-.03l-12.39-2.43c-.93-.17-1.52-1.07-1.33-1.98,.17-.93,1.07-1.52,1.98-1.33l12.39,2.43c.93,.17,1.53,1.07,1.33,1.98-.14,.79-.85,1.36-1.64,1.36Z"/><path class="cls-22" d="M869.75,234.56c1.1,5.19,1.89,12.22,1.89,12.22,0,0,5.28,36.44,11.52,42.88,6.24,6.46,5.93-17.16,5.93-26.34s-.93-15.38,8.21-17.22c9.15,1.83,8.21,8.35,8.21,17.22s-.34,32.8,5.93,26.34c6.24-6.46,11.52-42.88,11.52-42.88,0,0,.79-7,1.89-12.22,.85-4.04-1.98-12.45-5.82-12.45h-43.47c-3.84,0-6.66,8.41-5.81,12.45Z"/><path class="cls-9" d="M872.23,231.82h50.55c4.77,0,8.89-14.59,9.82-20.1,1.86-11.12,3.47-14.59,3.64-26.73,.28-23.49-12.17-25.07-21.17-20.97,0,0-10.47,2.2-17.56,2.2s-17.53-2.2-17.56-2.2c-9.01-4.09-21.48-2.51-21.17,20.97,.14,12.14,1.75,15.61,3.64,26.73,.93,5.5,5.02,20.1,9.79,20.1Z"/><path class="cls-7" d="M923.43,215.14c-8.72,4.77-18.46,6.04-28.17,4.23-1.64-.31-3.22-.76-4.77-1.38-2.51-.99-5.05-2.03-7.34-3.5-4.85-3.19-8.69-7.08-11.88-11.94-1.69-2.57-2.88-5.45-4.04-8.3-.85-2.09-1.5-4.23-1.95-6.41-1.38-6.46-1.81-13.1-1.3-19.67,.08-.99,.23-1.92,.42-2.79-3.42,3.25-5.73,9.31-5.62,19.62,.14,12.14,1.78,15.61,3.64,26.73,.93,5.51,5.03,20.1,9.82,20.1h50.55c4.77,0,8.89-14.59,9.82-20.1,.28-1.75,.59-3.3,.85-4.71-2.85,3.27-6.27,6.04-10.05,8.13Z"/><path class="cls-14" d="M768.11,250.89c.52-2.18-.84-4.37-3.02-4.89-2.18-.52-4.37,.84-4.89,3.02-.52,2.18,.84,4.37,3.02,4.89,2.18,.52,4.37-.84,4.89-3.02Z"/><path class="cls-12" d="M781.01,252.79c1.59-1.59,1.59-4.16,0-5.75-1.59-1.59-4.16-1.59-5.75,0-1.59,1.59-1.59,4.16,0,5.75,1.59,1.59,4.16,1.59,5.75,0Z"/><path class="cls-9" d="M796.12,250.9c.52-2.18-.84-4.37-3.02-4.89-2.18-.51-4.37,.84-4.89,3.02-.52,2.18,.84,4.37,3.02,4.89,2.18,.52,4.37-.84,4.89-3.02Z"/><path class="cls-27" d="M299.54,457.04c-.34,0-.65-.09-.88-.17-2.12-.88-3.27-4.15-3.25-19.02v-2.46c.06-5.48-.08-7.82-4.21-8.72-4.09,.93-4.26,3.25-4.21,8.72v2.46c.03,14.88-1.13,18.18-3.25,19.02-.73,.31-1.89,.37-3.22-1.02-4.46-4.6-7.85-27.44-8.24-30.01v-.08c0-.06-.54-6.97-1.27-10.39-.17-.76,.34-1.52,1.1-1.67,.76-.17,1.52,.34,1.67,1.1,.73,3.47,1.27,10.02,1.33,10.7,1.41,9.8,4.57,25.43,7.45,28.4,.08,.08,.14,.14,.2,.2,.28-.48,.85-1.92,1.16-6.24,.25-3.44,.25-7.39,.25-10.02v-2.43c-.06-5.25-.08-10.22,6.75-11.57,.17-.03,.37-.03,.57,0,6.83,1.38,6.8,6.32,6.75,11.57v2.43c0,2.62,0,6.6,.25,10.02,.31,4.29,.88,5.76,1.16,6.24,.06-.06,.11-.11,.2-.2,2.88-2.99,6.04-18.6,7.45-28.4,.06-.62,.56-6.6,1.33-10.08,.17-.76,.9-1.24,1.67-1.1,.76,.17,1.24,.9,1.1,1.67-.73,3.42-1.27,9.71-1.27,9.77v.08c-.37,2.6-3.78,25.4-8.24,30.01-.9,.9-1.69,1.18-2.34,1.18Z"/><path class="cls-27" d="M309.98,416.82c-.28,0-.59-.08-.85-.28-.62-.45-.76-1.35-.31-1.98,1.78-2.4,3.39-8.13,3.9-11.23,.34-2.09,.68-3.78,.99-5.25,.73-3.7,1.27-6.38,1.35-11.88,.09-6.32-1.33-10.58-4.04-12.36-2.82-1.84-6.32-.57-7.71,.06,0,0-.03,0-.03,.03-.28,.11-7.31,1.52-11.94,1.52s-11.69-1.44-11.88-1.5c-.03,0-.06-.03-.11-.03-1.38-.62-4.91-1.89-7.71-.06-2.74,1.78-4.12,6.07-4.04,12.36,.06,5.5,.59,8.19,1.35,11.88,.31,1.5,.65,3.19,.99,5.25,.51,3.02,2.06,8.64,3.81,11.09,.45,.65,.31,1.52-.34,1.98-.65,.45-1.52,.31-1.98-.34-2.4-3.39-3.92-10.16-4.29-12.25-.34-2.03-.68-3.7-.96-5.17-.73-3.7-1.33-6.63-1.41-12.39-.08-7.42,1.69-12.39,5.34-14.76,2.77-1.81,6.52-1.89,10.27-.23,.99,.2,6.89,1.36,10.95,1.36s9.96-1.16,10.95-1.36c3.78-1.67,7.51-1.58,10.27,.23,3.61,2.37,5.42,7.34,5.33,14.76-.08,5.76-.65,8.69-1.41,12.39-.28,1.47-.62,3.13-.96,5.17-.37,2.17-1.95,9.09-4.4,12.42-.28,.37-.71,.57-1.16,.57Z"/><path class="cls-27" d="M350.66,472.85h-119.62c-.54,0-.99-.45-.99-.99v-51.6c0-.28,.11-.54,.31-.73,.2-.2,.48-.28,.76-.25,.23,.03,22.21,1.98,41.32-3.58,.57-.14,13.38-3.56,18.88-2.94,1.67,.2,4.12,.57,7,.96,6.38,.93,15.1,2.2,20.69,2.43,7.96,.31,31.39-.51,31.61-.51,.28,0,.54,.09,.73,.28,.2,.2,.31,.45,.31,.71v55.24c-.03,.54-.48,.99-1.02,.99Zm-118.64-1.97h117.65v-53.21c-4.63,.14-23.68,.76-30.74,.48-5.67-.23-14.48-1.52-20.89-2.46-2.85-.42-5.31-.79-6.94-.96-5.14-.59-18.01,2.85-18.12,2.88-17.02,4.97-36.24,4.07-40.96,3.73v49.54Z"/><path class="cls-27" d="M324.3,371.57c-.62,0-1.13-.51-1.13-1.13v-8.3h-8.3c-.62,0-1.13-.51-1.13-1.13s.51-1.13,1.13-1.13h9.43c.62,0,1.13,.51,1.13,1.13v9.43c0,.62-.51,1.13-1.13,1.13Z"/><path class="cls-27" d="M262.85,412.58h-9.43c-.62,0-1.13-.51-1.13-1.13v-9.43c0-.62,.51-1.13,1.13-1.13s1.13,.51,1.13,1.13v8.3h8.3c.62,0,1.13,.51,1.13,1.13s-.51,1.13-1.13,1.13Z"/><path class="cls-16" d="M1044.1,405.1c-.59-1.16-2.26-3.13-3.92-4.94-2.4-2.6-5.93-3.87-9.43-3.36l-81.49,11.94v1.78l-.06-1.78-81.49-11.94c-3.5-.51-7.03,.76-9.43,3.36-1.67,1.81-3.36,3.78-3.92,4.94-1.81,3.64-4.21,21.57-2.23,25.49,1.92,3.84,38.08,17.16,95.43,13.89,1.52-.09,3.08-.09,4.63,0,57.3,3.27,92.24-10.05,94.19-13.89,1.92-3.92-.45-21.85-2.29-25.49Z"/><path class="cls-15" d="M1044.1,405.1c-.59-1.16-2.26-3.13-3.92-4.94-.54-.59-1.13-1.1-1.78-1.52,1.13,5.76,.2,11.4-2.46,16.71-2.2,4.4-6.01,7.73-9.96,10.53-3.25,2.29-7.14,3.89-10.92,5.05-3.7,1.1-7.77,1.75-11.63,1.67-2.68-.06-5.37-.51-7.85-1.47-.59-.23-1.21-.48-1.81-.71-.45,.25-.93,.54-1.41,.76-2.96,1.52-6.35,2.54-9.62,3.19-5.7,1.13-11.57,1.58-17.39,1.92-1.78,.11-3.56,.17-5.33,.2-3.87,.48-7.79,.76-11.63,.88-8.3,.23-16.82-.42-24.87-2.43-4.38-1.1-9.03-2.77-13.07-5.25-1.61-.37-3.22-.7-4.85-.99-6.89-.62-13.8,.37-20.72,.17-9.91-.28-20.04-2.65-27.18-9.99-3.67-3.78-4.57-8.98-2.96-13.58,.03-.31,.03-.62,.06-.93-.2,.28-.34,.54-.45,.76-1.81,3.64-4.21,21.57-2.23,25.49,1.92,3.84,38.08,17.16,95.43,13.89,1.52-.08,3.08-.08,4.63,0,57.3,3.27,92.24-10.05,94.19-13.89,1.95-3.95-.42-21.88-2.26-25.52Z"/><path class="cls-15" d="M1037.07,406.04l-2.65-8.69-.28-.37s-.06-.08-.09-.11c-5.47-.57-5.95,1.55-9.51,1.64-.37,0,.23,3.75-.14,3.78-.37,.08-.73,.14-1.1,.23-1.1,.25-2.2,.57-3.3,.79-3.08,.59-6.21,.88-9.32,.79-5.14-.14-10.22-.76-15.35-.79-10.36-.08-20.75-.17-31.11-.39-5.02-.11-10.05-.17-15.07,.2-5.02,.37-10.05,.99-15.07,1.5-10.42,1.04-20.66,.76-31.11,.11-10.78-.68-21.56-.62-32.12-3.22-2.85-.71,1.33-5.79-6.58-4.49l-.28,.37-2.65,8.69c-.31,.79-1.02,2.96-.23,4.86,.42,1.02,1.24,1.81,2.29,2.2,.82,.31,1.84,.48,3.05,.48,.34,0,2.12-.03,3.95-.56,1.07,3.87,2.71,4.23,3.3,4.38,.17,.03,.99,.22,2.15,.22,.71,0,1.41-.08,2.06-.22,.99-.23,1.92-.48,2.79-.82,.14,2.17,.71,4.54,2.2,5.93,.76,.71,1.72,1.07,2.79,1.07,2.03,0,4.18-1.41,5.87-2.88,.34,.73,.76,1.33,1.27,1.81,.76,.71,1.72,1.07,2.79,1.07,2.96,0,6.24-3.02,7.88-4.83,.82,3.42,2.91,8.86,7.14,8.86,.42,0,.85-.06,1.27-.17,2.68-.73,5.5-3.75,7.56-7.23,2,4.49,4.94,5.5,7.14,5.5,3.08,0,5.56-2.65,7.37-5.9,1.33,3.3,3.58,5.9,7.23,5.9,3.39,0,6.1-3.42,7.9-7.17,1.81,3.75,4.52,7.17,7.9,7.17,3.64,0,5.9-2.6,7.23-5.9,1.78,3.22,4.26,5.9,7.37,5.9,3.5,0,5.76-2.37,7.14-5.48,2.06,3.47,4.88,6.49,7.57,7.23,.42,.11,.85,.17,1.27,.17,4.26,0,6.32-5.45,7.14-8.86,1.64,1.81,4.91,4.83,7.88,4.83,1.07,0,2.03-.37,2.79-1.07,.51-.48,.94-1.07,1.27-1.81,1.7,1.47,3.84,2.88,5.88,2.88,1.07,0,2.03-.37,2.79-1.07,1.5-1.38,2.06-3.75,2.2-5.93,.88,.34,1.81,.59,2.8,.82,.64,.14,1.35,.23,2.06,.23,1.15,0,2-.2,2.11-.23,.62-.14,2.29-.54,3.33-4.4,1.84,.54,3.62,.56,3.96,.56,1.21,0,2.23-.17,3.04-.48,1.05-.39,1.87-1.18,2.29-2.2,.99-1.92,.28-4.09-.06-4.88Z"/><path class="cls-16" d="M1042.63,360.51c-.19-2.23-.19-4.6-.17-6.55,.06-2.71-1.41-5.19-3.83-6.41-8.16-4.09-37.86-11.52-89.46-11.52-51.63,.34-81.29,7.42-89.45,11.52-2.4,1.21-3.9,3.73-3.84,6.41,.06,1.95,.03,4.32-.17,6.55-.42,4.85,5.67,15.35,5.67,15.35l87.78,.93,87.78-.93s6.1-10.5,5.67-15.35Z"/><path class="cls-15" d="M905.26,356.33c2.26-2.4,4.83-4.43,7.93-5.87,3.87-1.81,7.76-3.16,11.97-3.87,6.94-1.16,13.86-1.44,20.86-1.55,7.23-.11,14.45-.48,21.71-.17,5.25,.2,10.44,.76,15.64,1.52,3.64,.54,7.31,1.16,10.75,2.46,2.99,1.13,6.04,2.48,8.84,4.15,1.49-.56,3.07-.85,4.65-.93,3.65-.14,7.46,.37,10.96,1.44,3.33,1.02,6.74,2.45,9.59,4.46,3.84,2.68,6.83,5.53,9.43,9.48,.76,1.19,1.38,2.4,1.89,3.64,1.64-3.42,3.42-7.88,3.19-10.56-.2-2.23-.2-4.6-.17-6.55,.06-2.71-1.41-5.19-3.84-6.41-8.15-4.09-37.85-11.52-89.45-11.52-51.63,.34-81.29,7.42-89.45,11.52-2.4,1.21-3.9,3.73-3.84,6.41,.06,1.95,.03,4.35-.17,6.55-.31,3.5,2.82,10.02,4.55,13.32,1.69-6.35,5.67-11.52,11.09-15.19,4.38-2.96,9.62-3.95,14.79-4.49,4.49-.45,9.06,.23,13.46,.96,1.86,.28,3.75,.7,5.62,1.18Z"/><path class="cls-9" d="M866.3,397.91l-2.57,8.38s-1.33,3.11,.59,3.87c1.92,.73,6.66,.11,7.7-1.5,1.05-1.61,4.4-11.23,4.4-11.23,0,0-7.28-3.27-10.13,.48Z"/><path class="cls-1" d="M872.48,396.24c-.03,.06-.06,.08-.08,.14-.09,.14-.2,.31-.28,.45-.03,3.05-.45,6.32-1.69,9.12-1.16,2.6-4.46,4.97-7.06,2.93,.11,.54,.37,1.02,.99,1.27,1.92,.73,6.66,.11,7.71-1.5,1.04-1.61,4.4-11.23,4.4-11.23,0,0-1.83-.85-3.98-1.18Z"/><path class="cls-9" d="M874.35,414.36s1.41,.37,3.08,0c3.92-.85,6.01-2.51,7.57-4.21,1.55-1.67,2.51-11.6,2.51-11.6,0,0-5.67-2.88-8.98-2.85-3.33,.06-6.41,10.05-6.32,11.77,.08,1.72,.88,6.58,2.14,6.89Z"/><path class="cls-1" d="M886.46,397.91c-.51,2.48-1.58,4.6-3.05,6.41-1.75,4.94-5.05,9.6-9.99,9,.25,.57,.57,.96,.9,1.05,0,0,1.41,.37,3.08,0,3.92-.85,6.01-2.51,7.57-4.21,1.27-1.38,2.17-9,2.43-11.57-.31-.23-.62-.45-.93-.68Z"/><path class="cls-9" d="M885.92,398.98l-2.48,12.7s-.88,6.44,1.24,8.38c2.12,1.95,7.42-3.78,7.85-4.49,2.96-4.88,3.36-14.54,3.36-14.54,0,0-1.95-3.39-4.88-3.92-2.94-.54-4.83,.54-5.08,1.86Z"/><path class="cls-1" d="M894.36,399.15c.03,.2,.03,.4,0,.59-.45,3.56-1.24,7.09-2.46,10.47-1.13,3.1-2.77,7.17-6.32,8.13-.65,.17-1.38,.06-1.98-.28,.23,.85,.57,1.58,1.07,2.06,2.12,1.95,7.42-3.78,7.85-4.49,2.96-4.88,3.36-14.54,3.36-14.54,0,0-.56-.99-1.52-1.95Z"/><path class="cls-9" d="M895.88,398.98l-2.48,12.7s-.88,6.44,1.24,8.38c2.12,1.95,7.42-3.78,7.85-4.49,2.96-4.88,3.36-14.54,3.36-14.54,0,0-1.95-3.39-4.88-3.92-2.96-.54-4.83,.54-5.08,1.86Z"/><path class="cls-1" d="M904.38,399.2c-.65,6.01-1.64,16.09-8.33,18.26-1.02,.34-2.2-.17-2.79-1.07,.14,1.47,.51,2.91,1.33,3.67,2.12,1.95,7.42-3.78,7.85-4.49,2.96-4.88,3.36-14.54,3.36-14.54,0,0-.48-.88-1.41-1.83Z"/><path class="cls-9" d="M905,401.63s.56,12.02,.71,14c.14,1.95,2.09,9.8,5.67,8.81s8.72-9.03,8.72-13.69v-9.12s-1.66-4.49-7.54-4.49-7.65,2.68-7.57,4.49Z"/><path class="cls-1" d="M918.69,399.57c0,5.42-.06,11.29-2.03,16.4-.93,2.37-2.4,4.71-4.91,5.59-1.41,.48-2.93,.45-4.29-.03,.93,1.86,2.26,3.33,3.9,2.88,3.59-.99,8.72-9.03,8.72-13.69v-9.12s-.37-.96-1.38-2.03Z"/><path class="cls-9" d="M934.89,408.97c-.23,3.87-4.01,13.66-8.19,13.66-5.5,0-6.66-9.94-6.66-13.66v-9.37c0-.54,1.16-1.86,4.23-1.86h7.48c2.09,0,3.13,1.55,3.13,2.09,0-.03,.17,6.58,0,9.14Z"/><path class="cls-1" d="M934.89,399.8c0-.37-.51-1.24-1.53-1.72-.11,4.21,.85,8.72-.39,12.82-.62,2-2,3.84-3.47,5.33-.73,1.02-1.64,1.89-2.77,2.6-1.61,.99-3.1,1.1-4.43,.65,1.02,1.83,2.43,3.16,4.4,3.16,4.15,0,7.93-9.79,8.19-13.66,.17-2.57,0-9.17,0-9.17Z"/><path class="cls-9" d="M949.18,409.59c-.23,3.67-3.87,13.01-7.88,13.01-5.28,0-6.41-9.46-6.41-13.01v-9.79c0-.51,2.03-1.21,2.62-1.3,3.27-.42,6.58-.06,9.23,0,.59,0,2.45,.79,2.45,1.3-.03,0,.14,7.37-.03,9.79Z"/><path class="cls-1" d="M949.17,399.8c0-.34-.79-.79-1.52-1.04,.14,.34,.23,.73,.2,1.19-.42,5.11-.17,10.53-2.01,15.38-.76,2-1.97,4.01-4.23,4.46-2.2,.45-4.23-.82-5.56-2.48,.93,2.88,2.54,5.31,5.22,5.31,4.01,0,7.65-9.34,7.88-13.01,.2-2.43,.03-9.79,.03-9.79Z"/><path class="cls-9" d="M1032.16,397.91l2.57,8.38s1.33,3.11-.59,3.87c-1.92,.73-6.66,.11-7.71-1.49-1.04-1.61-4.4-11.24-4.4-11.24,0,0,7.28-3.27,10.13,.48Z"/><path class="cls-1" d="M1034.7,406.29l-2.57-8.38c-.45-.62-1.04-1.04-1.69-1.33,1.13,2.71,1.78,5.76,1.55,8.64-.14,1.86-.96,3.98-2.42,4.97,1.66,.34,3.5,.34,4.54-.06,1.92-.73,.59-3.84,.59-3.84Z"/><path class="cls-9" d="M1024.09,414.36s-1.41,.37-3.08,0c-3.92-.85-6.01-2.51-7.56-4.21-1.55-1.67-2.51-11.6-2.51-11.6,0,0,5.67-2.88,8.97-2.85,3.33,.06,6.41,10.05,6.33,11.77-.09,1.72-.85,6.58-2.15,6.89Z"/><path class="cls-1" d="M1019.94,395.7h-.34c.6,.25,1.13,.73,1.41,1.47,1.33,3.42,4.97,17.39-2.06,16.6,.62,.23,1.33,.42,2.09,.56,1.67,.37,3.08,0,3.08,0,1.27-.31,2.09-5.17,2.17-6.89,.06-1.69-3.02-11.69-6.35-11.74Z"/><path class="cls-9" d="M1012.55,398.98l2.48,12.7s.88,6.43-1.24,8.38-7.42-3.78-7.85-4.49c-2.96-4.88-3.36-14.54-3.36-14.54,0,0,1.95-3.39,4.89-3.92,2.93-.54,4.79,.54,5.08,1.86Z"/><path class="cls-1" d="M1015.03,411.71l-2.48-12.7c-.12-.57-.51-1.07-1.16-1.44,.03,.09,.05,.17,.08,.25,.91,4.26,2.04,8.81,2.12,13.18,.06,3.13-1.41,6.49-4.97,6.61-.31,0-.59-.03-.87-.06,1.86,1.75,4.68,3.87,6.07,2.57,2.08-1.98,1.21-8.41,1.21-8.41Z"/><path class="cls-9" d="M1002.58,398.98l2.49,12.7s.87,6.43-1.25,8.38c-2.11,1.95-7.42-3.78-7.84-4.49-2.96-4.88-3.36-14.54-3.36-14.54,0,0,1.95-3.39,4.88-3.92,2.94-.54,4.83,.54,5.08,1.86Z"/><path class="cls-1" d="M1005.07,411.71l-2.49-12.7c-.14-.68-.68-1.27-1.55-1.64,.17,.25,.31,.59,.37,.99,.5,3.56,.36,7.11,.65,10.67,.19,2.34-.03,5.62-2.6,6.66-1.55,.62-2.85,.2-3.92-.88,.14,.28,.28,.54,.45,.79,.42,.71,5.73,6.44,7.84,4.49,2.12-1.95,1.25-8.38,1.25-8.38Z"/><path class="cls-9" d="M993.47,401.63s-.56,12.02-.71,14c-.14,1.95-2.09,9.8-5.67,8.81-3.58-.99-8.72-9.03-8.72-13.69v-9.12s1.67-4.49,7.54-4.49,7.65,2.68,7.56,4.49Z"/><path class="cls-1" d="M991.66,398.5c.06,.31,.06,.68-.03,1.04-.03,.17-.06,.34-.11,.51,.17,5.7,1.16,12.39-2.65,17.08-1.3,1.58-3.02,3.19-5.08,3.61-.37,.08-.71,.08-1.04,.08,1.44,1.83,3.02,3.22,4.38,3.58,3.58,.99,5.53-6.86,5.67-8.81,.14-1.95,.71-14,.71-14,.03-.96-.48-2.17-1.84-3.1Z"/><path class="cls-9" d="M963.54,408.97c.23,3.87,4.01,13.66,8.19,13.66,5.5,0,6.66-9.94,6.66-13.66v-9.37c0-.54-1.21-1.86-3.73-1.86h-8.1c-2.46,.34-2.99,1.21-2.99,1.75-.03-.03-.17,6.92-.03,9.48Z"/><path class="cls-1" d="M977.07,398.22c.11,.57,.2,1.16,.2,1.72,.03,3.11,.2,5.96-.31,9.06-.62,3.9-3.1,8.19-6.89,9.79-.85,.37-1.64,.65-2.43,.85,1.24,1.75,2.65,2.96,4.12,2.96,5.5,0,6.66-9.94,6.66-13.66v-9.37c-.03-.31-.48-.93-1.35-1.36Z"/><path class="cls-9" d="M949.26,409.59c.23,3.67,3.87,13.01,7.88,13.01,5.28,0,6.41-9.46,6.41-13.01v-9.8c0-.51-.54-.68-1.07-.93-1.16-.57-6.12-.57-10.08-.37-1.52,.09-3.16,.79-3.16,1.3,.03,0-.11,7.37,.03,9.8Z"/><path class="cls-1" d="M962.5,398.86c-.06-.03-.11-.06-.2-.08,.42,5.36,.71,11.18-1.78,15.75-.85,2.54-2.54,5.17-5.19,4.23-.45,.03-.9,0-1.35-.11-.85-.2-1.55-.62-2.17-1.16,1.44,2.79,3.36,5.11,5.34,5.11,5.28,0,6.41-9.46,6.41-13.01v-9.8c0-.51-.54-.65-1.04-.93Z"/><path class="cls-15" d="M1023.64,381.2c1.47-.28,2.99-.59,4.4-1.07,1.02-.34,2-.85,3.05-1.1,.93-.23,1.81-.37,2.68-.42,.25-.14,.54-.31,.79-.48,.65-.39,1.3-.82,1.95-1.24,.25-.23,3.5-4.91-1.36-6.75-.19-.06-.39-.06-.59-.06-.59,0-1.16,.14-1.72,.37-.96-1.95-2.6-2.71-4.07-2.94-.19-.03-.42-.06-.62-.06-.84,0-1.66,.25-2.48,.68-.79-2.17-2.51-4.43-5.34-4.43-.95,0-1.91,.28-2.87,.82-.26,.14-.54,.31-.82,.48-.23-.57-.57-1.13-1.05-1.58-.62-.62-1.69-1.38-3.41-1.38-.4,0-.79,.03-1.22,.11-2,.37-4.46,2.03-6.54,4.21-.88-3.42-2.6-5.5-5.45-6.94-.85-.42-1.72-.62-2.65-.62-3.53,0-7.06,3.25-9.2,8.5-.06,.11-.08,.23-.14,.34-1.64-3.56-4.12-6.63-7.76-6.63s-6.32,2.82-7.96,6.32c-3.44-6.6-8.81-6.6-11.63-6.6-5.05,0-8.35,3.22-10.36,6.18-1.98-2.96-5.31-6.18-10.36-6.18-2.82,0-8.18,0-11.63,6.6-1.61-3.5-4.18-6.32-7.96-6.32s-6.12,3.11-7.76,6.63c-.06-.11-.08-.23-.14-.34-2.15-5.25-5.67-8.5-9.2-8.5-.9,0-1.81,.2-2.65,.62-2.85,1.41-4.57,3.53-5.45,6.94-2.09-2.17-4.55-3.87-6.55-4.21-.42-.08-.82-.11-1.21-.11-1.72,0-2.79,.73-3.42,1.38-.48,.48-.79,1.02-1.04,1.58-.28-.17-.54-.34-.82-.48-.96-.54-1.92-.82-2.88-.82-2.82,0-4.54,2.26-5.33,4.43-.79-.4-1.64-.68-2.48-.68-.22,0-.42,.03-.62,.06-1.47,.25-3.1,.99-4.06,2.94-.57-.23-1.16-.37-1.72-.37-.2,0-.4,.03-.59,.06-1.47,.23-3.61,2.94-3.47,3.05,.08,.08,2.23,3.25,3.36,4.49,.51,.56,1.07,1.07,1.61,1.58,.06,.03,.11,.06,.2,.09,.37,.23,.76,.45,1.16,.65,.25,.11,.42,.2,.51,.25,.23,.06,.45,.11,.59,.14,.73,.23,1.47,.4,2.23,.56,.42,.09,.88,.17,1.3,.23l-1.18-.17c.88,.48,2.99,.26,4.01,.31,1.64,.09,3.25,.11,4.88,.17,3.36,.11,6.69,.2,10.05,.28,25.32,.54,50.67-.08,76.01-.28,12.56-.08,25.07,.48,37.62,.65,6.21,.08,12.39,.06,18.6-.48,.12,0,.2-.03,.29-.03,.33-.06,.64-.08,.98-.14,.51-.08,1.02-.17,1.53-.28Z"/><path class="cls-9" d="M862.29,385.88s-.99-6.29-.88-9.99c.03-.93-.25-3.78,2.34-4.21,1.66-.28,5.28,3.3,6.07,5.62,.79,2.31,1.04,7.79,1.04,7.79,0,0-5.22,3.7-6.6,3.42-1.38-.34-1.38-.42-1.98-2.62Z"/><path class="cls-1" d="M869.8,377.27c-.54-1.55-2.31-3.67-3.95-4.8,1.13,5.67-.17,10.67-2.4,15.75,.2,.08,.45,.14,.79,.23,1.35,.28,6.6-3.42,6.6-3.42,0,0-.25-5.45-1.04-7.76Z"/><path class="cls-9" d="M868.42,385.77s-1.16-7.4-1.04-11.77c.03-1.07-.31-4.46,2.77-4.97,1.95-.31,6.21,3.89,7.14,6.61,.93,2.71,1.21,9.14,1.21,9.14,0,0-6.15,4.35-7.76,4.01-1.61-.31-1.61-.4-2.32-3.02Z"/><path class="cls-1" d="M877.28,375.64c-.73-2.15-3.5-5.19-5.62-6.24,1.66,2.85,2.14,6.8,2.34,9.99,.2,3.1-.14,8.13-4.07,8.78-.25,.03-.48,.06-.68,.06,.28,.34,.68,.45,1.44,.62,1.61,.34,7.76-4.01,7.76-4.01,0,0-.25-6.46-1.18-9.2Z"/><path class="cls-9" d="M877.06,385.57s-2.4-10.05-2.23-15.78c.03-1.41,1.44-6.01,5-4.04,2.34,1.3,6.04,4.23,7.25,7.82,1.21,3.56,1.61,12.02,1.61,12.02,0,0-6.46,4.46-8.58,4.01-2.12-.45-2.12-.62-3.05-4.04Z"/><path class="cls-1" d="M881.86,389.3c2.74-.93,6.83-3.75,6.83-3.75,0,0-.4-8.44-1.61-12.02-.79-2.34-2.68-4.43-4.52-5.93,.06,.48,.08,.93,.11,1.41,.96,6.55,1.64,14.11-.82,20.29Z"/><path class="cls-9" d="M885.27,385.32s-1.61-10.27-1.44-16.34c.03-1.5-.59-6.01,3.25-5.33,2.79,.51,7.51,5.16,8.78,8.95,1.27,3.78,1.69,12.73,1.69,12.73,0,0-6.86,4.71-9.09,4.23-2.23-.45-2.23-.59-3.19-4.23Z"/><path class="cls-1" d="M895.89,372.59c-.88-2.6-3.39-5.62-5.76-7.4,2.45,3.11,3.02,7.42,3.1,11.4,.08,3.98,.57,11.83-4.97,12.56-.45,.06-.85,.06-1.21-.03,.34,.17,.82,.28,1.47,.42,2.23,.48,9.09-4.23,9.09-4.23,0,0-.45-8.95-1.72-12.73Z"/><path class="cls-9" d="M900.65,360.7c-2.65,1.33-4.63,3.36-4.77,10.92-.14,7.56,.42,11.88,.42,11.88,0,0-.03,5.19,4.63,6.01,3.13,.56,9.2-3.95,10.5-5.08,1.27-1.13-.42-12.42-2.37-17.16-1.98-4.77-5.39-8.07-8.41-6.58Z"/><path class="cls-1" d="M909.04,367.28c-1.61-3.89-4.21-6.83-6.75-6.94,3.92,2.23,5.02,7.4,5.56,11.52,.56,4.46,.96,10.08-2.57,13.52-1.58,1.55-4.06,2.48-6.27,1.86-.93-.25-1.69-.73-2.26-1.35,.54,1.47,1.67,3.19,4.18,3.61,3.13,.57,9.2-3.95,10.5-5.08,1.27-1.07-.42-12.39-2.4-17.13Z"/><path class="cls-9" d="M924.2,387.58h-9c-2.09,0-3.75-1.58-3.75-3.53,0,0-.17-5.42,0-7.65,.28-3.64,2.96-13.86,7.82-13.86,5.56,0,7.68,10.22,7.82,13.86,.11,2.43,0,8.47,0,8.47,0,1.47-1.3,2.71-2.88,2.71Z"/><path class="cls-1" d="M927.08,376.37c-.11-3.05-1.61-10.64-5.33-13.1,.08,.17,.17,.34,.22,.51,1.84,5.59,5.93,14.99,.71,19.96-2.79,2.68-6.8,2.54-10.56,2.29,.68,.9,1.81,1.5,3.08,1.5h9c1.61,0,2.91-1.21,2.91-2.71-.03,.03,.08-6.01-.03-8.44Z"/><path class="cls-9" d="M938.85,362.23c-3.16,0-8.38,0-10.92,9.23-2.43,8.89-.99,15.66,0,16.51,1.27,1.07,17.36,.85,17.36,.85,0,0,3.92,.03,3.92-5.31v-12.02s-2.93-9.26-10.36-9.26Z"/><path class="cls-1" d="M940.34,362.37c.25,.17,.48,.4,.68,.68,.06,.06,.09,.14,.14,.2,1.13,1.07,1.95,2.46,2.57,3.92,1.24,2.03,2.29,4.21,2.79,6.55,.65,2.99,1.07,7.42-.73,10.16-2.34,3.53-7.76,3.3-11.46,3.67-2.46,.25-5.02,.39-7.03-.85,.2,.65,.42,1.07,.62,1.27,1.27,1.07,17.36,.85,17.36,.85,0,0,3.92,.03,3.92-5.31v-12.02s-2.54-7.99-8.86-9.12Z"/><path class="cls-9" d="M1036.09,385.88s.98-6.29,.87-9.99c-.03-.93,.26-3.78-2.34-4.21-1.67-.28-5.28,3.3-6.07,5.62-.79,2.31-1.04,7.79-1.04,7.79,0,0,5.22,3.7,6.6,3.42,1.38-.34,1.38-.42,1.98-2.62Z"/><path class="cls-1" d="M1036.96,375.89c-.03-.85,.2-3.27-1.69-4.04,.2,.34,.31,.76,.31,1.24,0,3.73,.45,8.55-1.69,11.83-.74,1.1-1.92,1.92-3.14,2.2,1.36,.79,2.77,1.47,3.39,1.36,1.35-.28,1.35-.37,1.97-2.6-.02,0,.96-6.29,.85-9.99Z"/><path class="cls-9" d="M1029.96,385.77s1.16-7.4,1.05-11.77c-.03-1.07,.31-4.46-2.77-4.97-1.95-.31-6.21,3.9-7.14,6.61-.93,2.71-1.22,9.15-1.22,9.15,0,0,6.16,4.35,7.77,4.01,1.61-.31,1.61-.39,2.31-3.02Z"/><path class="cls-1" d="M1030.98,374c-.03-.93,.2-3.47-1.58-4.54v.03c.79,3.9,1.24,8.78-.62,12.45-1.3,2.6-4.63,5.19-7.54,3.39-.34-.2-.62-.45-.88-.73-.16,.03-.31,.06-.48,.06v.17s6.16,4.35,7.77,4.01c1.61-.34,1.61-.42,2.31-3.05,0,0,1.16-7.4,1.02-11.77Z"/><path class="cls-9" d="M1021.33,385.57s2.39-10.05,2.23-15.78c-.03-1.41-1.44-6.01-5-4.04-2.34,1.3-6.04,4.23-7.25,7.82-1.22,3.56-1.61,12.02-1.61,12.02,0,0,6.46,4.46,8.58,4.01,2.11-.45,2.11-.62,3.05-4.04Z"/><path class="cls-1" d="M1023.55,369.79c-.02-1.1-.84-4.06-2.85-4.49,.17,.17,.34,.37,.48,.62,2.09,3.75,1.47,8.61,.23,12.56-1.1,3.47-3.33,8.21-7.48,8.61-.85,.08-1.58-.03-2.23-.25,2.09,1.27,5.22,3.02,6.6,2.74,2.12-.45,2.12-.57,3.05-4.01-.03,0,2.35-10.05,2.2-15.78Z"/><path class="cls-9" d="M1013.14,385.32s1.61-10.27,1.44-16.34c-.03-1.5,.59-6.01-3.25-5.33-2.79,.51-7.51,5.16-8.78,8.95-1.27,3.78-1.69,12.73-1.69,12.73,0,0,6.86,4.71,9.09,4.23,2.23-.48,2.2-.59,3.19-4.23Z"/><path class="cls-1" d="M1012.21,363.58c2.28,3.47,1.52,8.52,.79,12.33-.79,4.01-2.06,7.85-6.13,9.54-1.69,.71-3.64,.88-5.3,.37,1.83,1.19,6.54,4.12,8.32,3.75,2.23-.48,2.23-.62,3.22-4.23,0,0,1.61-10.27,1.44-16.34-.03-1.41,.48-5.31-2.34-5.42Z"/><path class="cls-9" d="M997.73,360.7c2.65,1.33,4.63,3.36,4.77,10.92,.14,7.56-.42,11.88-.42,11.88,0,0,.02,5.19-4.63,6.01-3.13,.56-9.2-3.95-10.5-5.08-1.27-1.13,.42-12.42,2.37-17.16,1.98-4.77,5.42-8.07,8.41-6.58Z"/><path class="cls-1" d="M1002.5,371.63c-.14-7.56-2.09-9.6-4.77-10.92-.28-.14-.57-.23-.85-.28,.4,.2,.76,.57,.99,1.13,1.38,3.19,2.26,6.61,2.85,10.05,.59,3.47,1.13,7.45-.14,10.84-1.7,4.49-6.41,4.8-10.5,3.92-.37-.08-.71-.17-1.04-.28,2.43,1.69,6.15,3.87,8.41,3.47,4.65-.82,4.62-6.01,4.62-6.01,0,0,.57-4.38,.43-11.91Z"/><path class="cls-9" d="M974.22,387.58h9c2.09,0,3.75-1.58,3.75-3.53,0,0,.17-5.42,0-7.65-.28-3.64-2.96-13.86-7.82-13.86-5.56,0-7.68,10.22-7.82,13.86-.11,2.43,0,8.47,0,8.47-.03,1.47,1.27,2.71,2.88,2.71Z"/><path class="cls-1" d="M986.97,376.37c-.28-3.39-2.6-12.42-6.83-13.69,2.6,3.75,3.64,8.84,3.7,13.46,.06,.88,.03,1.75-.09,2.6,0,.17-.03,.37-.03,.54-.25,2.94-1.58,5.62-4.57,6.52-.17,.06-.37,.08-.54,.14-1.02,.34-2.12,.48-3.25,.4-.34-.03-.65-.06-.96-.11-.88,0-1.72,.06-2.57,.2,.51,.7,1.38,1.18,2.37,1.18h9c2.09,0,3.75-1.58,3.75-3.53,0-.03,.17-5.48,0-7.71Z"/><path class="cls-9" d="M959.54,362.23c3.16,0,8.38,0,10.92,9.23,2.43,8.89,.99,15.66,0,16.51-1.27,1.07-17.36,.85-17.36,.85,0,0-3.92,.03-3.92-5.31v-12.02s2.96-9.26,10.36-9.26Z"/><path class="cls-1" d="M970.46,371.49c-2.15-7.9-6.3-9.03-9.43-9.2,3.73,.99,6.15,4.29,7.31,8.05,1.16,3.75,1.61,9.06-.45,12.62-2.15,3.7-7.17,5.08-11.12,5.45-1.84,.17-3.92,.11-5.84-.42,1.04,.85,2.23,.85,2.23,.85,0,0,16.06,.25,17.36-.85,.93-.82,2.37-7.59-.06-16.48Z"/><path class="cls-21" d="M550.87,655.18c304.24,0,550.87-5.86,550.87-13.09s-246.63-13.09-550.87-13.09S0,634.86,0,642.09s246.63,13.09,550.87,13.09Z"/><path class="cls-17" d="M1086.15,470.49c42.97,43.79-41.02,59.35-41.95,82.4-1.69,42.66-4.41,46.26-2.41,77.52-1.29,2.67-4.26,1.85-4.26,1.85,0,0-14.79-36.76-18.02-90.36-1.44-24.03,23.41-43.33,33.98-52.67,15.61-13.81,23.26-16.99,32.66-18.74Z"/><path class="cls-17" d="M1111.1,484.1c16.22,59.14-88.25,34.55-101.5,54.88-23.31,35.78-32.75,48.31-38.66,64.02-2.05,1.9-4.78,.05-4.78,.05,0,0,4.93-38.81,28.18-87.17,10.42-21.67,41.54-26.44,55.35-29.47,20.38-4.57,52.41-5.39,61.4-2.31Z"/><path class="cls-3" d="M1111.1,484.1s12.68,28.9-18.9,37.07c-27.26,9.86-39.53,23.82-40.91,48.93-11.97,3.13-58.84,2.82-76.4-18.17,.36-7.5,8.47-44.97,34.71-54.32,20.23-7.24,37.53-9.96,39.94-15.25,35.68-8.73,61.56,1.74,61.56,1.74Z"/><path class="cls-9" d="M1072.85,421.57s-11.86,25.36-12.63,43.02-9.86,26.08-40.82,42.15c-30.95,16.07-38.81,54.73-42.4,69.98-10.06-6.06-11.4-13.14-10.17-17.46,1.23-4.31,9.7-48.77,33.58-62.43,23.87-13.66,53.44-11.96,55.75-30.75,2.42-20.69,10.17-36.3,16.69-44.51Z"/><path class="cls-34" d="M1037.22,631.24c.67,.46,1.8,1.03,2.87,.36,.67-.46,.98-2.11,1.85-1.75,.88,.31,2.06,1.23,2.57,2.47,.41,.92,.51,1.59-.92,2.77-1.44,1.18-10.73,5.49-10.73,5.49,0,0-1.85,.72-2.26,0-.47-.87-.16-1.08,.77-2.51,.82-1.28,3.49-4.42,4.31-5.44,.51-.82,.82-1.9,1.54-1.39Z"/><path class="cls-34" d="M966.58,601.51c.31,.72,.97,1.85,2.26,1.8,.82,0,1.95-1.28,2.52-.51,.57,.77,1.08,2.1,.82,3.44-.15,1.03-.41,1.59-2.26,1.85-1.85,.21-12.01-1.03-12.01-1.03,0,0-1.95-.36-1.9-1.18,.1-.98,.46-.98,1.95-1.69,1.39-.67,5.29-1.9,6.52-2.31,.92-.36,1.75-1.13,2.11-.36Z"/><path class="cls-17" d="M1031.98,479.33s-2,1.13-5.08,.31c-2.77-.72-6.98,1.59-7.44,6.73-.31,3.59,3.8,.67,6.21-1.03,1.13-.82,4.67,2,8.06-2,2-2.36-1.75-4-1.75-4Z"/><path class="cls-40" d="M1085.99,430.09s6.88,22.08-2,36.25c-14.01,22.33-52.83,20.59-52.83,20.59l-2.2-9.65s27.1-4.83,36.39-18.53c9.81-14.48,5.04-33.32,5.04-33.32l15.6,4.67Z"/><path class="cls-19" d="M1112.28,484.56c-2.83-34.45-22.03-64.84-36.56-63.66-2.05,.15-3.38,0-4.21,2.82-5.44,18.38-17.96,27.83-15.55,57.4,4.05,6.37,13.35,6.78,19.1,6.32v.15s1.64-.21,6.11-.62c4.46-.31,6.11-.41,6.11-.41l-.06-.15c5.7-.41,13.81-1.03,25.06-1.85Z"/><path class="cls-17" d="M1074.9,416.95l2.31,.72s-.31,3.65-.51,4.57c-.21,.92-2.16,2-2.98,1.13-.82-.92-.97-2.31-1.33-3.85-.57-2,2.51-2.57,2.51-2.57Z"/><path class="cls-17" d="M1077.37,407.35c-1.44-3.54-10.73-2.62-11.35,3.23,0,0-.87,3.85,1.64,7.6,2.52,3.7,8.01,3.7,9.66-.51,1.54-4.16,.77-8.57,.05-10.32Z"/><path class="cls-9" d="M1076.91,420.8s7.8,42.51-20.13,70.18c-27.93,27.67-51.34,57.04-41.58,108.99,18.63,1.49,28.28,5.75,42.14-.46,0-55.45,74.86-51.95,53.81-134.87-2.98-11.55-13.97-41.07-34.24-43.84Z"/><path class="cls-18" d="M1084.91,436.15c-1.18,.67-4.21,1.39-4.21,1.39,0,0,3.44,2.36,5.29,4.57,1.85,25.36-23.05,41.79-23,41.74,20.38-28.44,13.92-63.04,13.92-63.04,0,0,.05,.05,.1,.1,.46,.41,5.95,5.08,7.9,15.25Z"/><path class="cls-18" d="M1064.38,433.02c.87,1.08,1.54,2.98,1.54,2.98,0,0-2.77,1.18-4.47,2.57-11.19,22.79-3.95,41.64-15.24,51.96,6.36-2.31,12.62-14.43,13.81-24.08,2.97-24.49,12.73-44.87,12.73-44.87,0,0-4.57,4.52-8.37,11.45Z"/><path class="cls-32" d="M1057.11,482.91l-45.44,8.96,.6,3.02,45.43-8.96-.59-3.02Z"/><path class="cls-32" d="M1014.99,493.14l-24.49-37.89c-.36-.57-1.08-.72-1.64-.36l-.62,.41c-.57,.36-.72,1.08-.36,1.64l24.49,37.89,2.62-1.69Z"/><path class="cls-17" d="M1037.01,480.51s-2.1,.92-5.08-.1c-2.72-.98-7.08,.98-8.01,6.06-.61,3.54,3.7,1.03,6.27-.46,1.18-.72,4.46,2.36,8.16-1.28,2.26-2.26-1.34-4.21-1.34-4.21Z"/><path class="cls-42" d="M1100.11,449.86s-.46,13.35-9.14,25.31c-15.5,21.3-55.45,12.78-55.45,12.78l-1.38-9.81s28.54-2.51,39.02-15.35c11.03-13.55,12.42-31.52,12.42-31.52l14.53,18.58Z"/><path class="cls-43" d="M1080.45,496.52c17.45-23.77,17.35-34.91,17.35-34.91-1.33,4.16-3.49,8.93-6.83,13.55-7.6,10.42-21,13.71-32.75,14.32-.46,.51-.98,1.03-1.49,1.49-27.93,27.67-51.34,57.04-41.59,108.99,11.97,.92,20.18,3.03,28.24,2.77-3.75-55.45,21.31-84.81,37.07-106.22Z"/><path class="cls-20" d="M1067.31,407.66s4.77,8.68,10.26,9.04c5.03-1.44,5.86-11.35,1.03-15.86-3.9-3.65-10.42-2.46-13.4,2.82-2.1,3.75,.67,7.91,.67,7.91,0,0,1.13-1.54,1.44-3.9Z"/><path class="cls-20" d="M1080.91,401.6c-.62,1.23-2.1,1.75-3.34,1.13-1.23-.62-1.74-2.11-1.13-3.34,.62-1.23,2.11-1.75,3.34-1.13,1.23,.62,1.75,2.11,1.13,3.34Z"/><path class="cls-9" d="M27.52,275.62c.1,0,.26,.01,.35,.12,.4,.22,.53,.69,.31,1.04-.73,1.35-1.46,2.71-2.14,4.12-.17,.4-.64,.54-1.04,.36-.4-.17-.54-.64-.36-1.05,.68-1.41,1.41-2.81,2.19-4.17,.11-.25,.43-.44,.69-.43Zm-4.13,8.4c.1,0,.21,0,.31,.07,.4,.17,.59,.64,.36,1.05-.63,1.41-1.26,2.82-1.84,4.29-.17,.4-.59,.59-1,.42-.4-.17-.59-.64-.42-.99,.58-1.46,1.21-2.88,1.89-4.33,.07-.36,.38-.5,.69-.48Zm-3.58,8.63c.1,0,.15,0,.25,.06,.4,.17,.59,.59,.47,1-.53,1.47-1.06,2.93-1.54,4.4-.12,.4-.59,.64-1,.47-.41-.12-.64-.59-.52-1,.48-1.47,1.01-2.99,1.54-4.45,.17-.3,.48-.49,.79-.48Zm-2.92,8.86c.05,0,.1,0,.21,0,.41,.12,.64,.54,.52,.95-.43,1.47-.85,2.99-1.23,4.47-.12,.41-.55,.7-.95,.57-.41-.12-.64-.54-.57-.95,.38-1.52,.81-3.05,1.23-4.52,.12-.3,.44-.54,.79-.53Zm-2.31,9.1h.1c.41,.07,.7,.5,.58,.9-.33,1.53-.6,3.06-.87,4.53-.07,.41-.44,.7-.9,.63-.41-.07-.7-.49-.63-.9,.27-1.53,.55-3.06,.88-4.64,.17-.3,.49-.54,.85-.53Zm-1.55,9.18h.05c.41,.07,.75,.45,.68,.86-.22,1.53-.4,3.07-.52,4.6-.02,.41-.39,.75-.85,.68-.41-.02-.75-.39-.68-.85,.12-1.54,.3-3.12,.52-4.65,.02-.36,.39-.65,.8-.63Zm-.83,9.32c.41,.02,.75,.39,.73,.8-.07,1.54-.09,3.13-.11,4.62-.02,.41-.34,.76-.76,.79-.41-.02-.76-.34-.79-.75,.02-1.54,.04-3.13,.11-4.72,.02-.41,.34-.76,.8-.73Zm-.01,9.35c.41,.02,.7,.34,.74,.75,.08,1.55,.17,3.09,.36,4.64,.03,.41-.29,.81-.71,.84-.41,.03-.81-.29-.84-.71-.14-1.55-.27-3.1-.35-4.69-.03-.41,.29-.81,.76-.84h.05Zm.92,9.29c.36,.02,.66,.29,.74,.65,.24,1.55,.53,3.06,.82,4.56,.08,.41-.19,.81-.61,.9-.41,.08-.81-.19-.9-.61-.34-1.51-.58-3.06-.82-4.66-.08-.42,.24-.81,.66-.9,0,.05,.05,.05,.1,.06Zm35.06,7.8c.41,.02,.76,.34,.73,.8-.02,.41-.34,.76-.81,.79-1.54-.02-3.04,.12-4.44,.47-.41,.08-.82-.14-.95-.61-.08-.42,.14-.82,.61-.95,1.56-.34,3.16-.53,4.85-.5q-.05,0,0,0Zm4.6,.57c.05,0,.1,0,.15,0,1.53,.33,3.04,.86,4.56,1.49,.4,.17,.59,.64,.42,.99-.17,.4-.64,.59-1,.42-1.41-.58-2.88-1.05-4.31-1.38-.41-.07-.7-.49-.57-.95,.02-.36,.39-.6,.75-.58Zm-13.64,1.54c.26,.01,.51,.18,.65,.44,.19,.37,.06,.88-.36,1.06-1.26,.66-2.53,1.48-3.71,2.45-.32,.29-.83,.27-1.13-.1-.29-.32-.27-.78,.05-1.08l.05-.05c1.23-1.08,2.61-1.94,3.97-2.65,.21-.04,.31-.09,.47-.08Zm-24.07-.78c.31,.01,.61,.23,.69,.6,.39,1.51,.84,2.97,1.34,4.43,.14,.42-.09,.87-.51,1-.42,.14-.87-.09-1-.51-.5-1.46-.94-2.97-1.39-4.53-.14-.42,.14-.87,.56-.95,.16-.04,.21-.04,.31-.04Zm46.28,2.81c.1,0,.25,.06,.35,.12,1.35,.83,2.64,1.76,3.88,2.74,.35,.27,.38,.74,.11,1.08-.27,.35-.79,.38-1.08,.11-1.19-.98-2.43-1.86-3.74-2.64-.35-.22-.48-.69-.26-1.09,.21-.2,.48-.34,.73-.33Zm-29.37,3.86c.15,0,.36,.07,.45,.17,.35,.27,.38,.79,.11,1.08-.92,1.09-1.85,2.28-2.74,3.68-.22,.35-.74,.48-1.09,.21-.35-.22-.48-.74-.21-1.09,.94-1.4,1.87-2.69,2.85-3.83,.16-.15,.37-.24,.63-.23Zm36.55,2.06c.21,0,.41,.12,.55,.28,1.03,1.13,2,2.4,2.97,3.73,.24,.37,.17,.83-.2,1.07s-.83,.17-1.07-.2c-.92-1.27-1.89-2.5-2.87-3.57-.29-.32-.27-.83,.05-1.08,.21-.2,.37-.24,.58-.23Zm-50.47,.08c.31,.01,.56,.18,.7,.49,.6,1.41,1.21,2.83,1.92,4.2,.19,.37,.01,.88-.36,1.06-.37,.19-.87,.01-1.06-.36-.71-1.42-1.31-2.83-1.91-4.3-.19-.42,.04-.87,.41-1.01,.05-.05,.21-.09,.31-.09Zm55.88,7.51c.26,.01,.51,.13,.65,.39,.81,1.37,1.52,2.79,2.17,4.21,.19,.37,.01,.87-.41,1.01-.37,.19-.87,.01-1.01-.4-.61-1.36-1.32-2.73-2.08-4.1-.24-.37-.07-.83,.31-1.07,.1,0,.26-.04,.36-.03Zm-47.19-1.93c.1,0,.25,.06,.35,.12,.35,.22,.53,.69,.31,1.04-.28,.55-.56,1.05-.84,1.61-.45,.85-.9,1.65-1.3,2.51-.17,.35-.59,.54-.94,.37,.34,.48,.62,1,.96,1.48,.24,.37,.17,.83-.2,1.07-.37,.24-.83,.17-1.07-.2-.87-1.27-1.73-2.65-2.49-4.02-.24-.37-.07-.83,.31-1.07,.37-.19,.83-.07,1.07,.3,.34,.53,.62,1.11,.95,1.64,0-.1,.06-.15,.06-.25,.45-.85,.85-1.71,1.3-2.56,.28-.55,.56-1.05,.89-1.61,.07-.3,.38-.45,.64-.43Zm51.07,10.43c.31,.01,.61,.23,.69,.55,.55,1.57,.94,3.13,1.23,4.63,.08,.41-.19,.81-.61,.9-.41,.08-.81-.19-.9-.61-.29-1.45-.69-2.91-1.19-4.42-.14-.42,.09-.87,.51-1.01,.05-.05,.16-.04,.26-.04Zm-55.26-2.04c.1,0,.21,0,.31,.07,.4,.17,.59,.64,.42,1.05-.63,1.41-1.26,2.82-1.84,4.28-.17,.4-.59,.59-1,.42-.4-.17-.59-.59-.42-1,.58-1.46,1.21-2.87,1.84-4.34,.07-.36,.38-.5,.69-.48Zm4.78,2.17c.21,.01,.46,.12,.6,.29,.49,.59,.97,1.23,1.46,1.81,.44,.53,.98,1.12,1.52,1.71,.29,.32,.27,.78-.05,1.08s-.78,.27-1.08-.05c-.59-.64-1.13-1.23-1.56-1.77-.49-.59-.97-1.23-1.46-1.81-.24-.32-.22-.83,.15-1.07,.06-.15,.27-.19,.42-.19Zm6.37,6.87c.15,0,.36,.07,.5,.23,1.08,1.02,2.27,2.05,3.46,3.09,.35,.27,.38,.79,.11,1.08-.27,.35-.79,.38-1.08,.11-1.24-1.03-2.42-2.06-3.56-3.14-.3-.27-.32-.79-.05-1.08,.16-.2,.37-.29,.63-.28Zm45.85,2.18c.41,.02,.76,.34,.74,.75,.02,.62,0,1.18-.03,1.75-.05,1.08-.2,2.1-.4,3.07-.07,.41-.49,.7-.9,.63-.41-.07-.7-.49-.63-.9,.2-.92,.29-1.84,.34-2.86,.02-.51,.05-1.08,.02-1.64-.03-.41,.34-.81,.76-.79h.1Zm-60.47-2.58c.05,0,.15,0,.2,.06,.41,.12,.64,.59,.47,1-.53,1.47-1.01,2.94-1.48,4.4-.12,.41-.54,.64-1,.52-.41-.12-.64-.54-.52-1,.48-1.52,.96-2.99,1.49-4.46,.17-.35,.49-.54,.85-.53Zm21.76,6.43c.15,0,.31,.07,.45,.18,1.24,.93,2.49,1.86,3.73,2.74,.35,.22,.43,.74,.21,1.09-.22,.35-.74,.43-1.09,.21-1.3-.88-2.54-1.81-3.83-2.74-.35-.27-.43-.74-.16-1.09,.22-.3,.43-.39,.69-.38Zm36.72,5.15c.1,0,.25,.06,.35,.12,.35,.22,.48,.69,.31,1.04l-.17,.25c-.83,1.4-1.81,2.59-2.94,3.57-.32,.29-.83,.22-1.07-.1-.29-.32-.22-.83,.1-1.08,1.01-.83,1.89-1.92,2.61-3.17l.11-.2c.12-.3,.43-.44,.69-.43Zm-61.29-2.67c.05,0,.1,0,.15,0,.41,.12,.64,.54,.57,.95-.37,1.47-.75,3-1.13,4.52-.12,.41-.49,.7-.95,.57-.41-.07-.7-.49-.57-.95,.33-1.53,.7-3.05,1.13-4.57,.12-.3,.44-.55,.79-.53Zm32.3,2.8c.1,0,.25,.06,.35,.12,1.35,.83,2.7,1.56,4.01,2.24,.4,.17,.54,.64,.36,1.04-.17,.4-.64,.54-1.04,.36-1.36-.68-2.71-1.46-4.11-2.29-.35-.22-.48-.69-.26-1.09,.11-.25,.43-.39,.69-.38Zm8.34,4.18c.1,0,.15,0,.25,.06,1.52,.58,2.98,1.06,4.36,1.38,.41,.12,.69,.55,.57,.95-.12,.4-.55,.69-.95,.57-1.42-.37-2.99-.85-4.56-1.44-.4-.17-.59-.59-.42-.99,.12-.35,.44-.55,.74-.53Zm13.65,1.49c.31,.01,.61,.23,.69,.54,.14,.42-.09,.87-.51,.95-1.46,.45-3.11,.68-4.86,.6-.41-.02-.75-.39-.73-.8,.02-.41,.39-.75,.8-.73,1.59,.02,3.04-.12,4.34-.52,.1,0,.21-.04,.26-.04Zm-56.35,.64q.05,0,.1,0c.41,.07,.7,.49,.63,.9-.27,1.53-.55,3.06-.77,4.59-.07,.41-.44,.7-.9,.68-.41-.07-.7-.44-.68-.9,.22-1.53,.5-3.11,.78-4.64,.12-.35,.49-.65,.85-.63Zm-1.34,9.24c.46,.07,.8,.45,.73,.85-.17,1.53-.29,3.07-.41,4.61-.02,.41-.39,.75-.8,.74-.41-.02-.75-.39-.73-.86,.12-1.59,.25-3.18,.42-4.66,.02-.41,.39-.7,.8-.68Zm-.68,9.32c.41,.02,.75,.39,.73,.8-.07,1.54-.09,3.08-.05,4.62-.02,.41-.34,.75-.76,.79-.41-.02-.81-.35-.79-.76-.03-1.54-.01-3.14,.06-4.67,.02-.46,.4-.8,.81-.79Zm.04,9.35c.41,.02,.7,.34,.74,.75,.08,1.54,.17,3.09,.25,4.64,.03,.41-.29,.81-.71,.84-.41,.03-.81-.29-.84-.71-.14-1.55-.22-3.15-.3-4.69-.03-.41,.29-.81,.76-.79l.1-.05Zm.76,9.29c.36,.02,.71,.29,.74,.7,.19,1.5,.38,3.05,.61,4.6,.08,.42-.24,.81-.66,.89-.41,.08-.81-.24-.9-.66-.24-1.55-.43-3.1-.61-4.65-.03-.41,.24-.81,.71-.84,0-.05,.05-.05,.1-.05Zm1.38,9.26c.36,.02,.66,.29,.74,.65,.29,1.5,.58,3.06,.92,4.56,.08,.41-.19,.81-.61,.95-.41,.08-.81-.19-.95-.61-.34-1.56-.63-3.06-.92-4.62-.08-.42,.19-.81,.61-.9,.05-.05,.1-.05,.21-.04Zm1.95,9.13c.36,.02,.66,.23,.74,.6,.39,1.51,.79,3.02,1.24,4.48,.14,.42-.14,.87-.51,.95-.42,.14-.87-.14-.95-.51-.45-1.51-.84-3.02-1.23-4.53-.08-.42,.14-.82,.56-.95,.05-.05,.1-.05,.16-.04Zm2.63,8.96c.31,.01,.61,.23,.69,.55,.5,1.46,1,2.97,1.5,4.39,.14,.42-.04,.87-.46,1.01-.42,.14-.87-.04-1.01-.46-.55-1.46-1.05-2.98-1.55-4.44-.14-.42,.09-.87,.51-1.01,.1-.05,.21-.04,.31-.04Zm3.2,8.78c.31,.01,.56,.18,.7,.49,.55,1.41,1.15,2.88,1.81,4.3,.19,.42,.01,.87-.41,1.01-.42,.19-.87,.01-1.01-.41-.6-1.41-1.26-2.88-1.81-4.35-.14-.42,.04-.87,.46-1.01,.05,0,.16-.05,.26-.04Zm3.72,8.6c.26,.01,.56,.18,.65,.44,.66,1.42,1.36,2.79,2.07,4.15,.19,.37,.06,.88-.36,1.06-.37,.19-.88,.06-1.06-.36-.71-1.37-1.42-2.79-2.07-4.2-.19-.37-.01-.88,.36-1.06,.16-.04,.31-.04,.41-.03Zm4.3,8.31c.26,.01,.51,.18,.65,.39,.76,1.37,1.52,2.69,2.34,4.01,.24,.37,.12,.83-.25,1.07-.37,.24-.83,.12-1.07-.25-.81-1.32-1.57-2.69-2.33-4.06-.19-.37-.07-.83,.31-1.07,.06-.1,.21-.09,.36-.09Zm4.78,8.03c.26,.01,.46,.12,.6,.34,.82,1.27,1.68,2.59,2.55,3.87,.24,.37,.17,.83-.2,1.07-.37,.24-.83,.17-1.07-.2-.87-1.27-1.73-2.6-2.6-3.92-.24-.37-.12-.83,.25-1.07,.16-.04,.31-.09,.47-.08Zm5.25,7.69c.21,0,.46,.12,.6,.34,.92,1.22,1.84,2.5,2.81,3.72,.24,.32,.22,.83-.15,1.07-.32,.24-.83,.22-1.07-.15-.97-1.23-1.89-2.5-2.81-3.73-.24-.37-.17-.83,.15-1.07,.11-.15,.32-.19,.47-.18Zm5.73,7.35c.21,0,.41,.12,.55,.28,.97,1.17,2,2.35,3.03,3.53,.29,.32,.27,.84-.05,1.08-.32,.29-.83,.27-1.08-.05-1.03-1.18-2.05-2.35-3.08-3.58-.29-.32-.22-.83,.1-1.07,.16-.1,.37-.19,.52-.18Zm6.21,7.01c.21,0,.41,.07,.55,.23,1.08,1.13,2.16,2.26,3.24,3.33,.29,.32,.32,.79,0,1.08-.32,.29-.79,.32-1.08,0-1.08-1.08-2.21-2.21-3.29-3.34-.29-.32-.27-.78,.05-1.08,.11-.2,.32-.24,.52-.23Zm6.64,6.57c.15,0,.36,.07,.5,.23,1.13,1.08,2.32,2.11,3.46,3.09,.35,.27,.38,.79,.05,1.08-.27,.35-.79,.38-1.08,.05-1.19-1.03-2.32-2.06-3.51-3.14-.3-.27-.32-.79-.05-1.08,.16-.15,.42-.24,.63-.23Zm7.02,6.12c.15,0,.31,.07,.45,.18,1.19,.98,2.43,1.96,3.67,2.89,.35,.27,.43,.74,.16,1.09-.27,.35-.74,.43-1.09,.16-1.24-.93-2.48-1.91-3.67-2.89-.35-.27-.38-.74-.11-1.08,.11-.25,.38-.34,.58-.33Zm7.45,5.63c.15,0,.31,.07,.41,.12,1.25,.88,2.54,1.76,3.84,2.59,.35,.22,.48,.74,.21,1.09-.22,.35-.74,.48-1.09,.21-1.3-.88-2.59-1.76-3.89-2.64-.35-.27-.43-.74-.21-1.09,.21-.14,.48-.29,.73-.27Zm7.84,5.13c.1,0,.25,.06,.35,.12,1.3,.78,2.65,1.61,4.01,2.34,.35,.22,.53,.69,.31,1.04-.22,.35-.69,.53-1.04,.31-1.35-.78-2.7-1.56-4.06-2.34-.35-.22-.48-.69-.26-1.09,.11-.25,.38-.39,.69-.38Zm8.12,4.58c.1,0,.21,.01,.31,.07,1.36,.68,2.76,1.41,4.17,2.04,.4,.17,.54,.64,.36,1.04-.17,.4-.64,.54-1.04,.36-1.41-.68-2.82-1.36-4.22-2.09-.4-.17-.54-.64-.31-1.04,.17-.25,.48-.39,.74-.38Zm8.51,3.93c.1,0,.21,0,.25,.06,1.41,.58,2.88,1.16,4.29,1.73,.4,.17,.59,.59,.47,1-.17,.4-.59,.59-1,.47-1.47-.53-2.93-1.16-4.39-1.74-.4-.17-.59-.64-.42-1,.17-.35,.44-.54,.79-.53Zm8.74,3.32c.05,0,.15,0,.2,.06,1.47,.48,2.94,.96,4.46,1.38,.41,.12,.64,.54,.52,.95s-.54,.64-.95,.52c-1.52-.43-2.99-.91-4.51-1.44-.41-.12-.64-.59-.47-1,.07-.31,.38-.5,.74-.48Z"/><path class="cls-9" d="M959.9,74.29c-.1,0-.15,0-.26-.05-1.49-.46-2.98-.98-4.47-1.49-.41-.15-.62-.56-.51-.98,.15-.41,.57-.62,.98-.51,1.49,.51,2.98,.98,4.41,1.44,.41,.15,.62,.56,.51,.98,0,.41-.31,.62-.67,.62Zm-8.83-2.98c-.1,0-.15,0-.26-.05-1.49-.51-2.93-1.03-4.41-1.54-.41-.15-.62-.56-.46-.98,.15-.41,.56-.62,.97-.46,1.49,.51,2.93,1.03,4.41,1.54,.41,.15,.62,.56,.46,.98-.1,.31-.41,.51-.72,.51Zm-8.83-3.08c-.1,0-.15,0-.26-.05-1.49-.51-2.93-1.08-4.41-1.59-.41-.15-.62-.62-.46-.98,.15-.41,.62-.62,.98-.46,1.44,.51,2.93,1.08,4.36,1.59,.41,.15,.62,.62,.46,.98-.05,.31-.36,.51-.67,.51Zm-8.78-3.23c-.1,0-.21,0-.26-.05-1.44-.56-2.93-1.13-4.36-1.64-.41-.15-.62-.62-.46-1.03,.15-.41,.62-.62,1.03-.46,1.44,.56,2.93,1.13,4.36,1.64,.41,.15,.62,.62,.46,1.03-.15,.36-.46,.51-.77,.51Zm-8.73-3.34c-.1,0-.2,0-.31-.05-1.44-.56-2.88-1.13-4.36-1.75-.41-.15-.62-.62-.41-1.03,.15-.41,.62-.62,1.03-.41,1.44,.56,2.88,1.18,4.31,1.75,.41,.15,.62,.62,.46,1.03-.1,.26-.41,.46-.72,.46Zm-39.79-2.52q-.05,0,0,0c-1.59,0-3.18-.21-4.77-.46-.41-.05-.72-.46-.62-.92,.05-.41,.46-.72,.92-.62,1.49,.26,3.03,.41,4.52,.46,.41,0,.77,.36,.77,.77-.05,.41-.41,.77-.82,.77Zm4.62-.36c-.36,0-.72-.26-.77-.67-.05-.41,.2-.82,.62-.92,1.54-.26,2.98-.72,4.31-1.28,.41-.15,.87,0,1.03,.41,.15,.41,0,.87-.41,1.03-1.44,.62-3.03,1.08-4.62,1.39-.05,.05-.1,.05-.15,.05Zm26.49-.62c-.1,0-.21,0-.31-.05-1.44-.62-2.88-1.18-4.31-1.8-.41-.15-.56-.62-.41-1.03,.15-.41,.62-.56,1.03-.41,1.44,.62,2.88,1.18,4.31,1.8,.41,.15,.57,.62,.41,1.03-.1,.26-.41,.46-.72,.46Zm-40.3-.67c-.1,0-.15,0-.26-.05-1.39-.46-2.72-1.08-4-1.75l-.36-.21c-.36-.21-.51-.67-.31-1.08,.21-.36,.67-.51,1.08-.31l.36,.21c1.18,.62,2.46,1.18,3.8,1.64,.41,.15,.62,.56,.46,.98-.15,.36-.46,.56-.77,.56Zm-135.69-1.75c-1.33,0-2.67-.1-3.95-.36-.41-.05-.72-.46-.62-.92,.05-.41,.46-.72,.93-.62,1.49,.26,2.98,.36,4.47,.31,.46,0,.77,.31,.82,.77,0,.41-.31,.77-.77,.82h-.87Zm157.97-.67c-.26,0-.46-.1-.62-.31-.26-.36-.21-.82,.15-1.08,.87-.72,1.69-1.49,2.41-2.36,.26-.26,.46-.56,.67-.82,.26-.36,.77-.41,1.08-.15,.36,.26,.41,.77,.15,1.08-.26,.31-.46,.62-.72,.92-.82,.92-1.7,1.8-2.67,2.57-.1,.1-.26,.15-.46,.15Zm-152.58-.1c-.36,0-.67-.21-.77-.56-.1-.41,.1-.82,.57-.98,.36-.1,.77-.21,1.13-.36,1.08-.36,2.1-.82,3.08-1.33,.36-.21,.87-.05,1.03,.36,.21,.36,.05,.87-.36,1.03-1.03,.51-2.1,.98-3.23,1.39-.41,.15-.82,.26-1.23,.41-.05,.05-.1,.05-.21,.05Zm162.03-.46c-.1,0-.2,0-.31-.05-1.44-.62-2.88-1.23-4.31-1.85-.41-.15-.57-.62-.41-1.03,.15-.41,.62-.56,1.03-.41,1.44,.62,2.88,1.23,4.26,1.85,.41,.15,.57,.62,.41,1.03-.1,.31-.41,.46-.67,.46Zm-175.73-.46c-.1,0-.21,0-.31-.05-1.49-.62-2.93-1.39-4.26-2.31-.36-.26-.41-.72-.21-1.08,.26-.36,.72-.41,1.08-.21,1.23,.87,2.52,1.59,3.95,2.16,.41,.15,.57,.62,.41,1.03-.1,.31-.36,.46-.67,.46Zm135.74-.92c-.15,0-.31-.05-.46-.15-1.23-.87-2.52-1.8-3.8-2.82-.36-.26-.36-.77-.1-1.08,.26-.31,.77-.36,1.08-.1,1.28,1.03,2.47,1.95,3.7,2.77,.36,.26,.46,.72,.21,1.08-.1,.21-.36,.31-.62,.31Zm31.42-2.36c-.1,0-.21,0-.31-.05-1.64-.72-2.98-1.39-4.26-2-.41-.21-.56-.67-.36-1.03,.2-.36,.67-.56,1.03-.36,1.28,.62,2.62,1.23,4.21,1.95,.41,.15,.56,.62,.41,1.03-.15,.31-.41,.46-.72,.46Zm-145.19-.05c-.21,0-.46-.1-.62-.26-.26-.31-.21-.82,.1-1.08,1.18-.98,2.21-2.05,3.08-3.23,.26-.36,.72-.41,1.08-.15,.36,.26,.41,.72,.15,1.08-.97,1.28-2.05,2.46-3.34,3.54-.15,.05-.31,.1-.46,.1Zm-29.52-2c-.21,0-.41-.1-.57-.26-.72-.87-1.39-1.8-1.95-2.77-.26-.41-.46-.87-.72-1.28-.21-.36-.05-.87,.36-1.03,.36-.21,.87-.05,1.03,.36,.21,.41,.41,.82,.67,1.18,.51,.87,1.13,1.75,1.8,2.52,.26,.31,.26,.82-.1,1.08-.15,.15-.36,.21-.51,.21Zm179.43-1.03c-.1,0-.21,0-.31-.05-.41-.15-.57-.62-.41-1.03,.62-1.33,1.08-2.77,1.39-4.31,.1-.41,.51-.67,.92-.62,.41,.1,.67,.51,.62,.92-.36,1.59-.87,3.13-1.49,4.57-.1,.36-.41,.51-.72,.51Zm-43.38-.41c-.2,0-.36-.05-.51-.21-1.03-.98-2.16-2-3.39-3.23-.31-.31-.31-.77,0-1.08,.31-.31,.77-.31,1.08,0,1.23,1.23,2.31,2.26,3.34,3.18,.31,.31,.36,.77,.05,1.08-.15,.21-.36,.26-.57,.26Zm30.29-.62c-.1,0-.26-.05-.36-.1-1.49-.82-2.82-1.59-4.06-2.41-.36-.21-.46-.72-.26-1.08,.26-.36,.72-.46,1.08-.26,1.23,.77,2.57,1.54,4,2.36,.36,.21,.51,.67,.31,1.08-.21,.31-.46,.41-.72,.41Zm-131.38-3.39c-.1,0-.21,0-.31-.05-.41-.15-.57-.62-.41-1.03,.57-1.39,.98-2.82,1.18-4.31,.05-.41,.46-.72,.87-.67,.41,.05,.72,.46,.67,.87-.26,1.64-.72,3.18-1.28,4.67-.1,.31-.41,.51-.72,.51Zm123.52-1.64c-.15,0-.31-.05-.46-.15-1.03-.77-2-1.59-2.93-2.46-.26-.21-.46-.41-.72-.67-.31-.31-.31-.77,0-1.08,.31-.31,.77-.31,1.08,0,.21,.21,.46,.41,.67,.62,.87,.82,1.8,1.59,2.82,2.36,.36,.26,.41,.77,.15,1.08-.15,.21-.41,.31-.62,.31Zm-29.11-.87c-.2,0-.41-.1-.57-.26l-.77-.77c-.82-.87-1.64-1.69-2.52-2.57-.31-.31-.31-.82,0-1.08,.31-.31,.82-.31,1.08,0,.82,.82,1.69,1.69,2.52,2.57l.77,.77c.31,.31,.31,.82,0,1.08-.1,.15-.31,.26-.51,.26Zm-133.53-.31c-.36,0-.67-.26-.77-.62-.26-1.13-.36-2.26-.36-3.39,0-.51,0-1.03,.05-1.49,.05-.41,.41-.72,.87-.72,.41,.05,.72,.41,.72,.87-.05,.46-.05,.92-.05,1.39,0,1.03,.1,2.05,.31,3.03,.1,.41-.15,.82-.62,.92h-.15Zm185.59-1.8c-.46,0-.77-.36-.77-.82v-1.9c-.05-.82-.1-1.75-.21-2.62-.05-.41,.26-.82,.67-.87,.41-.05,.82,.26,.87,.67,.1,.98,.2,1.9,.2,2.77v2c0,.41-.36,.77-.77,.77Zm-29.62-3.54c-.26,0-.46-.1-.62-.31-.97-1.28-1.9-2.62-2.67-3.95-.21-.36-.1-.87,.31-1.08,.36-.21,.87-.1,1.08,.31,.77,1.28,1.59,2.57,2.57,3.8,.26,.36,.21,.82-.15,1.08-.21,.1-.36,.15-.51,.15Zm-29.06-.98c-.21,0-.41-.05-.51-.21-1.13-1.08-2.26-2.1-3.44-3.13-.31-.31-.36-.77-.05-1.08,.31-.31,.77-.36,1.08-.05,1.18,1.03,2.36,2.1,3.49,3.18,.31,.31,.31,.77,.05,1.08-.21,.15-.41,.21-.62,.21Zm-86.3,0c-.41,0-.77-.31-.77-.72-.1-1.49-.31-2.98-.67-4.47-.1-.41,.15-.82,.57-.92,.41-.1,.82,.15,.92,.56,.41,1.59,.67,3.18,.72,4.77,.05,.36-.26,.72-.77,.77q.05,0,0,0Zm-39.74-2.88c-.1,0-.21,0-.31-.05-.41-.15-.62-.62-.41-1.03,.57-1.44,1.34-2.82,2.31-4.26,.26-.36,.72-.46,1.08-.21,.36,.26,.46,.72,.21,1.08-.87,1.33-1.59,2.62-2.16,3.95-.1,.36-.41,.51-.72,.51Zm183.69-1.9c-.36,0-.67-.26-.77-.62-.36-1.44-.77-2.93-1.23-4.42-.15-.41,.1-.87,.51-.98,.41-.15,.87,.1,.98,.51,.51,1.54,.92,3.08,1.28,4.57,.1,.41-.15,.82-.56,.92h-.21Zm-64.64-1.39c-.15,0-.36-.05-.51-.15-1.18-.98-2.41-1.95-3.65-2.88-.36-.26-.41-.77-.15-1.08,.26-.36,.77-.41,1.08-.15,1.23,.92,2.46,1.9,3.7,2.93,.31,.26,.36,.77,.1,1.08-.1,.15-.36,.26-.57,.26Zm31.42-.92c-.31,0-.62-.21-.72-.51-.57-1.54-1.03-3.08-1.33-4.62-.1-.41,.21-.82,.62-.92,.41-.1,.82,.21,.92,.62,.31,1.44,.72,2.93,1.28,4.36,.15,.41-.05,.87-.46,1.03-.15,0-.26,.05-.31,.05Zm-113-1.95c-.31,0-.57-.15-.72-.46-.62-1.39-1.39-2.67-2.21-3.95-.26-.36-.15-.82,.21-1.08,.36-.26,.82-.15,1.08,.21,.92,1.33,1.69,2.72,2.36,4.16,.15,.41,0,.87-.41,1.03-.05,.1-.21,.1-.31,.1Zm-32.34-1.54c-.21,0-.36-.05-.51-.21-.31-.31-.31-.77-.05-1.08,1.03-1.08,2.16-2.21,3.44-3.29,.31-.26,.82-.26,1.08,.1,.26,.31,.26,.82-.1,1.08-1.23,1.08-2.31,2.1-3.28,3.18-.15,.1-.36,.21-.57,.21Zm106.48-1.23c-.15,0-.31-.05-.46-.15-1.28-.87-2.57-1.75-3.85-2.57-.36-.26-.46-.72-.26-1.08,.26-.36,.72-.46,1.08-.26,1.34,.82,2.62,1.75,3.9,2.62,.36,.26,.46,.72,.21,1.08-.15,.26-.41,.36-.62,.36Zm69.15-1.85c-.31,0-.62-.15-.72-.46-.62-1.44-1.28-2.82-1.95-4.16-.2-.36-.05-.87,.31-1.03,.36-.21,.87-.05,1.03,.31,.72,1.39,1.39,2.82,2,4.31,.15,.41,0,.87-.41,1.03h-.26Zm-32.09-2.57c-.41,0-.77-.31-.77-.72,0-1.39,.1-2.67,.31-3.95,.05-.31,.1-.56,.15-.87,.1-.41,.51-.67,.92-.56,.41,.1,.67,.51,.57,.92-.05,.26-.1,.51-.15,.77-.21,1.18-.31,2.41-.31,3.59,.05,.41-.31,.82-.72,.82Zm-207.82-.05c-.26,0-.51-.15-.67-.41-.21-.36-.1-.87,.31-1.08,1.33-.77,2.77-1.54,4.16-2.21,.36-.21,.87-.05,1.03,.36,.21,.36,.05,.87-.36,1.03-1.39,.72-2.72,1.44-4.11,2.21-.1,.1-.21,.1-.36,.1Zm91.43-.46c-.21,0-.41-.1-.56-.26-1.03-1.13-2.1-2.16-3.29-3.18-.31-.26-.36-.77-.1-1.08,.26-.31,.77-.36,1.08-.1,1.23,1.03,2.36,2.16,3.44,3.29,.31,.31,.26,.82-.05,1.08-.15,.21-.31,.26-.51,.26Zm-20.12,0c-.26,0-.46-.1-.62-.31-.26-.36-.21-.82,.15-1.08,1.18-.87,2.52-1.8,3.9-2.67,.36-.26,.82-.15,1.08,.21,.26,.36,.15,.82-.21,1.08-1.34,.87-2.62,1.8-3.8,2.62-.21,.1-.36,.15-.51,.15Zm91.54-.1c-.15,0-.26-.05-.41-.1-1.34-.77-2.67-1.54-4.06-2.26-.36-.21-.51-.67-.31-1.08,.21-.36,.67-.51,1.08-.31,1.39,.77,2.77,1.54,4.11,2.31,.36,.21,.51,.72,.26,1.08-.1,.21-.36,.36-.67,.36Zm-154.53-3.7c-.31,0-.57-.15-.72-.46-.2-.41,0-.87,.36-1.03,1.44-.67,2.88-1.28,4.31-1.9,.41-.15,.87,0,1.03,.41,.15,.41,0,.87-.41,1.03-1.44,.62-2.82,1.23-4.26,1.9-.1,0-.21,.05-.31,.05Zm146.32-.77c-.1,0-.26-.05-.36-.1-1.39-.67-2.77-1.33-4.21-1.95-.41-.15-.57-.62-.41-1.03,.15-.41,.62-.56,1.03-.41,1.44,.62,2.88,1.33,4.26,2,.41,.21,.57,.67,.36,1.03-.1,.31-.36,.46-.67,.46Zm-75.52-.56c-.26,0-.51-.15-.67-.36-.21-.36-.1-.87,.26-1.08,.82-.46,1.59-.92,2.41-1.39-.36-.21-.72-.41-1.13-.62-.36-.21-.51-.67-.31-1.08,.21-.36,.67-.51,1.08-.31,.67,.36,1.34,.72,2,1.13,.05,0,.05-.05,.1-.05,.36-.21,.87-.05,1.03,.31,.1,.15,.1,.31,.1,.46,.31,.21,.57,.36,.87,.56,.36,.26,.46,.72,.21,1.08-.26,.36-.72,.46-1.08,.21-.41-.26-.82-.56-1.28-.82-1.08,.56-2.16,1.18-3.18,1.8-.15,.1-.31,.15-.41,.15Zm156.43,0c-.26,0-.51-.1-.67-.36-.87-1.33-1.8-2.57-2.72-3.65-.26-.31-.26-.82,.1-1.08,.31-.26,.82-.26,1.08,.1,.98,1.13,1.95,2.41,2.88,3.8,.26,.36,.15,.82-.21,1.08-.15,.05-.31,.1-.46,.1Zm-218.65-2.31c-.31,0-.62-.21-.72-.51-.15-.41,.05-.87,.46-1.03,1.49-.56,2.98-1.08,4.41-1.59,.41-.15,.87,.1,.98,.51,.15,.41-.1,.87-.51,.98-1.44,.51-2.93,1.03-4.36,1.59-.05,.05-.15,.05-.26,.05Zm129.22-.92c-.1,0-.21,0-.31-.05-1.44-.56-2.88-1.13-4.31-1.64-.41-.15-.62-.62-.46-.98,.15-.41,.62-.62,.98-.46,1.44,.51,2.93,1.08,4.41,1.69,.41,.15,.62,.62,.41,1.03-.1,.26-.41,.41-.72,.41Zm63.82-.1c-.1,0-.26-.05-.36-.1-.36-.21-.51-.67-.31-1.08,.82-1.49,1.8-2.77,2.93-3.9,.31-.31,.82-.31,1.08,0,.31,.31,.31,.82,0,1.08-1.03,1.03-1.9,2.21-2.62,3.54-.15,.31-.41,.46-.72,.46Zm-122.55-.98c-.31,0-.57-.15-.72-.46-.15-.41,0-.87,.41-1.03,1.44-.67,2.93-1.28,4.36-1.8,.41-.15,.87,.05,1.03,.46,.15,.41-.05,.87-.46,1.03-1.44,.56-2.88,1.13-4.26,1.8-.15-.05-.26,0-.36,0Zm-61.61-.98c-.36,0-.67-.21-.77-.56-.1-.41,.1-.82,.51-.98,1.49-.46,3.03-.87,4.52-1.23,.41-.1,.82,.15,.92,.56,.1,.41-.15,.82-.57,.92-1.49,.36-2.98,.77-4.47,1.23,0,0-.1,.05-.15,.05Zm50.42-.1c-.1,0-.21,0-.31-.05-1.39-.62-2.82-1.13-4.31-1.59-.41-.15-.62-.56-.51-.98,.15-.41,.57-.62,.98-.51,1.49,.51,3.03,1.03,4.41,1.64,.41,.15,.57,.62,.41,1.03-.1,.26-.36,.46-.67,.46Zm61.15-1.03c-.1,0-.15,0-.26-.05-1.49-.46-2.98-.92-4.47-1.33-.41-.1-.67-.56-.57-.98,.1-.41,.57-.67,.97-.56,1.49,.41,3.03,.87,4.52,1.33,.41,.15,.62,.56,.51,.98-.05,.41-.36,.62-.72,.62Zm92.1-.62c-.15,0-.36-.05-.51-.15-1.18-.98-2.41-1.8-3.65-2.36l-.1-.05c-.41-.21-.57-.67-.36-1.03,.21-.41,.67-.56,1.03-.36l.15,.05c1.34,.67,2.67,1.54,3.95,2.57,.31,.26,.36,.77,.1,1.08-.15,.15-.36,.26-.62,.26Zm-194.63-.56c-.36,0-.67-.26-.77-.62-.1-.41,.21-.82,.62-.92,1.54-.31,3.08-.62,4.62-.87,.41-.05,.82,.21,.87,.67,.05,.41-.21,.82-.67,.87-1.49,.26-3.03,.51-4.57,.82,0,.05-.05,.05-.1,.05Zm61.3-.05c-.31,0-.62-.21-.72-.56-.15-.41,.1-.87,.51-.98,1.54-.46,3.03-.92,4.57-1.28,.41-.1,.82,.15,.92,.56,.1,.41-.15,.82-.56,.92-1.49,.36-2.98,.77-4.47,1.23-.1,.1-.2,.1-.26,.1Zm-28.8-.62h-.15c-1.49-.36-3.03-.62-4.52-.82-.41-.05-.72-.46-.67-.87,.05-.41,.46-.72,.87-.67,1.54,.21,3.13,.51,4.67,.87,.41,.1,.67,.51,.57,.92-.1,.31-.41,.56-.77,.56Zm61.04-.67h-.2c-.98-.21-1.9-.46-2.88-.67-.57-.1-1.08-.21-1.64-.31-.41-.05-.72-.46-.62-.92,.05-.41,.46-.72,.92-.62l1.7,.31c.97,.21,1.95,.41,2.93,.67,.41,.1,.67,.51,.57,.92-.1,.41-.41,.62-.77,.62Zm-84.3-.1c-.41,0-.72-.31-.77-.67-.05-.41,.26-.82,.67-.87,1.59-.15,3.13-.31,4.67-.41,.41-.05,.82,.31,.82,.72,.05,.41-.31,.82-.72,.82-1.54,.1-3.08,.26-4.62,.41h-.05Zm14.02-.51q-.05,0,0,0h-.21c-1.18-.05-2.36-.1-3.59-.05h-.87c-.41,0-.77-.36-.77-.77s.36-.77,.77-.77h.97c1.18,0,2.36,0,3.54,.05h.2c.41,0,.77,.41,.72,.82-.05,.36-.36,.72-.77,.72Zm158.43-.21c-.31,0-.56-.15-.72-.46-.15-.41,0-.87,.41-1.03,1.49-.67,3.03-1.03,4.62-1.03h.26c.41,0,.77,.36,.77,.82,0,.41-.36,.77-.77,.77h-.2c-1.34,0-2.67,.31-3.95,.87-.21,.05-.31,.05-.41,.05Zm-111.3-.1c-.36,0-.72-.26-.77-.67-.05-.41,.21-.82,.62-.87,1.59-.26,3.13-.46,4.67-.62,.46-.05,.82,.26,.82,.72,.05,.41-.26,.82-.72,.82-1.49,.15-3.03,.31-4.57,.56q0,.05-.05,.05Zm13.97-.62h-.05c-1.39-.1-2.88-.15-4.31-.15h-.31c-.41,0-.77-.36-.77-.77s.36-.77,.77-.77h.31c1.49,0,2.98,.05,4.41,.21,.41,.05,.77,.41,.72,.82-.05,.36-.36,.67-.77,.67Z"/><path class="cls-44" d="M1014.26,109.44h80.04c3.28,0,7.65-.15,10.11-2.67,2.21-2.26,1.59-5.96,.31-8.52-.92-1.8-2.57-3.54-4.52-4.21-3.18-1.08-5.95,.41-9.03,1.18-5.5,1.33-9.66-2.16-11.4-7.08-1.49-4.16-3.54-8.42-6.98-11.35-3.65-3.08-9.09-3.75-13.3-1.28-5.24,3.03-7.91,8.88-12.63,12.58-8.63,6.73-21.72,8.83-31.37,2.93-4.82-2.98-10.99-7.85-16.53-3.23-1.85,1.54-2.72,3.65-2.93,5.85-.26,3.23,.97,6.78,2.88,9.24,2.31,2.88,7.96,6.57,15.35,6.57Z"/><path class="cls-45" d="M311.26,152.44h80.04c3.29,0,7.65-.15,10.11-2.67,2.21-2.26,1.59-5.96,.31-8.52-.92-1.8-2.57-3.54-4.52-4.21-3.18-1.08-5.95,.41-9.04,1.18-5.49,1.33-9.65-2.16-11.4-7.09-1.49-4.16-3.54-8.42-6.98-11.35-3.65-3.08-9.09-3.75-13.3-1.28-5.24,3.03-7.91,8.88-12.63,12.58-8.62,6.72-21.72,8.83-31.37,2.93-4.83-2.98-10.99-7.85-16.53-3.24-1.85,1.54-2.72,3.65-2.93,5.85-.26,3.24,.98,6.78,2.88,9.24,2.31,2.88,7.96,6.57,15.35,6.57Z"/></svg>